<svg xmlns="http://www.w3.org/2000/svg" xmlns:xlink="http://www.w3.org/1999/xlink" x="0px" y="0px" viewBox="0 0 3710 3710" style="enable-background:new 0 0 3710 3710;" xml:space="preserve"><g id="Background">	<g>		<g>			<rect style="fill:#FFFFFF;" width="3710" height="3710"></rect>		</g>	</g></g><g id="Illustration">	<g>		<path style="fill:#F4F7FA;" d="M2604.357,590.95c96.831,135.559-12.692,358.137,129.938,459.354   c138.839,98.527,306.383-67.129,437.143,17.565c193.977,125.638,164.944,710.176-112.877,1076.094   c-83.55,110.044-153.875,153.258-183.919,277.035c-64.516,265.78,173.686,420.973,130.051,552.546   c-98.25,296.256-1654.408,560.354-2289.188-320.208c-296.468-411.259-346.469-1009.099-90.259-1466.256   C1088.21,361.003,2387.084,286.78,2604.357,590.95z"></path>		<g>			<g>				<linearGradient id="SVGID_1_" gradientUnits="userSpaceOnUse" x1="827.203" y1="1664.4539" x2="1630.9906" y2="1664.4539">					<stop offset="0" style="stop-color:#FF9085"></stop>					<stop offset="1" style="stop-color:#FB6FBB"></stop>				</linearGradient>				<polygon style="fill:url(#SVGID_1_);" points="1630.991,2855.721 827.203,2794.577 827.203,532.717 1630.991,473.187     "></polygon>				<polygon style="fill:#D8DEE8;" points="905.065,1357.506 905.065,2318.743 889.329,2318.743 889.329,2564.759      1630.991,2564.759 1630.991,1357.506     "></polygon>				<g>					<defs>						<polygon id="SVGID_00000143594531048772261420000010011662138736650629_" points="889.329,2695.714 889.329,631.705        1630.991,581.855 1630.991,2747.053       "></polygon>					</defs>					<clipPath id="SVGID_00000021799526090572339050000004277046273340071869_">						<use xlink:href="#SVGID_00000143594531048772261420000010011662138736650629_" style="overflow:visible;"></use>					</clipPath>					<g style="clip-path:url(#SVGID_00000021799526090572339050000004277046273340071869_);">						<path style="fill:#FFFFFF;" d="M1871.575,308.336c0,0,0.78,520.334,117.462,759.191       c116.682,238.857,160.584,471.405,72.78,607.567c-87.804,136.162-430.826-71.607-430.826-71.607       s-161.849,114.191-235.019,358.538c-73.17,244.347-548.774,447.958-651.211,379.079S686.224,428.172,686.224,428.172       L1871.575,308.336z"></path>						<path style="fill:#FFFFFF;" d="M722.809,2481.321c0,0,288.195,134.39,506.288,10.208       c218.094-124.183,401.894-347.35,401.894-347.35s221.801,135.91,340.948,128.32c119.146-7.59,207.288-389.877,207.288-389.877       s197.221-98.012,285.024-296.881c87.803-198.869,357.32-415.447,504.872-460.815       c147.551-45.367,234.143,39.327,234.143,39.327l-36.585,1733.41L889.329,3016.919L722.809,2481.321z"></path>													<linearGradient id="SVGID_00000145043633959077303120000015291815683308390815_" gradientUnits="userSpaceOnUse" x1="2499.196" y1="339.6326" x2="3138.4431" y2="1771.2404">							<stop offset="0" style="stop-color:#FCB148"></stop>							<stop offset="0.0521" style="stop-color:#FDBA46"></stop>							<stop offset="0.1424" style="stop-color:#FFC244"></stop>							<stop offset="0.3183" style="stop-color:#FFC444"></stop>							<stop offset="0.4849" style="stop-color:#FDB946"></stop>							<stop offset="0.7754" style="stop-color:#F99C4D"></stop>							<stop offset="0.8658" style="stop-color:#F8924F"></stop>							<stop offset="1" style="stop-color:#F8924F"></stop>						</linearGradient>						<path style="fill:url(#SVGID_00000145043633959077303120000015291815683308390815_);" d="M2020.699,373.051       c0,0-77.702,356.529,0,451.031c77.702,94.503,136.914,364.976,158.527,438.273c21.613,73.297,189.904,233.732,277.707,87.662       c87.804-146.07,219.509-252.616,285.363-301.781c65.853-49.165,482.921-99.655,504.871-136.604       c21.951-36.949,36.585-456.212,36.585-456.212L2020.699,373.051z"></path>					</g>				</g>			</g>			<g>									<linearGradient id="SVGID_00000021087304946819280770000002134193352141768616_" gradientUnits="userSpaceOnUse" x1="2434.918" y1="1117.3069" x2="3366.3088" y2="3516.3401">					<stop offset="0" style="stop-color:#FF9085"></stop>					<stop offset="1" style="stop-color:#FB6FBB"></stop>				</linearGradient>				<polygon style="fill:url(#SVGID_00000021087304946819280770000002134193352141768616_);" points="2179.226,2725.754      3116.673,2725.754 3116.673,606.295 2179.226,606.295     "></polygon>				<polygon style="fill:#D8DEE8;" points="3040.664,2628.928 3040.664,701.647 2179.226,701.647 1920.722,1429.416      2179.226,2628.928     "></polygon>				<g>					<defs>													<rect id="SVGID_00000060008478814132019660000014839602167385055402_" x="1646.304" y="1234.569" transform="matrix(-1.836970e-16 1 -1 -1.836970e-16 4275.2324 -944.6578)" width="1927.281" height="861.438"></rect>					</defs>					<clipPath id="SVGID_00000066479664623605958430000006528292668752007568_">						<use xlink:href="#SVGID_00000060008478814132019660000014839602167385055402_" style="overflow:visible;"></use>					</clipPath>					<g style="clip-path:url(#SVGID_00000066479664623605958430000006528292668752007568_);">						<path style="fill:#FFFFFF;" d="M1871.575,308.336c0,0,0.78,520.334,117.462,759.191       c116.682,238.857,160.584,471.405,72.78,607.567c-87.804,136.162-430.826-71.607-430.826-71.607       s-161.849,114.191-235.019,358.538c-73.17,244.347-548.774,447.958-651.211,379.079S686.224,428.172,686.224,428.172       L1871.575,308.336z"></path>						<path style="fill:#FFFFFF;" d="M722.809,2481.321c0,0,288.195,134.39,506.288,10.208       c218.094-124.183,401.894-347.35,401.894-347.35s221.801,135.91,340.948,128.32c119.146-7.59,207.288-389.877,207.288-389.877       s197.221-98.012,285.024-296.881c87.803-198.869,357.32-415.447,504.872-460.815       c147.551-45.367,234.143,39.327,234.143,39.327l-36.585,1733.41L889.329,3016.919L722.809,2481.321z"></path>						<path style="fill:#FFFFFF;" d="M2020.699,373.051c0,0-77.702,356.529,0,451.031       c77.702,94.503,136.914,364.976,158.527,438.273c21.613,73.297,189.904,233.732,277.707,87.662       c87.804-146.07,219.509-252.616,285.363-301.781c65.853-49.165,482.921-99.655,504.871-136.604       c21.951-36.949,36.585-456.212,36.585-456.212L2020.699,373.051z"></path>					</g>				</g>			</g>			<g>									<linearGradient id="SVGID_00000036237880621476585390000003307232395129320600_" gradientUnits="userSpaceOnUse" x1="1406.3313" y1="1663.0923" x2="2424.0972" y2="1669.2605">					<stop offset="0" style="stop-color:#FF9085"></stop>					<stop offset="1" style="stop-color:#FB6FBB"></stop>				</linearGradient>				<polygon style="fill:url(#SVGID_00000036237880621476585390000003307232395129320600_);" points="2179.226,2725.754      1630.991,2855.721 1630.991,473.187 2179.226,606.295 2179.226,701.647 2076.6,905.346 2045.245,2588.64 2179.226,2628.928          "></polygon>				<polygon style="fill:#97A6B7;" points="2179.226,2306.063 2179.226,726.402 1986.181,660.319 1890.432,639.167      1873.911,637.225 1873.911,1600.985 1630.991,1600.985 1630.991,2306.063     "></polygon>				<g>					<defs>						<polygon id="SVGID_00000140724904382097145530000016480026931118216838_" points="1630.991,2747.053 1630.991,581.855        2179.226,701.647 2179.226,2629.085       "></polygon>					</defs>					<clipPath id="SVGID_00000088105580153268993160000005482221704934642073_">						<use xlink:href="#SVGID_00000140724904382097145530000016480026931118216838_" style="overflow:visible;"></use>					</clipPath>					<g style="clip-path:url(#SVGID_00000088105580153268993160000005482221704934642073_);">						<path style="fill:#D8DEE8;" d="M1871.575,308.336c0,0,0.78,520.334,117.462,759.191       c116.682,238.857,160.584,471.405,72.78,607.567c-87.804,136.162-430.826-71.607-430.826-71.607       s-161.849,114.191-235.019,358.538c-73.17,244.347-548.774,447.958-651.211,379.079S686.224,428.172,686.224,428.172       L1871.575,308.336z"></path>						<path style="fill:#D8DEE8;" d="M722.809,2481.321c0,0,288.195,134.39,506.288,10.208       c218.094-124.183,401.894-347.35,401.894-347.35s221.801,135.91,340.948,128.32c119.146-7.59,207.288-389.877,207.288-389.877       s197.221-98.012,285.024-296.881c87.803-198.869,357.32-415.447,504.872-460.815       c147.551-45.367,234.143,39.327,234.143,39.327l-36.585,1733.41L889.329,3016.919L722.809,2481.321z"></path>						<path style="fill:#D8DEE8;" d="M2020.699,373.051c0,0-77.702,356.529,0,451.031       c77.702,94.503,136.914,364.976,158.527,438.273c21.613,73.297,189.904,233.732,277.707,87.662       c87.804-146.07,219.509-252.616,285.363-301.781c65.853-49.165,482.921-99.655,504.871-136.604       c21.951-36.949,36.585-456.212,36.585-456.212L2020.699,373.051z"></path>					</g>				</g>			</g>			<g>									<linearGradient id="SVGID_00000145771342498024756050000009343076680957960324_" gradientUnits="userSpaceOnUse" x1="2602.6284" y1="1713.7007" x2="2617.2625" y2="1713.7007">					<stop offset="0" style="stop-color:#311944"></stop>					<stop offset="1" style="stop-color:#A03976"></stop>				</linearGradient>									<rect x="2602.628" y="701.647" style="opacity:0.53;fill:url(#SVGID_00000145771342498024756050000009343076680957960324_);" width="14.634" height="2024.107"></rect>									<linearGradient id="SVGID_00000044173890271405823510000008293435818830870193_" gradientUnits="userSpaceOnUse" x1="1252.8438" y1="1666.2668" x2="1267.4775" y2="1666.2668">					<stop offset="0" style="stop-color:#311944"></stop>					<stop offset="1" style="stop-color:#A03976"></stop>				</linearGradient>									<rect x="1252.844" y="606.78" style="opacity:0.53;fill:url(#SVGID_00000044173890271405823510000008293435818830870193_);" width="14.634" height="2118.973"></rect>									<linearGradient id="SVGID_00000124840431233467722640000010771210590073597826_" gradientUnits="userSpaceOnUse" x1="888.7131" y1="1306.5305" x2="3040.6648" y2="1306.5305">					<stop offset="0" style="stop-color:#311944"></stop>					<stop offset="1" style="stop-color:#A03976"></stop>				</linearGradient>				<polygon style="opacity:0.53;fill:url(#SVGID_00000124840431233467722640000010771210590073597826_);" points="     3040.665,1379.036 2178.368,1379.036 2177.534,1378.836 1630.438,1248.802 889.946,1311.347 888.713,1296.763      1631.542,1234.025 1632.682,1234.297 2180.085,1364.402 3040.665,1364.402     "></polygon>			</g>		</g>		<g>							<linearGradient id="SVGID_00000119827337687011876530000008007620354975029632_" gradientUnits="userSpaceOnUse" x1="612.4416" y1="2965.7402" x2="2450.4612" y2="2965.7402">				<stop offset="0" style="stop-color:#444B8C"></stop>				<stop offset="0.9964" style="stop-color:#26264F"></stop>			</linearGradient>			<path style="fill:url(#SVGID_00000119827337687011876530000008007620354975029632_);" d="M612.442,2760.035v134.333    c0,12.496,9.458,22.966,21.889,24.232l1375.37,130.331l185.127,122.514l255.634-340.052L612.442,2760.035z"></path>							<linearGradient id="SVGID_00000036973188132386874070000000328391903145516476_" gradientUnits="userSpaceOnUse" x1="1666.661" y1="3031.1685" x2="2014.123" y2="3031.1685">				<stop offset="0" style="stop-color:#444B8C"></stop>				<stop offset="0.9964" style="stop-color:#26264F"></stop>			</linearGradient>			<path style="fill:url(#SVGID_00000036973188132386874070000000328391903145516476_);" d="M1666.661,2944.662v120.231    c0,10.08,7.319,18.668,17.271,20.267l330.191,53.043l-9.601-193.822l-316.024-20.204    C1676.67,2923.421,1666.661,2932.81,1666.661,2944.662z"></path>			<g>									<linearGradient id="SVGID_00000179647507325462475080000015102695655232037261_" gradientUnits="userSpaceOnUse" x1="702.429" y1="2905.4185" x2="801.1147" y2="2905.4185">					<stop offset="0" style="stop-color:#311944"></stop>					<stop offset="1" style="stop-color:#6B3976"></stop>				</linearGradient>				<path style="fill:url(#SVGID_00000179647507325462475080000015102695655232037261_);" d="M751.772,2822.01     c-1.119,0-2.225,0.085-3.326,0.21l-17.461-0.21l0.102,7.685c-16.917,13.226-28.659,42.148-28.659,75.725     c0,34.9,12.685,64.778,30.684,77.219l0.082,6.189h18.577c27.25,0,49.343-37.343,49.343-83.408     C801.115,2859.353,779.022,2822.01,751.772,2822.01z"></path>									<linearGradient id="SVGID_00000127754561648093732080000017822933299467297693_" gradientUnits="userSpaceOnUse" x1="681.6426" y1="2905.4185" x2="780.328" y2="2905.4185">					<stop offset="0" style="stop-color:#311944"></stop>					<stop offset="1" style="stop-color:#6B3976"></stop>				</linearGradient>									<ellipse style="fill:url(#SVGID_00000127754561648093732080000017822933299467297693_);" cx="730.985" cy="2905.418" rx="49.343" ry="83.409"></ellipse>				<ellipse style="fill:#D8DEE8;" cx="724.051" cy="2905.418" rx="27.721" ry="46.86"></ellipse>									<linearGradient id="SVGID_00000000937158919873562500000016099202685800070534_" gradientUnits="userSpaceOnUse" x1="777.7711" y1="2912.0854" x2="700.7106" y2="2901.7119">					<stop offset="0.0054" style="stop-color:#D8DEE8"></stop>					<stop offset="1" style="stop-color:#F4F7FA"></stop>				</linearGradient>									<ellipse style="fill:url(#SVGID_00000000937158919873562500000016099202685800070534_);" cx="728.245" cy="2905.418" rx="23.527" ry="43.504"></ellipse>			</g>			<g>									<linearGradient id="SVGID_00000132775455132532707510000002396078480212130483_" gradientUnits="userSpaceOnUse" x1="814.3154" y1="2922.7808" x2="922.4396" y2="2922.7808">					<stop offset="0" style="stop-color:#311944"></stop>					<stop offset="1" style="stop-color:#6B3976"></stop>				</linearGradient>				<path style="fill:url(#SVGID_00000132775455132532707510000002396078480212130483_);" d="M868.377,2831.394     c-1.226,0-2.438,0.094-3.644,0.23l-19.13-0.23l0.112,8.42c-18.535,14.491-31.4,46.179-31.4,82.968     c0,38.238,13.898,70.973,33.618,84.605l0.09,6.781h20.354c29.857,0,54.062-40.915,54.062-91.386     C922.44,2872.309,898.234,2831.394,868.377,2831.394z"></path>									<linearGradient id="SVGID_00000160173319308688525850000016985492470886885027_" gradientUnits="userSpaceOnUse" x1="791.541" y1="2922.781" x2="899.6647" y2="2922.781">					<stop offset="0" style="stop-color:#311944"></stop>					<stop offset="1" style="stop-color:#6B3976"></stop>				</linearGradient>									<ellipse style="fill:url(#SVGID_00000160173319308688525850000016985492470886885027_);" cx="845.603" cy="2922.781" rx="54.062" ry="91.386"></ellipse>				<ellipse style="fill:#D8DEE8;" cx="838.005" cy="2922.781" rx="30.373" ry="51.342"></ellipse>									<linearGradient id="SVGID_00000057832374947267316610000017927739084451010199_" gradientUnits="userSpaceOnUse" x1="896.8629" y1="2930.0854" x2="812.4329" y2="2918.7197">					<stop offset="0.0054" style="stop-color:#D8DEE8"></stop>					<stop offset="1" style="stop-color:#F4F7FA"></stop>				</linearGradient>				<path style="fill:url(#SVGID_00000057832374947267316610000017927739084451010199_);" d="M868.377,2922.781     c0,26.325-11.541,47.665-25.776,47.665c-14.236,0-25.777-21.341-25.777-47.665c0-26.325,11.541-47.666,25.777-47.666     C856.837,2875.115,868.377,2896.456,868.377,2922.781z"></path>			</g>			<g>									<linearGradient id="SVGID_00000119807407341023809810000008078169639102022799_" gradientUnits="userSpaceOnUse" x1="933.8178" y1="2931.1765" x2="1051.8752" y2="2931.1765">					<stop offset="0" style="stop-color:#311944"></stop>					<stop offset="1" style="stop-color:#6B3976"></stop>				</linearGradient>				<path style="fill:url(#SVGID_00000119807407341023809810000008078169639102022799_);" d="M992.846,2831.394     c-1.339,0-2.662,0.102-3.979,0.251l-20.888-0.251l0.122,9.193c-20.237,15.823-34.284,50.422-34.284,90.59     c0,41.75,15.175,77.493,36.707,92.377l0.098,7.404h22.224c32.6,0,59.029-44.674,59.029-99.781     C1051.875,2876.068,1025.446,2831.394,992.846,2831.394z"></path>									<linearGradient id="SVGID_00000079468036586102315780000013885879341244398492_" gradientUnits="userSpaceOnUse" x1="908.9511" y1="2931.1765" x2="1027.0083" y2="2931.1765">					<stop offset="0" style="stop-color:#311944"></stop>					<stop offset="1" style="stop-color:#6B3976"></stop>				</linearGradient>									<ellipse style="fill:url(#SVGID_00000079468036586102315780000013885879341244398492_);" cx="967.98" cy="2931.177" rx="59.029" ry="99.782"></ellipse>				<ellipse style="fill:#D8DEE8;" cx="959.684" cy="2931.177" rx="33.163" ry="56.059"></ellipse>									<linearGradient id="SVGID_00000075144041854684001150000010282767991872917414_" gradientUnits="userSpaceOnUse" x1="1023.9492" y1="2939.1523" x2="931.7622" y2="2926.7424">					<stop offset="0.0054" style="stop-color:#D8DEE8"></stop>					<stop offset="1" style="stop-color:#F4F7FA"></stop>				</linearGradient>									<ellipse style="fill:url(#SVGID_00000075144041854684001150000010282767991872917414_);" cx="964.701" cy="2931.177" rx="28.145" ry="52.044"></ellipse>			</g>			<g>									<linearGradient id="SVGID_00000127756760769052202770000011562351316288733631_" gradientUnits="userSpaceOnUse" x1="1491.3875" y1="3010.8206" x2="1642.0997" y2="3010.8206">					<stop offset="0" style="stop-color:#311944"></stop>					<stop offset="1" style="stop-color:#6B3976"></stop>				</linearGradient>				<path style="fill:url(#SVGID_00000127756760769052202770000011562351316288733631_);" d="M1566.744,2883.439     c-1.709,0-3.399,0.131-5.079,0.321l-26.666-0.321l0.156,11.736c-25.836,20.199-43.767,64.369-43.767,115.647     c0,53.299,19.373,98.928,46.86,117.928l0.125,9.452h28.371c41.616,0,75.356-57.031,75.356-127.381     C1642.1,2940.469,1608.36,2883.439,1566.744,2883.439z"></path>									<linearGradient id="SVGID_00000010990234287272427160000001750232995308509586_" gradientUnits="userSpaceOnUse" x1="1459.6429" y1="3010.8208" x2="1610.3545" y2="3010.8208">					<stop offset="0" style="stop-color:#311944"></stop>					<stop offset="1" style="stop-color:#6B3976"></stop>				</linearGradient>									<ellipse style="fill:url(#SVGID_00000010990234287272427160000001750232995308509586_);" cx="1534.999" cy="3010.821" rx="75.356" ry="127.382"></ellipse>				<ellipse style="fill:#D8DEE8;" cx="1524.408" cy="3010.821" rx="42.336" ry="71.565"></ellipse>									<linearGradient id="SVGID_00000027597826806022310500000015711669947743890564_" gradientUnits="userSpaceOnUse" x1="1606.4493" y1="3021.0027" x2="1488.7632" y2="3005.1602">					<stop offset="0.0054" style="stop-color:#D8DEE8"></stop>					<stop offset="1" style="stop-color:#F4F7FA"></stop>				</linearGradient>									<ellipse style="fill:url(#SVGID_00000027597826806022310500000015711669947743890564_);" cx="1530.814" cy="3010.821" rx="35.93" ry="66.44"></ellipse>			</g>			<g>									<linearGradient id="SVGID_00000069369756061249353430000017108583495825697978_" gradientUnits="userSpaceOnUse" x1="1971.9381" y1="3066.312" x2="2164.4788" y2="3066.312">					<stop offset="0" style="stop-color:#311944"></stop>					<stop offset="1" style="stop-color:#6B3976"></stop>				</linearGradient>				<path style="fill:url(#SVGID_00000069369756061249353430000017108583495825697978_);" d="M2068.208,2903.577     c-2.184,0-4.341,0.167-6.488,0.409l-34.067-0.409l0.199,14.993c-33.006,25.805-55.915,82.234-55.915,147.744     c0,68.091,24.75,126.385,59.866,150.658l0.16,12.075h36.245c53.167,0,96.27-72.858,96.27-162.734     C2164.479,2976.435,2121.375,2903.577,2068.208,2903.577z"></path>									<linearGradient id="SVGID_00000164486985964249112570000012744231969041536933_" gradientUnits="userSpaceOnUse" x1="1931.3831" y1="3066.312" x2="2123.9231" y2="3066.312">					<stop offset="0" style="stop-color:#311944"></stop>					<stop offset="1" style="stop-color:#6B3976"></stop>				</linearGradient>									<ellipse style="fill:url(#SVGID_00000164486985964249112570000012744231969041536933_);" cx="2027.653" cy="3066.312" rx="96.27" ry="162.735"></ellipse>				<ellipse style="fill:#D8DEE8;" cx="2014.123" cy="3066.312" rx="54.085" ry="91.427"></ellipse>									<linearGradient id="SVGID_00000030461732743911057020000009104507888060623539_" gradientUnits="userSpaceOnUse" x1="2118.9341" y1="3079.3196" x2="1968.5858" y2="3059.0803">					<stop offset="0.0054" style="stop-color:#D8DEE8"></stop>					<stop offset="1" style="stop-color:#F4F7FA"></stop>				</linearGradient>									<ellipse style="fill:url(#SVGID_00000030461732743911057020000009104507888060623539_);" cx="2022.307" cy="3066.312" rx="45.902" ry="84.879"></ellipse>			</g>							<linearGradient id="SVGID_00000062157906877103825480000003073446999039828375_" gradientUnits="userSpaceOnUse" x1="1586.6542" y1="2187.291" x2="-357.2251" y2="3450.4329">				<stop offset="0" style="stop-color:#FFC444"></stop>				<stop offset="0.3138" style="stop-color:#FBA94A"></stop>				<stop offset="0.9964" style="stop-color:#F36F56"></stop>			</linearGradient>			<path style="fill:url(#SVGID_00000062157906877103825480000003073446999039828375_);" d="M530.627,2044.99    c-18.011,2.996-31.214,18.574-31.214,36.831v680.932c0,19.813,15.473,36.175,35.255,37.279l1279.879,71.408V1831.519    L530.627,2044.99z"></path>							<linearGradient id="SVGID_00000105394551105804331690000002594632872569369497_" gradientUnits="userSpaceOnUse" x1="2886.408" y1="1911.7045" x2="1411.4775" y2="2849.6096">				<stop offset="0" style="stop-color:#FFC444"></stop>				<stop offset="0.3138" style="stop-color:#FBA94A"></stop>				<stop offset="0.9964" style="stop-color:#F36F56"></stop>			</linearGradient>			<path style="fill:url(#SVGID_00000105394551105804331690000002594632872569369497_);" d="M2536.3,1855.8l-721.752-24.281    v1039.921h760.56v-975.504C2575.107,1874.282,2557.941,1856.527,2536.3,1855.8z"></path>							<linearGradient id="SVGID_00000100350947767718202450000015548031058620419468_" gradientUnits="userSpaceOnUse" x1="499.4131" y1="2435.6106" x2="1748.5247" y2="2435.6106">				<stop offset="0" style="stop-color:#FFC444"></stop>				<stop offset="0.9964" style="stop-color:#F36F56"></stop>			</linearGradient>			<path style="opacity:0.3;fill:url(#SVGID_00000100350947767718202450000015548031058620419468_);" d="M1544.127,2610.037    c-164.358-75.703-318.633,39.845-469.012-71.832c-131.693-97.796-89.233-242.741-194.367-414.083    c-24.071-39.232-56.312-80.414-100.372-120.657l-249.75,41.525c-18.011,2.996-31.214,18.574-31.214,36.831v680.932    c0,19.813,15.473,36.175,35.255,37.279l1213.856,67.725C1692.823,2715.363,1617.129,2643.662,1544.127,2610.037z"></path>			<path style="fill:#F4F7FA;" d="M2959.611,2542.43l-53.344-134.153l-1.585-110.915l53.885-10.776    c5.227-1.046,8.52-6.214,7.232-11.385c-8.145-32.708-37.963-140.739-84.356-176.43c-32.702-25.154-652.82-32.677-652.82-32.677    l-298.462,19.404c-23.439,1.526-41.674,20.982-41.674,44.471v661.367c0,17.355,13.27,31.826,30.557,33.324l204.877,17.77    l40.553,41.008c0,0,580.685,46.499,812.421,4.24c12.004-2.188,20.741-12.571,20.741-24.77V2572.01    C2997.64,2529.754,2959.611,2542.43,2959.611,2542.43z"></path>							<linearGradient id="SVGID_00000119820531907151574040000000925035851639387839_" gradientUnits="userSpaceOnUse" x1="1888.4897" y1="2481.7297" x2="2389.1917" y2="2481.7297">				<stop offset="0.0054" style="stop-color:#D8DEE8"></stop>				<stop offset="1" style="stop-color:#F4F7FA"></stop>			</linearGradient>			<path style="opacity:0.8;fill:url(#SVGID_00000119820531907151574040000000925035851639387839_);" d="M2330.039,2582.572    c0,0-6.338-287.323,0-405.632c3.073-57.388-25.674-90.873-56.086-110.184c-28.36-0.455-45.328-0.662-45.328-0.662    l-298.462,19.404c-23.439,1.526-41.674,20.982-41.674,44.471v661.367c0,17.355,13.27,31.826,30.557,33.324l204.877,17.77    l40.553,41.008c0,0,95.609,7.656,224.714,13.929v-245.078L2330.039,2582.572z"></path>			<path style="fill:#97A6B7;" d="M2991.028,2939.215l-22.964-8.038v-46.546c0-12.547-10.171-22.718-22.718-22.718h-719.108    c-17.347,0-31.41,14.063-31.41,31.41v278.123c0,15.3,12.715,27.536,28.004,26.948l770.003-29.617    c14.481-0.557,25.932-12.457,25.932-26.949v-163.513C3018.767,2960.712,3007.642,2945.031,2991.028,2939.215z"></path>							<linearGradient id="SVGID_00000091712675420156685380000007248621411340512662_" gradientUnits="userSpaceOnUse" x1="2452.259" y1="2895.4482" x2="2928.1677" y2="2895.4482">				<stop offset="0" style="stop-color:#444B8C"></stop>				<stop offset="0.9964" style="stop-color:#26264F"></stop>			</linearGradient>			<path style="fill:url(#SVGID_00000091712675420156685380000007248621411340512662_);" d="M2903.405,2700.255H2477.02    c-14.356,0-25.705,12.171-24.699,26.494l23.489,334.762c1.179,16.817,15.458,29.685,32.306,29.112l366.319-12.41    c16-0.542,29.016-13.063,30.18-29.029l23.486-322.368C2929.144,2712.469,2917.789,2700.255,2903.405,2700.255z"></path>			<g style="opacity:0.3;">				<path style="fill:#97A6B7;" d="M2991.028,2939.215l-22.965-8.038v-46.546c0-9.914-6.362-18.322-15.218-21.425l-43.763,205.76     c-5.211,24.502-26.39,42.343-51.423,43.316l-336.071,13.061c-24.091,0.936-45.96-13.999-53.855-36.779l-78.542-226.649l0,0     h-162.955c-17.347,0-31.409,14.062-31.409,31.409v278.123c0,15.301,12.716,27.537,28.004,26.948l770.004-29.616     c14.479-0.558,25.932-12.457,25.932-26.949v-163.512C3018.767,2960.712,3007.641,2945.032,2991.028,2939.215z"></path>			</g>							<linearGradient id="SVGID_00000126300213387469650990000016789442825485861040_" gradientUnits="userSpaceOnUse" x1="2380.7144" y1="2888.7251" x2="2146.2393" y2="3705.6084">				<stop offset="0" style="stop-color:#FF9085"></stop>				<stop offset="1" style="stop-color:#FB6FBB"></stop>			</linearGradient>			<path style="fill:url(#SVGID_00000126300213387469650990000016789442825485861040_);" d="M2425.108,3106.513l-79.961,3.998    c-49.644,2.482-92.304-34.87-96.401-84.407l-3.215-38.868h160.079c10.769,0,19.498,8.729,19.498,19.498V3106.513z"></path>							<linearGradient id="SVGID_00000047742523798862486470000016065307431382753953_" gradientUnits="userSpaceOnUse" x1="2961.3022" y1="3055.3755" x2="2726.8269" y2="3872.2598">				<stop offset="0" style="stop-color:#FF9085"></stop>				<stop offset="1" style="stop-color:#FB6FBB"></stop>			</linearGradient>			<path style="fill:url(#SVGID_00000047742523798862486470000016065307431382753953_);" d="M2940.931,3003.688l-12.763,86.954    c0,0,84.301-2.951,82.188-109.209l-52.314,5.753C2949.248,2988.153,2942.216,2994.935,2940.931,3003.688z"></path>			<path style="fill:#808080;" d="M2348.338,2583.973c-12.472,0-24.825-4.029-34.894-11.401l-32.897-24.093    c-12.099-8.858-19.323-23.1-19.323-38.094v-191.527c0-8.628,3.783-16.764,10.384-22.323c6.6-5.558,15.248-7.904,23.764-6.441    l32.246,5.558l578.456-0.025l0.305,1.356l55.003,245.427l-6.153,30.78l-1.397,0.025l-604.471,10.75    C2349.019,2583.97,2348.677,2583.973,2348.338,2583.973z M2290.396,2293.138c-6.014,0-11.872,2.11-16.55,6.053    c-5.814,4.897-9.15,12.067-9.15,19.667v191.527c0,13.892,6.692,27.085,17.899,35.294l32.9,24.093    c9.736,7.127,21.74,10.943,33.805,10.721l603.075-10.724l5.461-27.319l-54.542-243.353h-575.971l-32.541-5.583    C2293.321,2293.262,2291.853,2293.138,2290.396,2293.138z"></path>							<linearGradient id="SVGID_00000171708089560222658780000008644025295463267984_" gradientUnits="userSpaceOnUse" x1="2262.9612" y1="2436.8181" x2="2959.6113" y2="2436.8181">				<stop offset="0" style="stop-color:#444B8C"></stop>				<stop offset="0.9964" style="stop-color:#26264F"></stop>			</linearGradient>			<path style="fill:url(#SVGID_00000171708089560222658780000008644025295463267984_);" d="M2904.683,2297.362h-577.361    l-32.246-5.557c-16.778-2.892-32.115,10.029-32.115,27.055v191.526c0,14.499,6.913,28.128,18.61,36.694l32.901,24.093    c10.099,7.396,22.343,11.279,34.858,11.056l604.472-10.749l5.809-29.05L2904.683,2297.362z"></path>			<g>				<path style="fill:#97A6B7;" d="M2545.794,2230.813h-49.12c-7.439,0-13.468,6.029-13.468,13.469v20.598     c0,7.44,6.029,13.468,13.468,13.468h49.12c7.44,0,13.468-6.028,13.468-13.468v-20.598     C2559.262,2236.841,2553.234,2230.813,2545.794,2230.813z"></path>				<path style="fill:#97A6B7;" d="M2834.173,2230.813h-49.119c-7.44,0-13.469,6.029-13.469,13.469v20.598     c0,7.44,6.029,13.468,13.469,13.468h49.119c7.439,0,13.468-6.028,13.468-13.468v-20.598     C2847.641,2236.841,2841.613,2230.813,2834.173,2230.813z"></path>			</g>			<path style="opacity:0.3;fill:#FFFFFF;" d="M2724.05,2433.628c-148.99-56.983-289.137,14.038-353.344-63.38    c-17.361-20.933-24.371-46.978-25.996-72.887h-17.389l-32.244-5.558c-16.78-2.89-32.117,10.03-32.117,27.054v191.53    c0,14.499,6.914,28.128,18.611,36.694l32.9,24.089c10.098,7.396,22.341,11.28,34.859,11.058l547.559-9.736    C2834.996,2489.061,2772.136,2452.021,2724.05,2433.628z"></path>		</g>		<g>			<g>									<linearGradient id="SVGID_00000104669829807218803590000011776373247106599816_" gradientUnits="userSpaceOnUse" x1="1036.252" y1="1727.0834" x2="2705.9004" y2="1727.0834">					<stop offset="0" style="stop-color:#AA80F9"></stop>					<stop offset="0.9964" style="stop-color:#6165D7"></stop>				</linearGradient>				<path style="fill:url(#SVGID_00000104669829807218803590000011776373247106599816_);" d="M1051.886,1748.949     c-4.78,0-9.497-2.185-12.562-6.321c-5.138-6.931-3.683-16.713,3.248-21.851c0.032-0.024,6.014-4.458,16.552-12.406     c6.887-5.199,16.684-3.827,21.878,3.063c5.197,6.887,3.824,16.682-3.063,21.878c-10.701,8.073-16.762,12.565-16.762,12.565     C1058.38,1747.95,1055.119,1748.949,1051.886,1748.949z"></path>			</g>			<g>									<linearGradient id="SVGID_00000017475418693798147630000007684007888764547975_" gradientUnits="userSpaceOnUse" x1="1036.5363" y1="1563.3633" x2="2696.5925" y2="1563.3633">					<stop offset="0" style="stop-color:#AA80F9"></stop>					<stop offset="0.9964" style="stop-color:#6165D7"></stop>				</linearGradient>				<path style="fill:url(#SVGID_00000017475418693798147630000007684007888764547975_);" d="M2508.338,1815.266     c-2.773-0.002-5.702-0.117-8.716-0.342c-8.601-0.641-15.055-8.134-14.415-16.738c0.641-8.606,8.109-15.079,16.74-14.416     c6.421,0.481,11.892,0.276,15.943-0.614c6.248-1.37,12.465-3.073,18.479-5.066c8.18-2.714,17.031,1.722,19.743,9.914     c2.716,8.189-1.725,17.028-9.912,19.742c-7.044,2.334-14.32,4.329-21.625,5.929     C2519.752,1814.731,2514.291,1815.266,2508.338,1815.266z M2460.192,1807.195c-1.366,0-2.756-0.18-4.136-0.558     c-12.191-3.339-25.853-7.722-40.603-13.026c-8.119-2.919-12.333-11.867-9.414-19.984c2.922-8.121,11.872-12.335,19.984-9.414     c13.991,5.031,26.873,9.165,38.284,12.291c8.323,2.28,13.221,10.872,10.94,19.193     C2473.349,1802.637,2467.054,1807.195,2460.192,1807.195z M2578.902,1791.538c-5.373,0-10.601-2.773-13.506-7.748     c-4.349-7.451-1.834-17.016,5.617-21.366c10.784-6.294,21.215-13.847,31.012-22.452c6.489-5.69,16.357-5.05,22.045,1.429     c5.695,6.483,5.055,16.354-1.427,22.047c-11.299,9.923-23.371,18.657-35.88,25.958     C2584.288,1790.851,2581.576,1791.538,2578.902,1791.538z M2382.083,1779.584c-1.976,0-3.987-0.376-5.926-1.175     c-12.119-4.977-25.076-10.536-38.508-16.525c-7.882-3.512-11.421-12.748-7.909-20.628c3.515-7.878,12.757-11.419,20.628-7.906     c13.153,5.861,25.822,11.299,37.653,16.159c7.984,3.276,11.794,12.404,8.519,20.384     C2394.06,1775.932,2388.232,1779.584,2382.083,1779.584z M2306.349,1745.942c-2.234,0-4.506-0.481-6.662-1.5     c-12.072-5.7-24.703-11.801-37.545-18.127c-7.74-3.814-10.919-13.179-7.105-20.917c3.814-7.741,13.177-10.919,20.917-7.109     c12.686,6.251,25.157,12.274,37.077,17.903c7.801,3.683,11.14,12.994,7.455,20.796     C2317.817,1742.633,2312.204,1745.942,2306.349,1745.942z M2640.926,1737.514c-3.468,0-6.957-1.148-9.855-3.509     c-6.688-5.449-7.695-15.289-2.248-21.978c8.021-9.845,15.56-20.627,22.412-32.046c4.441-7.399,14.031-9.789,21.432-5.358     c7.397,4.439,9.797,14.035,5.356,21.433c-7.614,12.692-16.018,24.703-24.974,35.701     C2649.96,1735.548,2645.462,1737.514,2640.926,1737.514z M1101.442,1711.421c-4.69,0-9.328-2.102-12.404-6.111     c-5.253-6.844-3.963-16.65,2.881-21.903c9.813-7.531,20.791-16.009,32.663-25.264c6.799-5.304,16.616-4.088,21.925,2.717     c5.304,6.805,4.087,16.621-2.717,21.925c-11.94,9.306-22.983,17.835-32.849,25.407     C1108.105,1710.368,1104.761,1711.421,1101.442,1711.421z M2231.995,1709.353c-2.386,0-4.81-0.549-7.085-1.708     c-12.018-6.129-24.452-12.562-36.955-19.118c-7.641-4.007-10.587-13.448-6.58-21.089c4.007-7.64,13.445-10.587,21.09-6.58     c12.401,6.502,24.727,12.879,36.643,18.955c7.685,3.921,10.736,13.328,6.817,21.013     C2243.165,1706.238,2237.68,1709.353,2231.995,1709.353z M2158.604,1670.895c-2.495,0-5.024-0.6-7.377-1.863     c-12.211-6.556-24.408-13.179-36.538-19.83c-7.567-4.146-10.336-13.641-6.19-21.206c4.146-7.568,13.641-10.334,21.208-6.188     c12.055,6.607,24.171,13.186,36.301,19.701c7.6,4.082,10.455,13.552,6.373,21.152     C2169.561,1667.91,2164.171,1670.895,2158.604,1670.895z M1166.758,1660.516c-4.61,0-9.175-2.031-12.258-5.926     c-5.354-6.766-4.212-16.591,2.553-21.944c10.391-8.224,21.188-16.833,32.263-25.741c6.722-5.409,16.553-4.341,21.962,2.381     c5.407,6.722,4.341,16.555-2.382,21.962c-11.14,8.962-22.001,17.621-32.453,25.893     C1173.573,1659.414,1170.153,1660.516,1166.758,1660.516z M2085.935,1631.07c-2.576,0-5.19-0.639-7.601-1.985     c-12.211-6.816-24.296-13.625-36.206-20.388c-7.502-4.261-10.129-13.797-5.868-21.298c4.261-7.502,13.794-10.129,21.3-5.87     c11.842,6.726,23.859,13.498,36.002,20.276c7.532,4.205,10.231,13.721,6.027,21.254     C2096.729,1628.182,2091.414,1631.07,2085.935,1631.07z M1231.25,1608.609c-4.521,0-9.004-1.951-12.092-5.721     c-5.468-6.675-4.49-16.516,2.183-21.984c10.494-8.595,21.11-17.376,31.748-26.273c6.619-5.538,16.467-4.656,22.005,1.959     c5.536,6.619,4.658,16.471-1.959,22.005c-10.723,8.967-21.42,17.813-31.992,26.476     C1238.237,1607.452,1234.733,1608.609,1231.25,1608.609z M2013.873,1590.152c-2.651,0-5.333-0.675-7.79-2.093     c-12.262-7.072-24.259-14.048-35.917-20.879c-7.445-4.361-9.943-13.931-5.583-21.374c4.366-7.448,13.94-9.941,21.374-5.583     c11.604,6.797,23.534,13.736,35.734,20.774c7.475,4.31,10.038,13.863,5.729,21.337     C2024.528,1587.347,2019.274,1590.152,2013.873,1590.152z M1294.723,1555.489c-4.404,0-8.78-1.851-11.87-5.458     c-5.612-6.553-4.851-16.415,1.7-22.027c10.692-9.16,21.147-18.242,31.076-26.997c6.47-5.706,16.34-5.085,22.049,1.386     c5.706,6.472,5.085,16.343-1.386,22.049c-10.04,8.851-20.61,18.033-31.412,27.288     C1301.934,1554.254,1298.32,1555.489,1294.723,1555.489z M1942.357,1548.258c-2.719,0-5.468-0.707-7.973-2.197     c-12.445-7.402-24.357-14.552-35.643-21.376c-7.384-4.463-9.75-14.067-5.285-21.45c4.468-7.387,14.076-9.748,21.449-5.283     c11.224,6.787,23.076,13.896,35.453,21.257c7.414,4.411,9.848,13.998,5.438,21.411     C1952.876,1545.531,1947.683,1548.258,1942.357,1548.258z M1871.42,1505.349c-2.797,0-5.627-0.749-8.18-2.324     c-12.818-7.897-24.708-15.318-35.341-22.054c-7.289-4.617-9.453-14.269-4.836-21.555c4.617-7.287,14.265-9.458,21.556-4.836     c10.523,6.667,22.303,14.018,35.009,21.847c7.346,4.526,9.631,14.148,5.105,21.493     C1881.78,1502.711,1876.661,1505.349,1871.42,1505.349z M1356.773,1500.701c-4.232,0-8.451-1.71-11.533-5.078     c-5.822-6.366-5.382-16.249,0.985-22.071c10.58-9.673,20.656-19.103,29.951-28.022c6.221-5.977,16.113-5.773,22.086,0.454     c5.975,6.224,5.771,16.113-0.454,22.086c-9.473,9.094-19.735,18.694-30.497,28.537     C1364.313,1499.349,1360.538,1500.701,1356.773,1500.701z M1801.502,1460.771c-3.002,0-6.034-0.863-8.711-2.665     c-8.624-5.807-17.472-11.877-26.5-18.071l-7.775-5.332c-7.117-4.877-8.934-14.599-4.058-21.717     c4.878-7.117,14.596-8.933,21.717-4.058l7.792,5.344c8.951,6.141,17.723,12.16,26.273,17.916     c7.156,4.819,9.051,14.526,4.234,21.683C1811.457,1458.353,1806.525,1460.771,1801.502,1460.771z M1416.394,1443.292     c-3.926,0-7.856-1.471-10.892-4.426c-6.183-6.017-6.319-15.906-0.302-22.089c10.265-10.55,19.527-20.557,27.529-29.746     c5.663-6.507,15.531-7.192,22.039-1.522c6.507,5.665,7.188,15.533,1.522,22.039c-8.377,9.621-18.033,20.057-28.698,31.017     C1424.53,1441.713,1420.463,1443.292,1416.394,1443.292z M1733.034,1414.297c-2.949,0-5.933-0.834-8.58-2.58     c-12.621-8.316-23.879-15.43-34.417-21.745c-7.4-4.436-9.804-14.03-5.368-21.43c4.438-7.4,14.023-9.806,21.43-5.368     c10.923,6.548,22.551,13.892,35.546,22.457c7.204,4.746,9.195,14.435,4.448,21.639     C1743.09,1411.826,1738.11,1414.297,1733.034,1414.297z M1471.197,1381.312c-3.899,0-7.802-1.451-10.833-4.368     c-6.216-5.983-6.402-15.872-0.419-22.088c11.226-11.66,23.515-21.096,36.523-28.047c7.607-4.065,17.072-1.193,21.14,6.417     c4.065,7.609,1.192,17.074-6.417,21.14c-10.118,5.404-19.786,12.86-28.739,22.159     C1479.386,1379.71,1475.294,1381.312,1471.197,1381.312z M1661.897,1372.137c-2.366,0-4.768-0.539-7.024-1.678     c-12.684-6.399-24.858-11.74-36.182-15.874c-8.106-2.958-12.277-11.926-9.318-20.03c2.956-8.104,11.918-12.281,20.03-9.318     c12.469,4.551,25.773,10.382,39.542,17.328c7.702,3.885,10.797,13.281,6.911,20.983     C1673.108,1368.995,1667.606,1372.137,1661.897,1372.137z M1584.201,1344.788c-0.836,0-1.681-0.066-2.534-0.205     c-12.996-2.122-25.297-2.449-36.662-0.98c-8.557,1.12-16.388-4.934-17.494-13.491c-1.105-8.556,4.934-16.389,13.491-17.494     c14.369-1.858,29.712-1.48,45.696,1.129c8.514,1.39,14.291,9.417,12.902,17.933     C1598.349,1339.344,1591.722,1344.788,1584.201,1344.788z"></path>			</g>			<g>									<linearGradient id="SVGID_00000103955276410066395240000005696819288184427415_" gradientUnits="userSpaceOnUse" x1="1036.0101" y1="1643.2679" x2="2705.8386" y2="1643.2679">					<stop offset="0" style="stop-color:#AA80F9"></stop>					<stop offset="0.9964" style="stop-color:#6165D7"></stop>				</linearGradient>				<path style="fill:url(#SVGID_00000103955276410066395240000005696819288184427415_);" d="M2682.705,1668.595     c-2.085,0-4.204-0.419-6.234-1.305c-7.909-3.446-11.526-12.652-8.078-20.561c4.702-10.79,6.878-17.73,6.902-17.798     c2.566-8.231,11.319-12.842,19.543-10.284c8.231,2.553,12.845,11.279,10.302,19.515c-0.105,0.341-2.641,8.506-8.109,21.049     C2694.471,1665.088,2688.729,1668.595,2682.705,1668.595z"></path>			</g>		</g>		<g>			<g>									<linearGradient id="SVGID_00000047759876853060023270000011569624702341199293_" gradientUnits="userSpaceOnUse" x1="997.4366" y1="725.7721" x2="1422.4092" y2="1820.3967">					<stop offset="0" style="stop-color:#AA80F9"></stop>					<stop offset="0.9964" style="stop-color:#6165D7"></stop>				</linearGradient>				<path style="fill:url(#SVGID_00000047759876853060023270000011569624702341199293_);" d="M1473.863,878.976     c0,180.322-252.622,509.37-366.947,649.049c-28.45,34.759-81.632,34.759-110.082,0     c-114.325-139.679-366.947-468.727-366.947-649.049c0-233.057,188.93-421.988,421.987-421.988     C1284.933,456.988,1473.863,645.919,1473.863,878.976z"></path>									<ellipse transform="matrix(0.7071 -0.7071 0.7071 0.7071 -313.4426 1001.2342)" style="fill:#FFFFFF;" cx="1051.875" cy="878.976" rx="235.349" ry="235.348"></ellipse>				<g style="opacity:0.3;">											<linearGradient id="SVGID_00000081608661701083796890000015818218657330275751_" gradientUnits="userSpaceOnUse" x1="845.269" y1="784.8484" x2="1270.2424" y2="1879.4753">						<stop offset="0" style="stop-color:#AA80F9"></stop>						<stop offset="0.9964" style="stop-color:#6165D7"></stop>					</linearGradient>					<path style="fill:url(#SVGID_00000081608661701083796890000015818218657330275751_);" d="M1050.011,1354.763      c26.773-176.312,143.202-232.746,123.218-399.228c-23.047-191.997-193.047-243.134-197.149-414.014      c-0.661-27.51,3.083-54.039,10.141-79.442c-201.874,31.538-356.333,206.172-356.333,416.895      c0,180.322,252.622,509.37,366.946,649.049c16.745,20.459,42.058,28.862,65.854,25.236      C1042.229,1476.037,1041.609,1410.092,1050.011,1354.763z"></path>				</g>			</g>							<linearGradient id="SVGID_00000033361828960482976340000017627130504464655792_" gradientUnits="userSpaceOnUse" x1="1162.4824" y1="1565.4409" x2="886.4738" y2="1984.3831">				<stop offset="0" style="stop-color:#AA80F9"></stop>				<stop offset="0.9964" style="stop-color:#6165D7"></stop>			</linearGradient>							<circle style="fill:url(#SVGID_00000033361828960482976340000017627130504464655792_);" cx="1051.875" cy="1733.327" r="86.253"></circle>		</g>		<g>			<g>									<linearGradient id="SVGID_00000098201469063339958600000003757703758050739079_" gradientUnits="userSpaceOnUse" x1="2661.6611" y1="1091.8512" x2="2884.5522" y2="1665.9637">					<stop offset="0" style="stop-color:#FF9085"></stop>					<stop offset="1" style="stop-color:#FB6FBB"></stop>				</linearGradient>				<path style="fill:url(#SVGID_00000098201469063339958600000003757703758050739079_);" d="M2911.539,1172.204     c0,94.576-132.496,267.156-192.458,340.415c-14.921,18.23-42.815,18.23-57.736,0     c-59.962-73.259-192.458-245.839-192.458-340.415c0-122.235,99.091-221.326,221.325-221.326     C2812.448,950.878,2911.539,1049.969,2911.539,1172.204z"></path>									<ellipse transform="matrix(0.2076 -0.9782 0.9782 0.2076 985.0797 3560.4729)" style="fill:#FFFFFF;" cx="2690.213" cy="1172.204" rx="123.436" ry="123.436"></ellipse>				<g style="opacity:0.3;">											<linearGradient id="SVGID_00000110448468318140119870000005857542989913230486_" gradientUnits="userSpaceOnUse" x1="2581.8518" y1="1122.8358" x2="2804.7434" y2="1696.9497">						<stop offset="0" style="stop-color:#FF9085"></stop>						<stop offset="1" style="stop-color:#FB6FBB"></stop>					</linearGradient>					<path style="fill:url(#SVGID_00000110448468318140119870000005857542989913230486_);" d="M2689.235,1421.747      c14.042-92.473,75.107-122.072,64.626-209.388c-12.088-100.699-101.25-127.52-103.402-217.143      c-0.346-14.429,1.617-28.343,5.319-41.666c-105.88,16.541-186.891,108.133-186.891,218.655      c0,94.576,132.496,267.156,192.458,340.415c8.782,10.73,22.059,15.137,34.54,13.236      C2685.154,1485.353,2684.829,1450.765,2689.235,1421.747z"></path>				</g>			</g>							<linearGradient id="SVGID_00000026162516234825222780000013949512600562121140_" gradientUnits="userSpaceOnUse" x1="2748.2249" y1="1532.2438" x2="2603.4631" y2="1751.9717">				<stop offset="0" style="stop-color:#FF9085"></stop>				<stop offset="1" style="stop-color:#FB6FBB"></stop>			</linearGradient>							<circle style="fill:url(#SVGID_00000026162516234825222780000013949512600562121140_);" cx="2690.213" cy="1620.297" r="45.238"></circle>		</g>	</g></g></svg>