<svg xmlns="http://www.w3.org/2000/svg" xmlns:xlink="http://www.w3.org/1999/xlink" x="0px" y="0px" viewBox="0 0 500 500" style="enable-background:new 0 0 500 500;" xml:space="preserve"><g id="BACKGROUND">	<rect style="fill:#FFFFFF;" width="500" height="500"></rect></g><g id="OBJECTS_1_">	<path style="fill:#ACDEE8;" d="M210.396,384.281c-9.07-3.222-17.899-6.917-26.392-11.029  c-54.535-26.406-98.883-75.417-115.483-134.225c-13.975-49.506-4.977-116.115,48.874-137.643  c13.192-5.274,27.825-6.822,41.847-4.59c14.566,2.318,27.384,10.409,42.06,12.649c51.877,7.915,86.784-44.797,137.078-46.021  c19.618-0.478,43.291,5.261,58.504,18.278c19.575,16.75,31.749,41.675,41.926,64.84c10.795,24.571,18.696,50.601,21.153,77.405  c5.969,65.123-25.714,126.444-84.015,156.789C325.26,407.116,262.951,402.948,210.396,384.281z"></path>	<g id="POLYLINE_746_">	</g>	<g>		<g>							<ellipse transform="matrix(0.1661 -0.9861 0.9861 0.1661 222.179 412.3571)" style="fill:#76B9CF;" cx="354.898" cy="74.814" rx="15.84" ry="15.84"></ellipse>		</g>		<g>			<g>				<rect x="354.47" y="49.346" style="fill:#76B9CF;" width="0.854" height="25.468"></rect>			</g>			<g>				<path style="fill:#76B9CF;" d="M358.378,49.346c0,1.922-1.558,3.48-3.48,3.48s-3.48-1.558-3.48-3.48     c0-1.922,1.558-3.48,3.48-3.48S358.378,47.424,358.378,49.346z"></path>			</g>		</g>		<g>			<g>									<rect x="348.103" y="51.052" transform="matrix(0.866 -0.5 0.5 0.866 14.8007 182.8098)" style="fill:#76B9CF;" width="0.855" height="25.468"></rect>			</g>			<g>				<path style="fill:#76B9CF;" d="M345.177,51.018c0.961,1.664,0.391,3.793-1.274,4.754c-1.665,0.961-3.793,0.391-4.754-1.274     c-0.961-1.664-0.391-3.793,1.274-4.754C342.088,48.783,344.216,49.354,345.177,51.018z"></path>			</g>		</g>		<g>			<g>									<rect x="343.442" y="55.713" transform="matrix(0.5 -0.866 0.866 0.5 112.6572 332.023)" style="fill:#76B9CF;" width="0.855" height="25.468"></rect>			</g>			<g>				<path style="fill:#76B9CF;" d="M334.582,59.066c1.664,0.961,2.235,3.089,1.274,4.754s-3.089,2.235-4.754,1.274     c-1.664-0.961-2.235-3.089-1.274-4.754S332.917,58.105,334.582,59.066z"></path>			</g>		</g>		<g>			<g>				<rect x="329.429" y="74.387" style="fill:#76B9CF;" width="25.468" height="0.854"></rect>			</g>			<g>				<circle style="fill:#76B9CF;" cx="329.429" cy="74.814" r="3.48"></circle>			</g>		</g>		<g>			<g>									<rect x="331.136" y="80.754" transform="matrix(0.8661 -0.4999 0.4999 0.8661 5.4692 182.7778)" style="fill:#76B9CF;" width="25.468" height="0.855"></rect>			</g>			<g>				<path style="fill:#76B9CF;" d="M331.102,84.534c1.664-0.961,3.793-0.391,4.754,1.274c0.961,1.664,0.391,3.793-1.274,4.754     c-1.664,0.961-3.793,0.391-4.754-1.274S329.437,85.495,331.102,84.534z"></path>			</g>		</g>		<g>			<g>									<rect x="335.797" y="85.415" transform="matrix(0.5 -0.866 0.866 0.5 99.9229 344.7567)" style="fill:#76B9CF;" width="25.468" height="0.855"></rect>			</g>			<g>				<path style="fill:#76B9CF;" d="M339.15,95.13c0.961-1.665,3.089-2.235,4.754-1.274c1.664,0.961,2.235,3.089,1.274,4.754     c-0.961,1.664-3.089,2.235-4.754,1.274C338.759,98.923,338.189,96.795,339.15,95.13z"></path>			</g>		</g>		<g>			<g>				<rect x="354.47" y="74.814" style="fill:#76B9CF;" width="0.854" height="25.468"></rect>			</g>			<g>				<circle style="fill:#76B9CF;" cx="354.898" cy="100.282" r="3.48"></circle>			</g>		</g>		<g>			<g>									<rect x="360.837" y="73.108" transform="matrix(0.866 -0.5 0.5 0.866 5.4792 192.1332)" style="fill:#76B9CF;" width="0.855" height="25.468"></rect>			</g>			<g>				<path style="fill:#76B9CF;" d="M364.618,98.61c-0.961-1.665-0.391-3.793,1.274-4.754c1.664-0.961,3.793-0.391,4.754,1.274     c0.961,1.664,0.391,3.793-1.274,4.754C367.707,100.845,365.579,100.275,364.618,98.61z"></path>			</g>		</g>		<g>			<g>									<rect x="365.498" y="68.447" transform="matrix(0.5 -0.866 0.866 0.5 112.6565 357.4904)" style="fill:#76B9CF;" width="0.855" height="25.468"></rect>			</g>			<g>				<path style="fill:#76B9CF;" d="M375.214,90.562c-1.664-0.961-2.235-3.089-1.274-4.754c0.961-1.664,3.089-2.235,4.754-1.274     c1.665,0.961,2.235,3.089,1.274,4.754C379.007,90.953,376.878,91.523,375.214,90.562z"></path>			</g>		</g>		<g>			<g>				<rect x="354.898" y="74.387" style="fill:#76B9CF;" width="25.468" height="0.854"></rect>			</g>			<g>				<path style="fill:#76B9CF;" d="M380.366,78.294c-1.922,0-3.48-1.558-3.48-3.48c0-1.922,1.558-3.48,3.48-3.48     s3.48,1.558,3.48,3.48C383.846,76.736,382.288,78.294,380.366,78.294z"></path>			</g>		</g>		<g>			<g>									<rect x="353.192" y="68.02" transform="matrix(0.866 -0.5 0.5 0.866 14.7999 192.1295)" style="fill:#76B9CF;" width="25.468" height="0.855"></rect>			</g>			<g>				<path style="fill:#76B9CF;" d="M378.694,65.094c-1.664,0.961-3.793,0.391-4.754-1.274c-0.961-1.664-0.391-3.793,1.274-4.754     c1.664-0.961,3.793-0.391,4.754,1.274C380.928,62.005,380.358,64.133,378.694,65.094z"></path>			</g>		</g>		<g>			<g>									<rect x="348.53" y="63.359" transform="matrix(0.4999 -0.8661 0.8661 0.4999 125.4195 344.7806)" style="fill:#76B9CF;" width="25.468" height="0.855"></rect>			</g>			<g>				<path style="fill:#76B9CF;" d="M370.645,54.498c-0.961,1.665-3.089,2.235-4.754,1.274c-1.665-0.961-2.235-3.089-1.274-4.754     c0.961-1.664,3.089-2.235,4.754-1.274C371.036,50.705,371.606,52.834,370.645,54.498z"></path>			</g>		</g>	</g>	<g>		<g>			<path style="fill:#76B9CF;" d="M457.499,320.771c-1.857,4.936-7.364,7.432-12.3,5.575c-4.936-1.857-7.432-7.364-5.575-12.299    c1.857-4.936,7.364-7.432,12.299-5.575C456.86,310.329,459.356,315.836,457.499,320.771z"></path>		</g>		<g>			<g>									<rect x="443.589" y="309.967" transform="matrix(0.3522 -0.9359 0.9359 0.3522 1.9729 623.2994)" style="fill:#76B9CF;" width="15.352" height="0.515"></rect>			</g>			<g>				<path style="fill:#76B9CF;" d="M455.932,303.779c-0.408,1.084-1.618,1.633-2.702,1.225c-1.085-0.408-1.633-1.618-1.225-2.702     c0.408-1.084,1.618-1.633,2.702-1.225C455.791,301.484,456.34,302.694,455.932,303.779z"></path>			</g>		</g>		<g>			<g>									<rect x="447.053" y="302.159" transform="matrix(0.9866 -0.163 0.163 0.9866 -44.5232 77.0602)" style="fill:#76B9CF;" width="0.515" height="15.353"></rect>			</g>			<g>				<path style="fill:#76B9CF;" d="M448.129,301.92c0.189,1.143-0.585,2.223-1.728,2.412c-1.143,0.189-2.223-0.585-2.412-1.728     c-0.189-1.143,0.585-2.223,1.728-2.412C446.861,300.003,447.94,300.777,448.129,301.92z"></path>			</g>		</g>		<g>			<g>									<rect x="443.434" y="303.8" transform="matrix(0.7729 -0.6345 0.6345 0.7729 -96.8797 352.2438)" style="fill:#76B9CF;" width="0.515" height="15.352"></rect>			</g>			<g>				<path style="fill:#76B9CF;" d="M440.443,304.212c0.735,0.895,0.605,2.217-0.29,2.952s-2.217,0.605-2.952-0.29     c-0.735-0.895-0.605-2.217,0.29-2.952C438.386,303.186,439.708,303.316,440.443,304.212z"></path>			</g>		</g>		<g>			<g>									<rect x="441.12" y="307.03" transform="matrix(0.3521 -0.9359 0.9359 0.3521 -8.5951 616.9949)" style="fill:#76B9CF;" width="0.515" height="15.352"></rect>			</g>			<g>				<path style="fill:#76B9CF;" d="M434.932,310.039c1.084,0.408,1.633,1.618,1.225,2.702c-0.408,1.084-1.618,1.633-2.702,1.225     c-1.084-0.408-1.633-1.618-1.225-2.702C432.638,310.18,433.847,309.632,434.932,310.039z"></path>			</g>		</g>		<g>			<g>									<rect x="433.313" y="318.403" transform="matrix(0.9867 -0.1627 0.1627 0.9867 -45.9621 75.9788)" style="fill:#76B9CF;" width="15.352" height="0.515"></rect>			</g>			<g>				<path style="fill:#76B9CF;" d="M433.073,317.842c1.143-0.189,2.223,0.585,2.412,1.728c0.189,1.143-0.585,2.223-1.728,2.412     c-1.143,0.189-2.223-0.585-2.412-1.728C431.157,319.111,431.93,318.031,433.073,317.842z"></path>			</g>		</g>		<g>			<g>									<rect x="434.953" y="322.022" transform="matrix(0.773 -0.6344 0.6344 0.773 -103.9795 353.9596)" style="fill:#76B9CF;" width="15.352" height="0.515"></rect>			</g>			<g>				<path style="fill:#76B9CF;" d="M435.365,325.528c0.895-0.735,2.217-0.605,2.952,0.29c0.735,0.895,0.605,2.217-0.29,2.952     s-2.217,0.605-2.953-0.29C434.339,327.585,434.469,326.264,435.365,325.528z"></path>			</g>		</g>		<g>			<g>									<rect x="438.183" y="324.336" transform="matrix(0.3522 -0.9359 0.9359 0.3522 -14.9565 627.5792)" style="fill:#76B9CF;" width="15.352" height="0.515"></rect>			</g>			<g>				<path style="fill:#76B9CF;" d="M441.193,331.039c0.408-1.084,1.618-1.633,2.702-1.225c1.084,0.408,1.633,1.618,1.225,2.702     c-0.408,1.084-1.618,1.633-2.702,1.225C441.333,333.333,440.785,332.124,441.193,331.039z"></path>			</g>		</g>		<g>			<g>									<rect x="449.556" y="317.306" transform="matrix(0.9866 -0.163 0.163 0.9866 -46.9639 77.681)" style="fill:#76B9CF;" width="0.515" height="15.352"></rect>			</g>			<g>				<path style="fill:#76B9CF;" d="M448.995,332.898c-0.189-1.143,0.585-2.223,1.728-2.412c1.143-0.189,2.223,0.585,2.412,1.728     c0.189,1.143-0.585,2.223-1.728,2.412C450.264,334.815,449.184,334.041,448.995,332.898z"></path>			</g>		</g>		<g>			<g>									<rect x="453.175" y="315.666" transform="matrix(0.7729 -0.6345 0.6345 0.7729 -102.1971 361.1174)" style="fill:#76B9CF;" width="0.515" height="15.352"></rect>			</g>			<g>				<path style="fill:#76B9CF;" d="M456.682,330.606c-0.735-0.896-0.605-2.217,0.291-2.952c0.895-0.735,2.217-0.605,2.952,0.29     c0.735,0.896,0.605,2.217-0.29,2.952S457.417,331.502,456.682,330.606z"></path>			</g>		</g>		<g>			<g>									<rect x="455.489" y="312.436" transform="matrix(0.3521 -0.9359 0.9359 0.3521 -4.3465 633.945)" style="fill:#76B9CF;" width="0.515" height="15.352"></rect>			</g>			<g>				<path style="fill:#76B9CF;" d="M462.193,324.779c-1.084-0.408-1.633-1.618-1.225-2.702c0.408-1.084,1.618-1.633,2.702-1.225     c1.084,0.408,1.633,1.618,1.225,2.702C464.487,324.638,463.277,325.186,462.193,324.779z"></path>			</g>		</g>		<g>			<g>									<rect x="448.46" y="315.9" transform="matrix(0.9866 -0.1631 0.1631 0.9866 -45.4518 78.6173)" style="fill:#76B9CF;" width="15.352" height="0.515"></rect>			</g>			<g>				<path style="fill:#76B9CF;" d="M464.051,316.976c-1.143,0.189-2.223-0.585-2.412-1.728c-0.189-1.143,0.585-2.223,1.728-2.412     c1.143-0.189,2.223,0.585,2.412,1.728C465.968,315.707,465.194,316.787,464.051,316.976z"></path>			</g>		</g>		<g>			<g>									<rect x="446.819" y="312.281" transform="matrix(0.7728 -0.6346 0.6346 0.7728 -95.0922 359.4414)" style="fill:#76B9CF;" width="15.353" height="0.515"></rect>			</g>			<g>				<path style="fill:#76B9CF;" d="M461.76,309.289c-0.896,0.735-2.217,0.605-2.952-0.29c-0.735-0.896-0.605-2.217,0.29-2.952     c0.896-0.735,2.217-0.605,2.953,0.29C462.785,307.233,462.655,308.554,461.76,309.289z"></path>			</g>		</g>	</g>	<g>		<g>			<path style="fill:#76B9CF;" d="M233.708,100.232c-1.857,4.936-7.364,7.432-12.3,5.575c-4.936-1.857-7.432-7.364-5.575-12.3    c1.857-4.936,7.364-7.432,12.299-5.575C233.069,89.79,235.565,95.297,233.708,100.232z"></path>		</g>		<g>			<g>									<rect x="219.798" y="89.428" transform="matrix(0.3522 -0.9359 0.9359 0.3522 63.4128 270.9917)" style="fill:#76B9CF;" width="15.352" height="0.515"></rect>			</g>			<g>				<path style="fill:#76B9CF;" d="M232.14,83.24c-0.408,1.084-1.618,1.633-2.702,1.225c-1.084-0.408-1.633-1.618-1.225-2.702     c0.408-1.084,1.618-1.633,2.702-1.225C232,80.946,232.548,82.155,232.14,83.24z"></path>			</g>		</g>		<g>			<g>									<rect x="223.262" y="81.62" transform="matrix(0.9866 -0.163 0.163 0.9866 -11.5665 37.63)" style="fill:#76B9CF;" width="0.515" height="15.353"></rect>			</g>			<g>				<path style="fill:#76B9CF;" d="M224.338,81.381c0.189,1.143-0.585,2.223-1.728,2.412c-1.143,0.189-2.223-0.585-2.412-1.728     c-0.189-1.143,0.585-2.223,1.728-2.412C223.069,79.465,224.149,80.238,224.338,81.381z"></path>			</g>		</g>		<g>			<g>									<rect x="219.643" y="83.261" transform="matrix(0.7729 -0.6345 0.6345 0.7729 -7.7662 160.1732)" style="fill:#76B9CF;" width="0.515" height="15.352"></rect>			</g>			<g>				<path style="fill:#76B9CF;" d="M216.651,83.673c0.735,0.896,0.605,2.217-0.29,2.952c-0.896,0.735-2.217,0.605-2.952-0.29     c-0.735-0.896-0.605-2.217,0.29-2.952C214.594,82.647,215.916,82.777,216.651,83.673z"></path>			</g>		</g>		<g>			<g>									<rect x="217.329" y="86.491" transform="matrix(0.3521 -0.9359 0.9359 0.3521 52.8308 264.6573)" style="fill:#76B9CF;" width="0.515" height="15.352"></rect>			</g>			<g>				<path style="fill:#76B9CF;" d="M211.14,89.501c1.084,0.408,1.633,1.618,1.225,2.702c-0.408,1.084-1.618,1.633-2.702,1.225     c-1.084-0.408-1.633-1.618-1.225-2.702C208.846,89.641,210.056,89.093,211.14,89.501z"></path>			</g>		</g>		<g>			<g>									<rect x="209.521" y="97.864" transform="matrix(0.9867 -0.1628 0.1628 0.9867 -13.0771 36.6707)" style="fill:#76B9CF;" width="15.352" height="0.515"></rect>			</g>			<g>				<path style="fill:#76B9CF;" d="M209.282,97.303c1.143-0.189,2.223,0.585,2.412,1.728c0.189,1.143-0.585,2.223-1.728,2.412     c-1.143,0.189-2.223-0.585-2.412-1.728C207.365,98.572,208.139,97.492,209.282,97.303z"></path>			</g>		</g>		<g>			<g>									<rect x="211.162" y="101.483" transform="matrix(0.7729 -0.6345 0.6345 0.7729 -14.861 161.9572)" style="fill:#76B9CF;" width="15.352" height="0.515"></rect>			</g>			<g>				<path style="fill:#76B9CF;" d="M211.574,104.99c0.895-0.735,2.217-0.605,2.952,0.29c0.735,0.896,0.605,2.217-0.291,2.952     c-0.895,0.735-2.217,0.605-2.952-0.29S210.678,105.725,211.574,104.99z"></path>			</g>		</g>		<g>			<g>									<rect x="214.392" y="103.797" transform="matrix(0.3522 -0.9359 0.9359 0.3522 46.4744 275.2519)" style="fill:#76B9CF;" width="15.352" height="0.515"></rect>			</g>			<g>				<path style="fill:#76B9CF;" d="M217.401,110.501c0.408-1.084,1.618-1.633,2.702-1.225c1.084,0.408,1.633,1.618,1.225,2.702     c-0.408,1.084-1.618,1.633-2.702,1.225C217.542,112.795,216.993,111.585,217.401,110.501z"></path>			</g>		</g>		<g>			<g>									<rect x="225.765" y="96.768" transform="matrix(0.9866 -0.163 0.163 0.9866 -14.0032 38.2444)" style="fill:#76B9CF;" width="0.515" height="15.352"></rect>			</g>			<g>				<path style="fill:#76B9CF;" d="M225.204,112.359c-0.189-1.143,0.585-2.223,1.728-2.412c1.143-0.189,2.223,0.585,2.412,1.728     c0.189,1.143-0.585,2.223-1.728,2.412C226.473,114.276,225.393,113.502,225.204,112.359z"></path>			</g>		</g>		<g>			<g>									<rect x="229.384" y="95.127" transform="matrix(0.7729 -0.6345 0.6345 0.7729 -13.0836 169.0475)" style="fill:#76B9CF;" width="0.515" height="15.352"></rect>			</g>			<g>				<path style="fill:#76B9CF;" d="M232.89,110.067c-0.735-0.896-0.605-2.217,0.29-2.952c0.895-0.735,2.217-0.605,2.952,0.291     c0.735,0.896,0.605,2.217-0.29,2.952C234.947,111.093,233.625,110.963,232.89,110.067z"></path>			</g>		</g>		<g>			<g>									<rect x="231.698" y="91.897" transform="matrix(0.3521 -0.9359 0.9359 0.3521 57.0806 281.6088)" style="fill:#76B9CF;" width="0.515" height="15.352"></rect>			</g>			<g>				<path style="fill:#76B9CF;" d="M238.401,104.24c-1.084-0.408-1.633-1.618-1.225-2.702c0.408-1.084,1.618-1.633,2.702-1.225     c1.084,0.408,1.633,1.618,1.225,2.702C240.695,104.099,239.486,104.648,238.401,104.24z"></path>			</g>		</g>		<g>			<g>									<rect x="224.668" y="95.361" transform="matrix(0.9866 -0.163 0.163 0.9866 -12.4811 39.1622)" style="fill:#76B9CF;" width="15.352" height="0.515"></rect>			</g>			<g>				<path style="fill:#76B9CF;" d="M240.26,96.437c-1.143,0.189-2.223-0.585-2.412-1.728c-0.189-1.143,0.585-2.223,1.728-2.412     c1.143-0.189,2.223,0.585,2.412,1.728C242.176,95.169,241.403,96.248,240.26,96.437z"></path>			</g>		</g>		<g>			<g>									<rect x="223.028" y="91.742" transform="matrix(0.7729 -0.6345 0.6345 0.7729 -5.9846 167.2776)" style="fill:#76B9CF;" width="15.353" height="0.515"></rect>			</g>			<g>				<path style="fill:#76B9CF;" d="M237.968,88.751c-0.896,0.735-2.217,0.605-2.952-0.291c-0.735-0.896-0.605-2.217,0.29-2.952     c0.896-0.735,2.217-0.605,2.953,0.291C238.994,86.694,238.864,88.016,237.968,88.751z"></path>			</g>		</g>	</g>	<ellipse style="fill:#9DBDCF;" cx="259.189" cy="428.373" rx="103.345" ry="7.288"></ellipse>	<ellipse style="fill:#9DBDCF;" cx="385.256" cy="428.373" rx="63.307" ry="7.288"></ellipse>	<g>		<g>			<g>				<path style="fill:#516A7D;" d="M160.263,428.017l-73.63,2.613c-6.343,0-11.628-4.187-12.155-9.631l-28.31-292.538     c-0.593-6.123,5.019-11.375,12.155-11.375l73.63,2.613c6.343,0,11.628,4.187,12.155,9.631l28.31,287.312     C173.01,422.765,167.399,428.017,160.263,428.017z"></path>			</g>			<g>				<path style="fill:#8BA7BA;" d="M170.545,428.017l-73.63,2.613c-6.343,0-11.628-4.187-12.155-9.631l-28.31-292.538     c-0.593-6.123,5.019-11.375,12.155-11.375l73.63,2.613c6.343,0,11.628,4.187,12.155,9.631l28.31,287.312     C183.292,422.765,177.68,428.017,170.545,428.017z"></path>			</g>			<g>				<path style="fill:#2A3942;" d="M172.567,428.017l-73.63,2.613c-6.343,0-11.628-4.187-12.155-9.631l-28.31-292.538     c-0.592-6.123,5.019-11.375,12.155-11.375l73.63,2.613c6.343,0,11.628,4.187,12.155,9.631l28.31,287.312     C185.315,422.765,179.703,428.017,172.567,428.017z"></path>			</g>			<g>				<path style="fill:#E8D127;" d="M177.076,421.084c-1.176,1.106-2.778,1.707-4.512,1.707l-73.63,2.613     c-3.161,0-5.844-2.125-6.105-4.842l-4.111-42.503L64.522,128.025c-0.148-1.489,0.418-2.909,1.594-4.006     c1.176-1.106,2.778-1.707,4.511-1.707l73.63,2.613c3.162,0,5.844,2.125,6.105,4.842l14.014,142.227l14.301,145.083     C178.818,418.567,178.252,419.986,177.076,421.084z"></path>			</g>			<g>				<polygon style="fill:#FFF74D;" points="162.931,255.326 84.738,336.935 80.291,290.978 161.192,239.667     "></polygon>			</g>			<g>				<path style="fill:#FFF74D;" d="M177.076,421.084c-1.176,1.106-2.778,1.707-4.512,1.707l-73.63,2.613     c-3.161,0-5.844-2.125-6.105-4.842l-4.111-42.503c17.619-25.083,54.844-77.044,75.66-106.065l14.301,145.083     C178.818,418.567,178.252,419.986,177.076,421.084z"></path>			</g>			<g>				<path style="fill:#2A3942;" d="M89.995,122.312l3.815,5.889c0.761,0.827,1.83,1.304,2.954,1.318l30.925,0.387     c1.253,0.016,2.443-0.545,3.23-1.52l3.494-6.075H89.995z"></path>			</g>		</g>		<g>			<path style="fill:#48B59D;" d="M116.956,375.297c0.646,8.054-2.767,14.899-7.623,15.288c-4.856,0.39-9.317-5.823-9.963-13.877    c-0.646-8.054,2.767-14.899,7.623-15.288C111.849,361.03,116.309,367.243,116.956,375.297z"></path>		</g>		<g>			<path style="fill:#48B59D;" d="M142.289,373.175c0.646,8.054-2.767,14.899-7.623,15.288c-4.856,0.39-9.317-5.823-9.963-13.877    c-0.646-8.054,2.767-14.899,7.623-15.288C137.182,358.908,141.643,365.121,142.289,373.175z"></path>		</g>		<g>			<path style="fill:#48B59D;" d="M166.938,370.774c0.646,8.054-2.767,14.899-7.623,15.288c-4.856,0.39-9.317-5.823-9.963-13.877    c-0.646-8.054,2.767-14.899,7.623-15.288C161.831,356.507,166.292,362.72,166.938,370.774z"></path>		</g>		<g>			<g>									<ellipse transform="matrix(0.9969 -0.0787 0.0787 0.9969 -17.625 10.1082)" style="fill:#EFFFFB;" cx="119.402" cy="228.613" rx="30.684" ry="50.889"></ellipse>			</g>			<g>				<path style="fill:#48B59D;" d="M102.337,237.037l14.709,16.958c2.218,2.557,6.356,1.859,7.613-1.285l16.029-40.107     c0.441-1.103,0.43-2.335-0.031-3.43l-0.026-0.063c-1.567-3.727-6.866-3.68-8.366,0.076l-13.475,33.741l-9.533-11.708     c-2.58-3.168-7.705-1.561-8.013,2.513l0,0C101.153,234.937,101.547,236.126,102.337,237.037z"></path>			</g>		</g>		<g>			<path style="fill:#EFFFFB;" d="M96.51,312.18c-1.147,0-2.108-0.897-2.172-2.057c-0.067-1.201,0.853-2.228,2.053-2.295    l62.709-3.484c1.196-0.079,2.228,0.852,2.295,2.053c0.067,1.201-0.853,2.228-2.053,2.295l-62.709,3.484    C96.592,312.179,96.551,312.18,96.51,312.18z"></path>		</g>		<g>			<path style="fill:#EFFFFB;" d="M143.559,155.468c-0.02,0-0.041,0-0.062-0.001l-62.709-1.742c-1.202-0.034-2.15-1.035-2.116-2.237    s1.042-2.137,2.237-2.116l62.709,1.742c1.202,0.034,2.15,1.035,2.116,2.237C145.702,154.533,144.734,155.468,143.559,155.468z"></path>		</g>		<g>			<path style="fill:#EFFFFB;" d="M96.51,328.948c-1.134,0-2.09-0.879-2.17-2.027c-0.083-1.199,0.822-2.24,2.021-2.323l62.709-4.355    c1.208-0.078,2.24,0.823,2.323,2.022c0.083,1.199-0.822,2.24-2.021,2.323l-62.709,4.355    C96.612,328.946,96.561,328.948,96.51,328.948z"></path>		</g>	</g>	<g>		<g>			<g>				<path style="fill:#4D3426;" d="M179.872,180.308c0,0-4.102-14.109-4.34-16.392c-0.238-2.282-1.519-9.685,2.17-11.863     c3.689-2.177,1.512-8.71,5.432-10.016c4.295-1.431,9.649-1.182,14.098-1.032c5.513,0.186,12.637,2.709,14.976,8.326     c1.729,4.151-0.394,11.676-1.333,15.977L179.872,180.308z"></path>				<path style="opacity:0.52;fill:#FFF200;" d="M179.165,163.917c-0.238-2.282-1.519-9.685,2.17-11.863     c3.689-2.177,1.512-8.71,5.432-10.016c2.309-0.77,4.924-1.046,7.54-1.121c-3.742-0.089-7.785-0.008-11.174,1.121     c-3.92,1.307-1.742,7.839-5.432,10.016c-3.689,2.177-2.407,9.581-2.17,11.863c0.237,2.282,4.34,16.392,4.34,16.392l3.189-1.543     C181.993,175.046,179.354,165.734,179.165,163.917z"></path>				<g id="POLYLINE_5_">					<path style="fill:#FFB980;" d="M208.596,180.087c-0.435,1.986-1.257,3.184-2.303,3.936c-3.384,2.467-9,0.305-10.586,5.323      c-0.341,1.093-1.034,2.596-1.363,4.077c-0.27,1.187-0.294,2.373,0.282,3.29c0.27,0.423,0.776,0.858,0.658,1.41      c-0.118,0.54-0.775,0.858-1.245,1.034c-0.963,0.352-2.068,0.317-3.079,0.235c-4.383-0.335-12.919-2.351-14.108-7.554      c-0.318-1.392,0.095-2.835,0.505-4.202c1.553-5.182,4.981-12.226,4.157-17.698c0.005,0.036-1.796-1.062-1.99-1.308      c-0.586-0.74-0.854-1.669-0.812-2.603c0.088-1.967,1.837-3.996,3.584-4.816c3.156-1.482,4.389,2.716,5.422,4.954      c0.364,0.787,0.799,1.786,1.809,1.375c1.151-0.458,2.103-1.375,2.056-2.644c-0.035-0.999-0.305-1.974,0.059-2.949      c0.869-2.256,3.619-3.313,5.088-5.111c1.093-1.339,1.034-2.538,1.081-4.124c0.035-1.187,1.34-1.633,2.291-1.997      c1.762-0.67,4.817-1.762,6.615-0.611c1.14,0.74,1.527,2.362,1.986,3.548c0.517,1.363,1.222,2.655,1.621,4.054      C211.979,163.685,209.9,174.154,208.596,180.087z"></path>				</g>				<g id="POLYLINE_6_">					<path style="opacity:0.52;fill:#FFF200;" d="M184.32,173.153c0.343-4.567,0.723-8.199,0.811-9.173      c0.108-1.199,0.168-2.549-0.635-3.447c-2.07-2.31-5.715,3.888-5.786,5.493c-0.042,0.935,0.227,1.863,0.812,2.603      c0.194,0.246,1.995,1.344,1.99,1.308c0.825,5.472-2.603,12.516-4.157,17.698c-0.41,1.368-0.823,2.811-0.505,4.202      c0.824,3.606,5.175,5.679,9.228,6.725C182.986,197.764,183.565,183.196,184.32,173.153z"></path>					<path style="fill:#FFB980;" d="M210.323,157.704c-0.399-1.398-1.104-2.691-1.621-4.054c-0.458-1.187-0.846-2.808-1.986-3.548      c-1.688-1.081-4.484-0.184-6.278,0.484c0.231,7.764,1.305,15.518-4.241,21.064c-1.742,2.613-7.839-0.871-8.71,1.742      c-3.051,7.845-3.702,16.999-1.409,25.17c1.796,0.464,3.535,0.727,4.88,0.83c1.011,0.082,2.115,0.117,3.079-0.235      c0.47-0.176,1.128-0.493,1.245-1.034c0.118-0.552-0.388-0.987-0.658-1.41c-0.576-0.917-0.552-2.103-0.282-3.29      c0.329-1.481,1.022-2.984,1.363-4.077c1.586-5.017,7.202-2.855,10.586-5.323c1.046-0.752,1.868-1.95,2.303-3.936      C209.9,174.154,211.979,163.685,210.323,157.704z"></path>				</g>				<path style="fill:#FF7657;" d="M205.075,184.262c0.075,0.002,0.15,0.004,0.226,0.005c-1.67,1.147-3.703,1.091-5.615,1.601     c-1.913,0.509-3.36,1.52-3.979,3.478c-0.42,1.347-0.942,2.792-1.414,4.059c-1.142-0.971-1.232-2.925-1.513-4.295     c-0.262-1.282-0.4-2.583-0.428-3.891c-0.08-3.795,3.197-2.275,5.646-1.864C200.309,183.743,202.723,184.201,205.075,184.262z"></path>				<path style="fill:#48B59D;" d="M207.685,169.105c-3.333-0.46-10.621,0.551-13.454,0.982c0.041-0.127,0.026-0.269-0.089-0.374     c-1.15-1.05-2.296-2.208-3.536-3.145c-1.288-0.974-2.778-1.759-4.143-2.623c0.631,1.494,1.545,1.884,2.718,2.839     c1.426,1.161,2.866,2.303,4.331,3.415c-0.284,0.045-0.443,0.072-0.443,0.072c-0.871,1.806-1.103,3.853-1.008,5.837     c0.045,0.933,0.165,1.862,0.339,2.779c0.13,0.687,0.67,1.593,0.359,2.277c-1.112-0.407-2.28-1.579-3.211-2.332     c-3.338-2.701-6.302-5.865-8.773-9.376c0.492,0.7,0.571,1.597,0.97,2.34c0.472,0.878,1.233,1.653,1.881,2.402     c1.03,1.191,2.149,2.268,3.202,3.426c0.736,0.809,1.475,1.579,2.378,2.207c0.653,0.454,1.334,0.866,2.044,1.226     c0.296,0.15,1.839,0.569,1.928,0.836c0.169,0.511,0.291,0.815,0.291,0.815s5.15,6.045,11.835,1.56     c6.685-4.485,5.636-12.872,5.636-12.872S211.87,169.683,207.685,169.105z"></path>				<path style="opacity:0.52;fill:#FFF200;" d="M195.882,169.846c-0.637,0.089-1.204,0.172-1.652,0.241     c0.041-0.127,0.026-0.269-0.089-0.374c-1.15-1.05-2.296-2.208-3.536-3.145c-1.288-0.974-2.778-1.759-4.143-2.623     c0.631,1.494,1.545,1.884,2.718,2.839c1.426,1.161,2.866,2.303,4.331,3.415c-0.284,0.045-0.443,0.072-0.443,0.072     c-0.871,1.806-1.103,3.853-1.008,5.837c0.045,0.933,0.165,1.862,0.339,2.779c0.13,0.687,0.67,1.593,0.359,2.277     c-1.112-0.407-2.28-1.579-3.211-2.333c-3.338-2.701-6.302-5.864-8.773-9.375c0.492,0.7,0.571,1.597,0.97,2.34     c0.472,0.878,1.233,1.653,1.881,2.402c1.03,1.191,2.149,2.268,3.202,3.426c0.736,0.809,1.475,1.579,2.378,2.207     c0.653,0.454,1.334,0.866,2.044,1.225c0.296,0.15,1.839,0.569,1.928,0.836c0.169,0.511,0.291,0.815,0.291,0.815     s2.394,2.806,6.034,3.174C196.578,181.341,195.229,175.726,195.882,169.846z"></path>			</g>			<g id="POLYLINE_456_">				<path style="fill:#EF5B51;" d="M198.201,197.103c-0.951,1.477-3.014,2.762-4.795,2.215c-0.789-0.243-1.477-0.759-2.145-1.214     c-1.204-0.809-2.407-1.608-3.652-2.357c-2.296-1.386-4.704-2.741-7.263-3.591c-1.113-0.374-2.266-0.526-3.409-0.799     c-0.809-0.192-1.426-0.486-1.406-1.416c0.02-1.032,0.405-2.134,0.658-3.116c0.192-0.738,0.425-1.588,1.062-2.064     c1.244-0.921,3.308,0.132,4.471,0.678c2.65,1.254,5.068,2.934,7.566,4.441c2.124,1.285,4.279,2.124,6.626,2.903     c1.325,0.445,2.923,1.052,2.822,2.731C198.717,196.081,198.505,196.628,198.201,197.103z"></path>			</g>			<g>				<defs>					<path id="SVGID_1_" d="M177.076,421.084c-1.176,1.106-2.778,1.707-4.512,1.707l-73.63,2.613c-3.161,0-5.844-2.125-6.105-4.842      l-4.111-42.503c17.619-25.083,54.844-77.044,75.66-106.065l14.301,145.083C178.818,418.567,178.252,419.986,177.076,421.084z"></path>				</defs>				<clipPath id="SVGID_00000024694611398948881160000018303159778063392649_">					<use xlink:href="#SVGID_1_" style="overflow:visible;"></use>				</clipPath>				<g id="POLYLINE_449_" style="clip-path:url(#SVGID_00000024694611398948881160000018303159778063392649_);">					<path style="fill:#3C464F;" d="M150.957,419.691c-3.231-2.128-2.91-6.543-4.316-9.68c-1.716-3.829-5.169-7.417-8.766-9.506      c-4.118-2.392-10.494-3.499-14.72-0.693c-3.371,2.239-7.53,8.229-3.765,11.758c7.796,7.382,19.029,14.476,29.327,17.642      c2.222,0.682,6.51,2.894,8.09,0.128c0.973-1.703,1.794-4.346,0.609-6.287C156.031,420.782,153.016,421.047,150.957,419.691z"></path>				</g>				<path style="opacity:0.52;clip-path:url(#SVGID_00000024694611398948881160000018303159778063392649_);fill:#FFF200;" d="     M124.971,413.811c-3.765-3.529,0.393-9.52,3.765-11.758c2.7-1.793,6.275-1.984,9.581-1.268c-0.147-0.091-0.293-0.194-0.441-0.28     c-4.118-2.392-10.494-3.499-14.72-0.693c-3.371,2.239-7.53,8.229-3.765,11.758c7.383,6.991,17.848,13.718,27.683,17.101     C138.999,424.99,130.968,419.49,124.971,413.811z"></path>			</g>			<g id="POLYLINE_448_">				<path style="fill:#345480;" d="M195.448,339.004c-1.254,5.226-1.219,10.643-5.139,14.919c-0.958,1.054-2.082,1.942-3.231,2.787     c-0.81,0.601-1.637,1.176-2.43,1.777c-1.873,1.411-3.684,2.926-5.391,4.555c-3.31,3.127-6.14,6.663-8.849,10.321     c-3.162,4.276-6.193,8.753-9.824,12.672c-1.681,1.811-3.562,3.414-5.452,4.999c-1.211,1.028-2.517,2.064-3.379,3.405     c-0.697,1.08-0.958,2.36-1.611,3.458c-0.819,1.359-2.404,1.942-3.388,3.144c-0.932,1.124-1.42,2.552-1.202,3.998     c0.209,1.324,1.158,2.996-0.314,3.902c-1.332,0.81-3.118,0.923-4.59,1.254c-2.535,0.575-4.738,1.132-7.168-0.052     c-2.804-1.376-4.355-3.675-6.044-6.192c-0.688-1.045-1.594-1.646-2.543-2.447c-0.949-0.801-1.341-1.864-1.402-3.074     c-0.096-1.934,0.584-3.806,1.751-5.33c1.411-1.864,3.336-3.336,5.086-4.877c1.82-1.594,3.632-3.223,5.365-4.921     c3.536-3.484,6.671-7.272,9.493-11.366c2.883-4.172,5.504-8.527,8.405-12.69c2.796-3.998,5.923-7.595,9.641-10.782     c3.371-2.883,7.586-5.6,9.633-9.685c0.906-1.785,1.35-3.806,1.994-5.696c2.404-7.011,0.488-15.007-0.096-22.331     c-0.488-6.079-0.775-12.846,3.109-17.558c1.393,0.34,2.796,0.671,4.189,1.01c1.254-0.261,2.613-0.139,3.841,0.279     c0.871,0.296,1.672,0.723,2.43,1.237c1.463,0.357,2.918,0.706,4.381,1.063l-1.01,1.925c3.667,3.928,6.349,8.805,7.786,14.005     c0.54,1.916,0.906,3.876,1.08,5.844C201.249,326.027,197.164,331.845,195.448,339.004z"></path>			</g>			<path style="opacity:0.52;fill:#FFF200;" d="M132.665,409.181c-0.688-1.045-1.594-1.646-2.543-2.447    c-0.949-0.801-1.341-1.864-1.402-3.074c-0.096-1.934,0.583-3.806,1.751-5.33c1.411-1.864,3.336-3.336,5.086-4.877    c1.82-1.594,3.632-3.223,5.365-4.921c3.536-3.484,6.672-7.273,9.493-11.366c2.883-4.172,5.504-8.527,8.405-12.69    c2.796-3.998,5.923-7.595,9.642-10.782c3.371-2.883,7.586-5.6,9.633-9.685c0.906-1.786,1.35-3.806,1.995-5.696    c2.404-7.011,0.488-15.007-0.096-22.331c-0.488-6.079-0.775-12.847,3.109-17.558c1.394,0.34,2.796,0.671,4.189,1.01    c1.254-0.261,2.613-0.139,3.841,0.279c0.871,0.296,1.672,0.723,2.43,1.237c0.012,0.003,0.024,0.006,0.036,0.009    c-0.602-0.776-1.226-1.534-1.895-2.251l1.01-1.925c-1.463-0.357-2.918-0.706-4.381-1.063c-0.758-0.514-1.559-0.941-2.43-1.237    c-1.228-0.418-2.587-0.54-3.841-0.279c-1.394-0.34-2.796-0.671-4.189-1.01c-3.885,4.712-3.597,11.479-3.109,17.558    c0.583,7.325,2.5,15.32,0.096,22.331c-0.645,1.89-1.089,3.911-1.994,5.696c-2.047,4.085-6.262,6.802-9.633,9.685    c-3.719,3.188-6.846,6.785-9.641,10.782c-2.9,4.163-5.522,8.518-8.405,12.69c-2.822,4.094-5.957,7.882-9.493,11.366    c-1.733,1.698-3.545,3.327-5.365,4.921c-1.751,1.542-3.675,3.013-5.086,4.877c-1.167,1.524-1.846,3.397-1.751,5.33    c0.061,1.21,0.453,2.273,1.402,3.074c0.949,0.801,1.855,1.402,2.543,2.447c1.633,2.433,3.148,4.655,5.78,6.044    C133.032,409.727,132.849,409.456,132.665,409.181z"></path>			<path style="fill:#294873;" d="M195.448,339.004c-1.254,5.226-1.219,10.643-5.139,14.919c-0.958,1.054-2.082,1.942-3.231,2.787    c-1.147-7.846,2.322-12.838,2.252-20.531c-0.071-7.809-6.889-11.359-7.783-18.104c-0.288-2.169-0.549-4.337-0.81-6.506    c-0.636-5.426-1.463-11.906,5.531-9.406c0.984,0.348,1.96,0.801,2.918,1.341c3.902,2.16,7.516,5.67,10.303,9.206    c0.54,1.916,0.906,3.876,1.08,5.844C201.249,326.027,197.164,331.845,195.448,339.004z"></path>			<g id="POLYLINE_447_">				<path style="fill:#40628F;" d="M177.191,294.962c0.233,2.448,0.738,4.866,1.902,7.051c0.951,1.78,2.306,3.308,3.722,4.724     c1.952,1.932,4.117,3.632,6.029,5.604c1.841,1.892,3.247,4.107,4.542,6.393c2.933,5.189,5.655,10.53,9.084,15.426     c1.538,2.185,3.51,4.006,5.068,6.171c0.89,1.244,1.042,2.762,1.79,4.056c0.9,1.538,2.296,2.61,2.772,4.4     c0.324,1.244,0.303,2.559-0.101,3.783c-0.364,1.103-0.921,2.134-1.305,3.237c-0.425,1.184-0.728,2.408-0.961,3.642     c-0.425,2.246-0.668,4.522-0.9,6.788c-0.708,6.777-1.426,13.555-2.104,20.342c-0.293,2.883-0.546,5.776-0.678,8.679     c-0.101,2.175-0.243,4.491,0.243,6.626c0.374,1.679,1.265,2.842,0.637,4.603c-0.526,1.467-1.608,2.6-2.286,3.986     c-0.88,1.831-1.042,3.986-1.295,5.968c-0.162,1.244-0.617,3.207,0.121,4.4c0.789,1.264,2.893,0.87,4.097,0.678     c2.61-0.405,5.23-1.001,7.718-1.902c2.215-0.799,4.309-1.902,6.292-3.166c1.811-1.163,4.107-2.539,5.189-4.471     c0.89-1.588,0.738-3.601,0.809-5.351c0.091-2.468,0.91-4.734,1.264-7.162c0.809-5.473-0.101-11.077,0.647-16.569     c0.395-2.883,1.163-5.685,1.649-8.548c0.465-2.711,0.374-5.412,0.435-8.163c0.04-2.013,0.303-3.925,1.032-5.806     c0.759-1.962,1.962-3.824,2.185-5.958c0.243-2.428-0.182-5.017-0.455-7.425c-0.314-2.701-0.698-5.452-1.548-8.042     c-0.88-2.681-2.448-5.068-3.48-7.688c-1.184-2.984-2.094-6.079-3.095-9.134c-1.841-5.624-4.158-11.066-6.312-16.569     c-1.032-2.64-1.922-5.341-3.014-7.971c-0.597-1.447-1.244-2.762-2.387-3.844c-0.981-0.931-1.598-1.841-2.114-3.095"></path>			</g>			<path style="opacity:0.52;fill:#FFF200;" d="M212.77,416.44c0.253-1.983,0.415-4.137,1.295-5.968    c0.678-1.386,1.76-2.519,2.286-3.986c0.627-1.76-0.263-2.923-0.637-4.603c-0.486-2.134-0.344-4.451-0.243-6.626    c0.131-2.903,0.384-5.796,0.678-8.679c0.678-6.788,1.396-13.565,2.104-20.342c0.233-2.266,0.475-4.542,0.9-6.788    c0.233-1.234,0.536-2.458,0.961-3.642c0.384-1.103,0.941-2.134,1.305-3.237c0.404-1.224,0.425-2.539,0.101-3.783    c-0.475-1.79-1.871-2.863-2.772-4.4c-0.749-1.295-0.9-2.812-1.79-4.056c-1.558-2.165-3.53-3.986-5.068-6.171    c-3.429-4.896-6.15-10.237-9.084-15.426c-1.295-2.286-2.701-4.501-4.542-6.393c-1.912-1.973-4.077-3.672-6.029-5.604    c-1.416-1.416-2.772-2.944-3.723-4.724c-1.163-2.185-1.669-4.603-1.902-7.051l26.307-3.221c-0.191-0.339-0.371-0.692-0.534-1.088    l-35.192,4.309c0.233,2.448,0.738,4.866,1.902,7.051c0.951,1.78,2.306,3.308,3.723,4.724c1.952,1.932,4.117,3.632,6.029,5.604    c1.841,1.892,3.247,4.107,4.542,6.393c2.933,5.189,5.655,10.53,9.084,15.426c1.538,2.185,3.51,4.006,5.068,6.171    c0.89,1.244,1.042,2.762,1.79,4.056c0.9,1.538,2.296,2.61,2.772,4.4c0.324,1.244,0.303,2.559-0.101,3.783    c-0.364,1.103-0.921,2.134-1.305,3.237c-0.425,1.184-0.728,2.408-0.961,3.642c-0.425,2.246-0.668,4.522-0.9,6.788    c-0.708,6.777-1.426,13.555-2.104,20.342c-0.293,2.883-0.546,5.776-0.678,8.679c-0.101,2.175-0.243,4.491,0.243,6.626    c0.374,1.679,1.265,2.842,0.637,4.603c-0.526,1.467-1.608,2.6-2.286,3.986c-0.88,1.831-1.042,3.986-1.295,5.968    c-0.162,1.244-0.617,3.207,0.121,4.4c0.789,1.264,2.893,0.87,4.097,0.678c1.72-0.267,3.441-0.628,5.129-1.094    C212.253,419.228,212.625,417.55,212.77,416.44z"></path>			<g id="POLYLINE_455_">				<path style="fill:#EF5B51;" d="M175.532,190.164c-0.961,0.971-1.902,1.952-2.802,2.974c-3.814,4.36-6.332,9.468-7.314,15.194     c-0.981,5.675-0.253,11.329,0.85,16.934c1.184,6.019,2.509,12.017,3.662,18.046c1.082,5.675,1.871,11.39,2.448,17.146     c0.59,5.918-0.651,11.228-0.614,17.137c0.026,4.096-1.748,7.884-1.475,11.945c0.192,2.861,0.576,7.112,3.316,8.65     c1.468,0.824,3.187,1.044,4.858,1.248c9.007,1.103,13.813,2.432,22.51-0.659c4.086-1.438,8.813-1.678,12.666-3.725     c1.43-0.76,2.323-1.148,2.708-2.784c0.159-0.674-0.214-3.962-1.298-3.936c1.632-0.039,2.536-2.151,2.008-3.695     c-0.775-2.265-2.515-3.018-3.141-5.39c-0.8-3.033-0.673-6.577-0.965-9.697c0,0-1.396-14.88-1.396-14.88     c-1.001-7.789-1.952-15.598-3.116-23.367c-1.184-7.89-2.134-15.993-4.491-23.64c-1.224-3.976-3.156-7.334-5.756-10.561     L175.532,190.164z"></path>			</g>			<path style="opacity:0.52;fill:#FFF200;" d="M186.206,299.438c-1.671-0.204-3.39-0.424-4.858-1.248    c-2.74-1.538-3.124-5.789-3.316-8.65c-0.273-4.061,1.5-7.85,1.475-11.946c-0.037-5.908,1.203-11.219,0.614-17.137    c-0.577-5.756-1.366-11.471-2.448-17.146c-1.153-6.029-2.478-12.027-3.662-18.046c-1.103-5.604-1.831-11.259-0.85-16.934    c0.981-5.725,3.5-10.834,7.314-15.194c0.341-0.387,0.693-0.764,1.044-1.141l-5.986-1.833c-0.961,0.971-1.902,1.952-2.802,2.974    c-3.814,4.36-6.332,9.468-7.314,15.194c-0.981,5.675-0.253,11.329,0.85,16.934c1.184,6.019,2.509,12.017,3.662,18.046    c1.082,5.675,1.871,11.39,2.448,17.146c0.59,5.918-0.651,11.228-0.614,17.137c0.026,4.096-1.748,7.884-1.475,11.946    c0.192,2.861,0.576,7.112,3.316,8.65c1.468,0.824,3.187,1.044,4.858,1.248c6.41,0.785,10.697,1.676,15.769,1.015    C191.827,300.208,189.26,299.812,186.206,299.438z"></path>			<path style="fill:#D64238;" d="M174.306,250.284c0.99,4.621,2.12,9.511,5.443,12.872c2.473,2.501,5.86,3.834,9.142,5.099    c7.56,2.914,15.119,5.828,22.679,8.742c-0.222-4.91-0.443-9.82-0.665-14.73c-9.329-3.51-17.882-9.023-25.011-15.983    c-3.59-3.505-6.821-7.378-9.609-11.549c-1.419-2.124-4.881-9.833-5.575-3.311C170.092,237.245,173.087,244.592,174.306,250.284z"></path>			<path style="fill:#D64238;" d="M196.617,226.474c1.239,8.653-1.253,17.652,0.875,26.13c-0.354-1.413-3.092-3.616-3.992-4.907    c-1.247-1.787-2.357-3.668-3.329-5.619c-1.977-3.97-3.373-8.227-4.154-12.592c-0.781-4.362-0.946-8.839-0.453-13.244    c0.291-2.6,1.584-11.042,5.029-6.083C193.721,214.662,195.846,221.093,196.617,226.474z"></path>			<g id="POLYLINE_446_">				<path style="fill:#3C464F;" d="M204.433,421.569c-0.647,2.519-0.759,5.685-0.03,8.204c0.708,2.438,3.257,2.418,5.371,2.509     c7.627,0.344,15.295,0.182,22.932,0.132c4.158-0.03,8.325,0.02,12.483-0.202c1.892-0.101,5.27,0.081,6.504-1.801     c1.042-1.598,0.516-4.269-0.04-5.918c-0.384-1.143-0.971-1.861-2.165-2.165c-1.578-0.405-3.288-0.415-4.896-0.587     c-2.721-0.293-5.311-0.89-7.587-2.468c-2.681-1.871-4.734-4.41-7.658-5.958c-0.85-0.445-1.71-0.86-2.569-1.285"></path>			</g>			<g>				<g id="POLYLINE_2_">					<path style="fill:#D49F55;" d="M273.878,222.666c0.04,0.199-0.018,0.469,0.007,0.78c0.037,0.597,0.07,1.186,0.108,1.784      l1.129,18.803c0.217,3.671,0.438,7.351,0.655,11.022c0.356,5.898,0.699,11.793,1.055,17.692      c0.081,1.348,0.158,2.709,0.239,4.057c-8.753,0.516-17.509,1.044-26.262,1.56c-1.215,0.075-2.435,0.142-3.65,0.217      l-15.369,0.919c-6.073,0.362-12.146,0.725-18.219,1.087l-0.548,0.033c-0.892,0.054-1.792,0.112-2.688,0.158      c-0.359-6.127-0.73-12.258-1.09-18.385c-0.584-9.773-1.164-19.538-1.748-29.311c-0.139-2.248-0.266-4.492-0.405-6.741      c0.06,0.115,1.784-0.108,1.929-0.11c1.763-0.107,3.526-0.215,5.285-0.31c5.666-0.34,11.337-0.672,17.003-1.012      c6.72-0.405,13.436-0.797,20.156-1.201c5.455-0.325,10.91-0.65,16.365-0.974c1.56-0.096,3.124-0.185,4.683-0.281      c0.294-0.017,0.82-0.153,1.103-0.069C273.78,222.435,273.852,222.533,273.878,222.666z"></path>				</g>				<g>											<rect x="209.008" y="224.444" transform="matrix(0.9988 -0.0497 0.0497 0.9988 -12.1897 12.3747)" style="fill:#D49F55;" width="67.372" height="53.623"></rect>											<rect x="237.409" y="224.456" transform="matrix(0.9988 -0.0497 0.0497 0.9988 -11.6802 12.335)" style="fill:#F0CD9C;" width="9.553" height="33.14"></rect>				</g>				<path style="fill:#D1773B;" d="M274.869,222.981c0.04,0.199-0.018,0.469,0.007,0.78c0.037,0.597,0.07,1.186,0.108,1.784     l1.129,18.804c0.217,3.671,0.438,7.35,0.655,11.022c0.356,5.899,0.699,11.793,1.055,17.692c0.081,1.348,0.158,2.709,0.239,4.057     c-8.753,0.516-17.509,1.044-26.262,1.56c-1.215,0.075-2.435,0.142-3.65,0.217l-15.369,0.919     c-6.073,0.362-12.146,0.725-18.219,1.087l-4.226-0.125l59.234-9.444l3.934-48.566L274.869,222.981z"></path>									<rect x="262.944" y="261.821" transform="matrix(0.9988 -0.0497 0.0497 0.9988 -12.9397 13.6572)" style="fill:#4A6570;" width="10.248" height="10.248"></rect>									<rect x="249.289" y="264.581" transform="matrix(0.9988 -0.0497 0.0497 0.9988 -12.8761 12.9738)" style="fill:#4A6570;" width="10.248" height="1.588"></rect>									<rect x="249.474" y="268.297" transform="matrix(0.9988 -0.0497 0.0497 0.9988 -13.0631 12.9902)" style="fill:#4A6570;" width="10.248" height="1.588"></rect>			</g>			<g id="POLYLINE_458_">				<path style="fill:#FFB980;" d="M242.542,265.706c-1.442,0.029-2.866,0.481-4.343,0.516c-3.372,0.082-6.34-1.785-9.267-3.202     c-10.01-4.848-20.625-9.44-29.939-15.564c-2.333-1.534-9.79-18.483-8.533-18.716c-5.615,1.039-11.23,2.077-16.844,3.116     c2.329,7.851,3.155,22.691,12.021,26.384c6.963,2.899,13.837,6.174,20.899,8.803c7.477,2.783,15.472,3.786,22.973,6.491     c5.867,2.116,10.383,8.309,16.9,8.376c1.281,0.013,2.556-0.167,3.824-0.346c1.338-0.189,2.676-0.379,4.014-0.568     c0.694-0.098,1.408-0.203,2.014-0.555c0.606-0.352,1.086-1.016,1.006-1.712c-0.653,0.104-2.482-1.922-3.354-2.22     c-1.929-0.659-3.557-1.307-4.274-3.265c0.988,2.966,5.04,1.993,7.096,1.092c-3.32-2.809-8.311-7.271-12.567-8.444     C243.621,265.743,243.08,265.695,242.542,265.706z"></path>			</g>			<g style="opacity:0.52;">				<path style="fill:#FFF200;" d="M254.958,273.825c0.191,0.357,0.423,0.658,0.683,0.923c0.05-0.016,0.102-0.032,0.151-0.049     C255.461,274.485,255.176,274.2,254.958,273.825z"></path>				<path style="fill:#FFF200;" d="M243.251,266.222c0.497-0.012,0.987-0.076,1.475-0.15c-0.187-0.063-0.374-0.127-0.558-0.178     c-0.547-0.151-1.088-0.199-1.627-0.188c-0.628,0.013-1.253,0.109-1.881,0.212C241.501,266.124,242.362,266.244,243.251,266.222z     "></path>				<path style="fill:#FFF200;" d="M234.561,273.534c-7.501-2.705-15.496-3.708-22.973-6.491     c-7.062-2.628-13.936-5.904-20.899-8.803c-8.866-3.693-9.691-18.533-12.021-26.384c3.911-0.723,7.821-1.447,11.732-2.17     c-0.116-0.567-0.11-0.914,0.061-0.946c-5.615,1.039-11.229,2.077-16.844,3.116c2.329,7.851,3.155,22.691,12.021,26.384     c6.963,2.899,13.837,6.174,20.899,8.803c7.477,2.783,15.472,3.786,22.973,6.491c5.867,2.116,10.383,8.309,16.9,8.376     c1.009,0.011,2.014-0.1,3.016-0.234C243.959,280.544,239.796,275.422,234.561,273.534z"></path>			</g>			<g id="POLYLINE_459_">				<path style="fill:#EF5B51;" d="M192.243,209.94c0.152,0.708,0.293,1.406,0.435,2.114c0.981,5.058-0.051,10.186-0.02,15.275     c0.01,1.386,0.152,2.762,0.283,4.137c0.061,0.658,0.162,1.355,0.061,2.013c-0.263,1.699-2.327,1.153-3.52,0.951     c-4.502-0.759-9.135-0.678-13.343,1.305c-0.86,0.405-1.76,1.072-2.711,1.254c-0.84,0.172-1.092-0.455-1.264-1.173     c-0.516-2.205-0.708-4.461-1.305-6.666c-0.738-2.762-1.639-5.473-2.397-8.224c-0.688-2.499-1.001-4.997-1.255-7.57     c-0.624-6.326-0.78-14.222,6.89-16.374C180.561,195.169,190.906,203.701,192.243,209.94z"></path>			</g>			<g style="opacity:0.52;">				<path style="fill:#FFF200;" d="M175.852,235.816c-0.516-2.205-0.708-4.461-1.305-6.666c-0.738-2.762-1.639-5.473-2.397-8.224     c-0.688-2.498-1.001-4.997-1.255-7.569c-0.624-6.326-0.78-14.222,6.891-16.374c0.05-0.014,0.102-0.022,0.152-0.034     c-1.356-0.279-2.663-0.296-3.84,0.034c-7.671,2.152-7.514,10.048-6.89,16.374c0.253,2.572,0.567,5.071,1.255,7.569     c0.759,2.752,1.659,5.463,2.397,8.224c0.597,2.205,0.789,4.461,1.305,6.666c0.172,0.718,0.425,1.345,1.264,1.173     c0.852-0.163,1.661-0.708,2.439-1.112C175.862,235.856,175.857,235.836,175.852,235.816z"></path>			</g>		</g>		<path style="fill:#EF5B51;" d="M176.054,160.416c2.391-0.999,8.283-2.167,9.047-2.028c1.703,0.31,3.406,1,5.111,0.694   c1.511-0.272,2.919-1.433,4.354-2.021c2.276-0.933,4.61-1.245,7.025-1.624c3.269-0.513,6.199-0.684,9.375,0.56   c0.466,0.182,0.968,0.391,1.451,0.26c1.58-0.431,1.107-4.711,0.76-5.793c-0.733-2.288-2.87-4.725-4.458-6.474   c-3.433-3.779-8.04-6.521-13.262-6.522c-5.307,0-11.225,1.459-15.215,5.356c-4.17,4.072-7.622,12.77-5.178,18.377   C174.967,160.977,175.365,160.703,176.054,160.416z"></path>		<g>			<path style="fill:#D64238;" d="M191.858,158.387c-0.389-0.071-2.108,0.198-4.018,0.611c0.79,0.149,1.58,0.225,2.371,0.083    c0.607-0.109,1.198-0.364,1.781-0.666C191.948,158.406,191.903,158.396,191.858,158.387z"></path>			<path style="opacity:0.52;fill:#FFF200;" d="M187,142.824c3.025-2.954,7.157-4.505,11.291-5.083    c-0.921-0.177-1.867-0.272-2.833-0.272c-5.307,0-11.225,1.459-15.215,5.356c-4.17,4.072-7.622,12.77-5.178,18.377    c-0.098-0.224,0.301-0.497,0.989-0.785c1.193-0.498,3.256-1.038,5.12-1.438C180.249,153.5,183.349,146.389,187,142.824z"></path>			<path style="fill:#D64238;" d="M208.842,155.366c0.7,0.149,1.405,0.349,2.124,0.631c0.466,0.182,0.968,0.391,1.451,0.26    c0.459-0.125,0.74-0.579,0.906-1.181C211.859,155.005,210.384,155.139,208.842,155.366z"></path>		</g>		<path style="fill:#FFFFFF;" d="M200.611,141.515c3.21-0.711,6.491,1.513,8.077,4.393c1.587,2.88,1.867,6.274,2.113,9.553   c-0.058-0.765-14.931,1.287-15.906,1.366C193.003,152.02,194.623,142.841,200.611,141.515z"></path>		<path style="fill:#EF5B51;" d="M191.318,159.156c-0.352-0.009-0.696-0.039-1.03-0.095c-1.059-0.178-2.094-0.986-2.16-2.058   c-0.219-3.574,9.668-5.086,11.947-5.372c5.62-0.707,11.233-0.017,16.699,1.363c1.196,0.302,2.463,0.742,3.162,1.758   c2.591,3.768-4.518,3.199-6.178,3.144c-4.743-0.155-9.479-0.173-14.219,0.096C197.015,158.136,193.938,159.225,191.318,159.156z"></path>		<path style="fill:#D64238;" d="M213.757,155.88c-4.743-0.155-9.479-0.173-14.22,0.096c-4.225,0.241-8.328,1.74-12.353,2.917   c4.254,0.022,8.171-0.711,12.354-0.901c4.74-0.27,9.476-0.251,14.219-0.096c1.618,0.053,8.402,0.593,6.356-2.863   C218.868,156.216,214.938,155.919,213.757,155.88z"></path>		<path style="fill:#D64238;" d="M179.809,294.715c9.354,2.801,19.599,2.541,28.799-0.731c3.126-1.152,4.587-2.906,6.838-5.35   c-4.527,1.442-9.283,3.125-13.941,4.043C195.614,293.836,185.693,296.477,179.809,294.715z"></path>		<path style="fill:#FF7657;" d="M254.549,279.609c-1.898-0.651-3.86-1.292-5.821-1.721c-0.494-0.108-0.889,0.649-0.367,0.87   c1.891,0.8,3.898,1.433,5.868,2.012C254.979,280.99,255.276,279.858,254.549,279.609z"></path>		<path style="fill:#FF7657;" d="M250.138,281.404c-1.771-0.751-3.769-1.164-5.64-1.589c-0.432-0.098-0.585,0.502-0.18,0.654   c1.757,0.661,3.623,1.419,5.473,1.759C250.251,282.312,250.642,281.618,250.138,281.404z"></path>	</g>	<g>		<path style="fill:#398F7C;" d="M361.348,225.951c-1.542,3.184-3.106,6.436-3.571,9.943c-0.465,3.507,0.347,7.376,2.947,9.775   c4.29,3.958,11.668,2.186,15.588-2.139c3.919-4.325,5.276-10.322,6.491-16.03c1.906-8.962,3.813-17.925,5.719-26.887   c1.03-4.844,5.632-14.181-1.923-14.053c-6.226,0.105-9.92,7.773-12.118,12.286C370.083,207.87,365.726,216.916,361.348,225.951z"></path>		<g id="POLYLINE_3_">			<path style="fill:#A8652D;" d="M363.409,229.979c-1.113-0.509-2.216-1.021-3.297-1.575c-5.153-2.639-9.845-6.034-14.907-8.819    c-3.235-1.695-6.418-3.498-9.635-5.228c-2.401-1.291-5.305-3.957-7.96-4.495c-0.557,2.036,0.366,4.052,1.555,5.656    c-4.776,0.648-9.549,1.57-14.41,2.088c-0.728,2.001,0.045,4.346,1.564,5.837c1.518,1.492,3.658,2.218,5.778,2.411    c5.523,0.502,11.356-2.015,16.754-0.113c3.612,1.273,6.546,5.282,9.33,7.866c4.028,3.745,8.042,7.402,12.317,10.856    c3.065-0.853,4.331-2.674,5.008-5.782C366.182,235.571,366.302,231.302,363.409,229.979z"></path>		</g>		<g id="POLYLINE_1_">			<path style="fill:#3D535C;" d="M409.585,401.947c1.75,3.5,8.017,15.796,3.78,18.943c-0.6,0.445-1.314,0.704-2.017,0.956    c-1.555,0.559-3.11,1.117-4.665,1.676c-9.415,3.403-17.75,4.71-27.694,5.497c-0.954,0.076-2.013,0.121-2.758-0.48    c-3.411-2.751,3.481-3.444,4.572-3.974c3.06-1.488,6.023-5.201,8.279-7.685c2.996-3.3,5.733-6.462,7.849-10.402    c1.346-2.506,0.467-2.428,2.717-3.985c0.595-0.411,8.874-2.615,8.914-2.538C408.897,400.594,409.241,401.259,409.585,401.947z"></path>		</g>		<g id="POLYLINE_9_">			<path style="fill:#59889C;" d="M370.86,288.9c0.019-0.912,0.03-1.831,0.051-2.742l29.643-25.952    c0.693,1.073,1.337,2.18,1.93,3.309c2.44,4.672,3.777,9.806,3.937,15.071c0.142,4.783-0.676,9.513-1.868,14.134    c-1.363,5.314-2.884,10.574-3.997,15.945c-1.201,5.831-2.208,11.775-3.932,17.486c-1.362,4.514-3.357,8.775-3.128,13.595    c0.094,2.02,0.295,4.163,1.017,6.064c0.724,1.912,2.037,3.533,3.256,5.142c2.972,3.931,5.749,7.896,7.77,12.414    c2.121,4.71,3.025,9.57,3.444,14.685c0.447,5.437,0.602,11.029,1.859,16.362c0.432,1.82,1.342,3.453,1.815,5.252    c0.387,1.469,0.324,3.039,0.132,4.538l-12.879,3.003c-0.577-1.359-1.032-2.779-1.259-4.238c-0.281-1.797-0.153-3.631-0.391-5.438    c-0.544-4.118-2.11-7.814-4.005-11.469c-2.217-4.282-4.423-8.567-6.355-12.992c-1.766-4.034-3.271-8.263-5.564-12.031    c-2.192-3.622-5.377-6.345-8.11-9.518c-1.65-1.918-2.846-3.971-3.115-6.516c-0.231-2.125,0.017-4.278,0.112-6.408    c0.088-1.813,0.061-3.634,0.002-5.447c-0.172-5.217-0.354-10.431-0.435-15.645c-0.175-9.954,1.36-21.053-0.236-30.748    c-1.521-9.237-3.217-17.149,4.111-24.847c6.708-7.048,18.249-8.902,26.828-4.312c0.639,1.666-0.045,3.737-1.551,4.695"></path>		</g>		<g id="POLYLINE_498_">			<path style="fill:#4A6570;" d="M394.817,408.385c0.941,3.798,4.362,17.168-0.461,19.311c-0.682,0.303-1.436,0.399-2.177,0.491    c-1.64,0.205-3.279,0.409-4.919,0.614c-8.826,1.102-17.385,1.386-26.262,1.483c-4.118,0.045-9.754-2.102-2.866-4.631    c4.711-1.729,9.313-4.307,13.41-7.187c3.646-2.564,7.009-5.05,9.937-8.43c1.862-2.15,0.987-2.267,3.524-3.293    c0.671-0.271,9.232-0.607,9.254-0.524C394.442,406.914,394.632,407.638,394.817,408.385z"></path>		</g>		<g id="POLYLINE_499_">			<path style="fill:#729CAD;" d="M388.876,260.724c5.825-3.887,17.375-5.822,23.34-0.904c6.173,5.089,2.147,12.927,0.599,20.668    c-4.168,20.838-14.135,36.894-21.274,56.13c-3.785,10.199,2.487,17.927,4.623,27.499c2.938,13.174-0.978,26.234-0.503,39.347    c0.055,1.518-0.352,3.036-0.869,4.456l-13.224,0.099c-0.264-1.452-0.396-2.937-0.297-4.412c0.121-1.815,0.649-3.576,0.814-5.391    c0.374-4.136-0.341-8.086-1.386-12.068c-2.137-8.143-3.94-17.774-6.724-26.257c-3.058-9.314-6.19-14.323-5.133-24.326    c1.669-15.788,7.38-30.651,9.881-46.243C380.409,278.814,378.78,267.461,388.876,260.724z"></path>		</g>		<path style="fill:#59889C;" d="M374.713,273.436c4.066,4.612,9.477,8.112,15.467,9.501c5.99,1.389,12.542,0.573,17.798-2.618   c1.957-1.189,3.787-2.774,4.651-4.894c0.864-2.121,0.522-4.848-1.264-6.282c-1.381-1.109-3.275-1.256-5.043-1.357   c-11.989-0.683-23.978-1.367-35.967-2.05c0.455,6.028,5.403,11.422,11.369,12.396"></path>		<path style="fill:#4D3426;" d="M380.267,175.523c4.96,2.801,11.05,0.579,16.604,0.117c1.013-0.123-0.131-5.28-0.306-5.811   c-1.496-4.544-3.038-9.18-5.918-13c-2.296-3.044-4.172-6.276-7.164-8.771c-0.778-0.649-10.492-5.874-10.529-5.193   c-0.302,5.672,0.514,11.08,1.217,16.735c0.564,4.536,0.237,10.548,3.779,14.136C378.688,174.482,379.463,175.069,380.267,175.523z   "></path>		<path style="fill:#4D3426;" d="M382.448,130.232c5.602-2.486,12.615-2.791,17.398-0.559c9.236,4.309,10.13,13.217,11.499,22.098   c0.647,4.196,5.149,17.32,1.892,20.714c-0.818,0.853-2.029,1.177-3.175,1.465c-3.258,0.819-6.516,1.637-9.774,2.456   c-2.323,0.584-4.725,1.172-7.09,0.789c-5.589-0.905-5.932-5.285-7.863-9.381c-2.264-4.806-5.995-9.027-8.319-13.905   c-2.441-5.122-5.242-12.29-1.92-17.664C376.72,133.622,379.371,131.598,382.448,130.232z"></path>		<g id="POLYLINE_496_">			<g>				<path style="fill:#48B59D;" d="M412.303,248.066c0.005,1.204,0.034,2.405,0.096,3.598c0.394,7.596,6.752,13.574-0.946,20.29     c-3.758,3.278-8.961,4.354-13.943,4.569c-14.446,0.624-36.818-3.751-30.507-21.742c2.988-8.519,4.212-19.928,3.493-28.925     c-0.377-4.722-1.36-9.391-1.528-14.125c-0.32-9.018,4.238-12.911,8.346-20.049c3.5-6.082,7.5-10.88,14.613-12.586     c3.793-0.91,8.082-0.773,11.951-0.866c3.79-0.091,6.56,1.093,9.031,3.976c3.647,4.256,1.743,8.7,1.258,14.098     c-1.088,12.09-1.137,24.241-1.383,36.368C412.682,237.751,412.28,242.947,412.303,248.066z"></path>			</g>		</g>		<path style="fill:#398F7C;" d="M398.066,217.344c0.607,2.448,2.003,4.615,3.375,6.732c4.743,7.313,9.486,14.625,14.229,21.937   c0.375-11.562-0.283-23.157-1.966-34.602c-0.412-2.802-0.925-5.698-2.539-8.027C403.511,192.341,396.472,210.92,398.066,217.344z"></path>		<g id="POLYLINE_493_">			<path style="fill:#A8652D;" d="M405.461,249.236c-0.52,1.108-1.043,2.206-1.606,3.282c-2.324,4.458-5.256,8.631-8.428,12.518    c-5.873,7.164-12.111,14.167-15.691,22.593c-0.318,0.749,3.624-0.652,3.831-0.777c1.409-0.852,2.463-3.155,3.387-4.447    c-0.806,5.441-2.949,10.294-4.815,15.452c-0.498,1.376,8.762-2.275,9.85-3.648c2.902-3.663,4.558-9.289,5.769-13.732    c0.451-1.672,0.766-3.34,1.625-4.865c2.354-4.192,6.288-7.655,9.56-11.112c3.783-3.992,7.479-7.97,10.974-12.212    c-0.824-3.073-2.632-4.357-5.734-5.063C411.08,246.516,406.812,246.355,405.461,249.236z"></path>		</g>		<g id="POLYLINE_490_">			<path style="fill:#48B59D;" d="M408.788,225.449c0.538,2.375,1.224,4.708,1.878,7.049c0.368,1.336,0.873,2.748,0.928,4.151    c0.048,1.576-1.183,3.322-1.918,4.64c-1.01,1.797-2.205,3.429-3.371,5.121c-0.488,0.699-1.924,2.446-0.55,2.936    c1.35,0.485,3.285-0.03,4.638-0.14c2.346-0.198,5.065-0.41,7.12,0.984c0.341,0.235,0.67,0.507,0.981,0.796    c0.418,0.384,1.165,1.442,1.83,1.447c0.526-0.001,0.846-0.606,1.092-0.985c0.61-0.951,1.166-1.933,1.763-2.891    c1.587-2.544,3.321-5.176,3.777-8.199c0.561-3.739-0.186-7.816-0.561-11.552c-0.468-4.625-0.894-9.262-1.748-13.834    c-0.386-2.041-0.872-4.075-0.939-6.161c-0.065-2.12,0.121-4.243,0.034-6.358c-0.149-3.503-1.127-6.782-2.753-9.889    c-1.729-3.306-4.049-6.638-7.186-8.743c-1.356-0.907-2.869-1.644-4.416-2.176c-0.837-0.288-1.881-0.621-2.768-0.403    c-1.454,0.356-1.425,2.35-1.617,3.525c-0.475,2.91-2.21,5.021-2.925,7.739c-1.332,5.064-1.121,10.021,1.162,14.636    C406.244,213.219,407.297,218.885,408.788,225.449z"></path>		</g>		<g id="POLYLINE_489_">			<path style="fill:#A8652D;" d="M376.107,166.021c0.407,1.859,1.177,2.982,2.156,3.686c3.169,2.31,8.427,0.286,9.913,4.984    c0.319,1.023,0.968,2.431,1.276,3.818c0.253,1.111,0.275,2.222-0.264,3.08c-0.253,0.396-0.726,0.803-0.616,1.32    c0.11,0.506,0.726,0.803,1.166,0.968c0.901,0.329,1.933,0.297,2.878,0.22c5.654-0.46,9.949-3.39,14.906-5.489    c-1.447-2.126-4.366-3.137-5.827-5.425c-2.418-3.789-2.561-9.371-2.04-13.703c0.422-3.504,3.385-6.475,2.128-9.951    c-0.891-2.464-3.333-1.804-4.511,0.022c-0.693,1.067-1.089,2.288-1.617,3.432c-0.341,0.737-0.748,1.672-1.694,1.287    c-3.319-1.321-1.734-7.7-3.222-10.53c-1.406-2.674-3.948-4.179-6.679-5.224c-1.65-0.627-4.511-1.65-6.194-0.572    c-1.067,0.693-1.43,2.211-1.859,3.322c-0.484,1.276-1.144,2.486-1.518,3.796C372.939,150.662,374.886,160.465,376.107,166.021z"></path>		</g>		<path style="fill:#4D3426;" d="M391.589,129.322c5.556,1.994,10.01,7.167,11.704,13.126c1.517,5.337,0.839,9.23-0.335,14.522   c-1.044-3.104-2.089-6.208-3.133-9.312c-1.35,0.304-3.192,0.224-3.615,1.687c-0.349,1.206,0.224,2.459-0.313,3.791   c-1.894-1.209-4.48-2.957-5.194-5.223c-0.648-2.053-0.721-4.664-1.032-6.795c0.239,1.649-0.801,3.583-0.815,5.272   c-1.271-0.169-2.555,0.088-3.835,0.174c-5.68,0.383-3.972-3.765-5.014-7.339c-0.07,0.546-0.504,6.548-0.609,6.551   c-2.192,0.068-4.383,0.137-6.575,0.205c-0.977-2.593-0.901-4.438,0.176-7.058c1.672-4.064,2.44-6.443,6.304-8.537   C383.56,128.079,387.827,127.972,391.589,129.322z"></path>		<path style="fill:#96431F;" d="M379.404,169.929c-0.071,0.002-0.141,0.003-0.212,0.005c1.564,1.074,3.467,1.022,5.258,1.499   c1.791,0.477,3.146,1.423,3.726,3.257c0.393,1.262,0.882,2.614,1.324,3.801c1.069-0.909,1.154-2.739,1.416-4.022   c0.246-1.2,0.375-2.419,0.401-3.644c0.075-3.553-2.993-2.13-5.286-1.746C383.866,169.443,381.605,169.873,379.404,169.929z"></path>		<path style="fill:#FFFFFF;" d="M376.96,155.737c3.121-0.431,9.945,0.516,12.598,0.92c-0.039-0.119-0.024-0.252,0.084-0.351   c1.897-1.731,3.853-3.408,5.841-5.034c0.493-0.403,1.204,0.289,0.708,0.708c-1.943,1.643-3.931,3.242-5.959,4.781   c0.266,0.042,0.415,0.067,0.415,0.067c1.693,3.512,0.772,7.953,0.111,10.199c1.901-1.059,3.686-1.83,5.212-3.531   c1.758-1.959,2.227-4.073,3.113-6.432c0.127-0.339,0.631-0.299,0.645,0.087c0.161,4.395-4.825,10.103-9.182,10.559   c-0.159,0.479-0.272,0.763-0.272,0.763s-4.822,5.66-11.081,1.461c-6.26-4.199-5.277-12.053-5.277-12.053   S373.041,156.279,376.96,155.737z"></path>		<path style="fill:#96431F;" d="M328.602,222.796c-0.422-0.994-1.342-1.841-2.031-2.666c-0.781-0.935-1.561-1.87-2.342-2.805   c-0.376-0.451-1.008,0.195-0.642,0.642c0.075,0.091,0.149,0.182,0.224,0.273c-3.087,0.062-6.311,0.754-9.292,1.385   c-0.389,0.082-0.309,0.732,0.095,0.701c3.188-0.242,6.674-0.493,9.76-1.399c0.51,0.623,1.02,1.247,1.53,1.87   c0.685,0.838,1.327,1.861,2.231,2.466C328.451,223.477,328.721,223.077,328.602,222.796z"></path>		<path style="fill:#96431F;" d="M325.65,220.841c-3.085,0.03-6.265,0.876-9.299,1.392c-0.56,0.095-0.318,0.932,0.234,0.848   c3.007-0.456,6.253-0.647,9.155-1.574C326.096,221.393,326.044,220.837,325.65,220.841z"></path>		<path style="fill:#96431F;" d="M327.261,222.669c-1.077,0.034-2.137,0.492-3.156,0.821c-1.161,0.375-2.321,0.75-3.482,1.125   c-0.54,0.174-0.315,1.019,0.236,0.855c1.168-0.348,2.336-0.695,3.504-1.043c1.025-0.305,2.169-0.525,3.075-1.106   C327.717,223.142,327.623,222.658,327.261,222.669z"></path>		<path style="fill:#96431F;" d="M389.421,287.428c-1.007,0.099-2.262,3.352-4.647,9.876c-0.14,0.384,0.459,0.623,0.653,0.275   c1.702-3.054,3.645-6.519,4.615-9.89C390.151,287.305,389.792,287.391,389.421,287.428z"></path>		<path style="fill:#96431F;" d="M392.135,288.224c-0.952,3.158-1.708,5.888-4.036,8.373c-0.364,0.389,0.205,0.963,0.586,0.586   c2.256-2.231,4.313-5.58,4.073-8.875C392.734,287.959,392.243,287.868,392.135,288.224z"></path>	</g></g></svg>