<svg id="Layer_1" enable-background="new 0 0 32 32" height="32" viewBox="0 0 32 32" width="32" xmlns="http://www.w3.org/2000/svg"><g><g><path d="m16 10.138c-1.919 0-3.479-1.561-3.479-3.479s1.56-3.48 3.479-3.48 3.479 1.561 3.479 3.479-1.56 3.48-3.479 3.48zm0-5.959c-1.367 0-2.479 1.112-2.479 2.479s1.112 2.48 2.479 2.48 2.479-1.112 2.479-2.479-1.112-2.48-2.479-2.48z"/></g><g><path d="m16 19.479c-1.919 0-3.479-1.561-3.479-3.479s1.561-3.479 3.479-3.479 3.479 1.561 3.479 3.479-1.56 3.479-3.479 3.479zm0-5.958c-1.367 0-2.479 1.112-2.479 2.479s1.112 2.479 2.479 2.479 2.479-1.112 2.479-2.479-1.112-2.479-2.479-2.479z"/></g><g><path d="m16 28.821c-1.919 0-3.479-1.561-3.479-3.479s1.561-3.479 3.479-3.479 3.479 1.561 3.479 3.479-1.56 3.479-3.479 3.479zm0-5.959c-1.367 0-2.479 1.112-2.479 2.479s1.112 2.479 2.479 2.479 2.479-1.112 2.479-2.479-1.112-2.479-2.479-2.479z"/></g></g></svg>