<svg clip-rule="evenodd" fill-rule="evenodd" stroke-linejoin="round" stroke-miterlimit="2" viewBox="0 0 96 96" xmlns="http://www.w3.org/2000/svg"><g transform="translate(-3192 -152)"><g transform="translate(2920 131)"><path d="m366 56c0-4.418-3.582-8-8-8-17.414 0-58.586 0-76 0-4.418 0-8 3.582-8 8v48c0 4.418 3.582 8 8 8h76c4.418 0 8-3.582 8-8 0-12.296 0-35.704 0-48z" fill="#9aeba3"/></g><g transform="translate(120 131)"><path d="m3166 103.023-46-31.023-46 31.023v.977c0 4.418 3.58 8 8 8h76c4.42 0 8-3.582 8-8z" fill="#81e48c"/></g><g transform="translate(120 131)"><path d="m3074 58.977 46 31.023 46-31.023v-2.977c0-4.418-3.58-8-8-8-17.41 0-58.59 0-76 0-4.42 0-8 3.582-8 8z" fill="#b9f1c0"/></g><g transform="matrix(.92 0 0 .92 2841.64 112.84)"><circle cx="433" cy="73" fill="#45c4b0" r="25"/></g><path d="m3284 188.913-31.75 21.41c-.01.012-.03.024-.05.036l-12.2 8.229-12.2-8.229c-.02-.012-.04-.024-.05-.036l-31.75-21.41v-1.913c0-3.314 2.69-6 6-6h8c1.1 0 2-.896 2-2s-.9-2-2-2h-8c-5.52 0-10 4.477-10 10v48c0 5.523 4.48 10 10 10h76c5.52 0 10-4.477 10-10 0-12.296 0-35.704 0-48 0-5.523-4.48-10-10-10-3.96 0-8.02 0-8.02 0-1.1 0-2 .896-2 2s.9 2 2 2h8.02c3.31 0 6 2.686 6 6zm-57.34 25.499-30.66 20.674c.05 3.274 2.72 5.914 6 5.914h76c3.28 0 5.95-2.64 6-5.914l-30.65-20.674-12.23 8.246c-.68.456-1.56.456-2.24 0zm30.26-2.412 27.08 18.262v-36.524zm-60.92 18.262 27.08-18.262-27.08-18.262zm44-75.262c-13.8 0-25 11.202-25 25s11.2 25 25 25 25-11.202 25-25-11.2-25-25-25zm0 4c11.59 0 21 9.41 21 21s-9.41 21-21 21-21-9.41-21-21 9.41-21 21-21zm11.59 12.586-15.59 15.586s-8.59-8.586-8.59-8.586c-.78-.781-2.04-.781-2.82 0-.78.78-.78 2.048 0 2.828l10 10c.78.781 2.04.781 2.82 0l17-17c.79-.78.79-2.048 0-2.828-.78-.781-2.04-.781-2.82 0z" fill="#012030"/></g></svg>