<svg id="Layer_1" enable-background="new 0 0 512 512" height="512" viewBox="0 0 512 512" width="512" xmlns="http://www.w3.org/2000/svg" xmlns:xlink="http://www.w3.org/1999/xlink"><linearGradient id="SVGID_1_" gradientUnits="userSpaceOnUse" x1="60.241" x2="451.759" y1="499.788" y2="108.27"><stop offset="0" stop-color="#fc4422"/><stop offset="1" stop-color="#ffbb32"/></linearGradient><path d="m431.61 115.163h-48.54c-15.71-55.376-66.729-96.058-127.07-96.058s-111.36 40.682-127.071 96.058h-48.538c-36.057 0-65.391 29.334-65.391 65.391v246.951c0 36.056 29.334 65.39 65.391 65.39h351.22c36.056 0 65.39-29.334 65.39-65.39v-246.951c-.001-36.057-29.335-65.391-65.391-65.391zm-175.61-64.058c55.173 0 100.06 44.887 100.06 100.06s-44.887 100.06-100.06 100.06-100.06-44.887-100.06-100.06 44.887-100.06 100.06-100.06zm-175.609 96.058h43.616c-.04 1.33-.066 2.663-.066 4.002 0 72.817 59.242 132.06 132.06 132.06s132.06-59.242 132.06-132.06c0-1.339-.026-2.672-.066-4.002h43.617c18.411 0 33.39 14.979 33.39 33.391v64.83l-185.151 99.175c-14.263 7.643-33.432 7.642-47.696.001l-185.155-99.176v-64.83c0-18.412 14.979-33.391 33.391-33.391zm351.219 313.732h-351.219c-18.412 0-33.391-14.979-33.391-33.39v-145.82l170.043 91.083c11.833 6.338 25.395 9.507 38.957 9.507s27.125-3.169 38.958-9.508l170.042-91.082v145.82c0 18.411-14.979 33.39-33.39 33.39zm-222.312-285.655 24.075-24.075-24.075-24.076c-6.248-6.248-6.248-16.379 0-22.627s16.379-6.248 22.627 0l24.076 24.075 24.075-24.075c6.248-6.248 16.379-6.248 22.627 0s6.248 16.379 0 22.627l-24.075 24.076 24.075 24.075c6.248 6.248 6.248 16.379 0 22.627-3.124 3.124-7.219 4.687-11.313 4.687s-8.189-1.563-11.313-4.687l-24.075-24.075-24.076 24.075c-6.248 6.248-16.379 6.248-22.627 0s-6.249-16.379-.001-22.627z" fill="url(#SVGID_1_)"/></svg>