<svg height="512pt" viewBox="0 0 512 512" width="512pt" xmlns="http://www.w3.org/2000/svg"><path d="m512 256c0 141.386719-114.613281 256-256 256s-256-114.613281-256-256 114.613281-256 256-256 256 114.613281 256 256zm0 0" fill="#ffe955"/><path d="m512 256c0 26.050781-3.890625 51.191406-11.128906 74.871094-32.011719 104.847656-129.542969 181.128906-244.871094 181.128906-104.558594 0-194.488281-62.699219-234.230469-152.550781-14-31.628907-21.769531-66.628907-21.769531-103.449219 0-46.21875 12.25-89.570312 33.679688-127 44.121093 77.070312 127.160156 129 222.320312 129s178.210938-51.929688 222.320312-129c21.429688 37.429688 33.679688 80.78125 33.679688 127zm0 0" fill="#ffd112"/><path d="m30.742188 377.703125c7.15625 13.21875 15.429687 25.738281 24.71875 37.425781 46.898437 59.019532 119.300781 96.871094 200.539062 96.871094s153.640625-37.851562 200.539062-96.871094c9.289063-11.6875 17.5625-24.207031 24.71875-37.425781zm0 0" fill="#ff9f00"/><path d="m369.648438 460.171875-18.027344 3.878906-41.082032 8.847657h-.019531l-45.847656 9.871093h-.011719l-26.609375 5.730469-57.152343 12.300781c-11.707032-3.582031-23.058594-7.992187-33.988282-13.152343-19.53125-9.207032-37.710937-20.820313-54.148437-34.4375l4.167969 19.359374c-.019532-.050781-.03125-.101562-.039063-.148437-.011719-.023437-.019531-.042969-.019531-.0625-.019532-.078125-.03125-.148437-.050782-.21875l-4.082031-18.949219-54.347656-252.5c-.101563-.453125-.179687-.890625-.25-1.339844v-.0625c-.070313-.410156-.121094-.808593-.171875-1.210937 0-.046875-.007812-.109375-.007812-.167969-.019532-.191406-.039063-.390625-.0625-.589844-.007813-.089843-.007813-.171874-.019532-.261718v-.207032c-.019531-.171874-.027344-.332031-.027344-.5-.023437-.351562-.03125-.703124-.03125-1.042968 0-.089844 0-.179688.007813-.269532v-.71875c0-.058593 0-.128906.011719-.191406-.011719-.027344-.011719-.050781 0-.078125 0-.109375.011718-.222656.019531-.332031 0-.109375.011719-.21875.03125-.328125 0-.109375.007813-.21875.019531-.332031.011719-.089844.011719-.179688.03125-.277344.007813-.089844.019532-.179688.027344-.28125 0-.011719 0-.011719 0-.019531 0-.011719.011719-.03125 0-.039063.011719-.113281.019531-.222656.042969-.339844.007812-.089843.019531-.179687.027343-.273437.019532-.097656.03125-.1875.050782-.289063.03125-.1875.058594-.367187.089844-.550781 0-.046875.011718-.097656.019531-.148437.019531-.070313.03125-.148438.039062-.21875.023438-.109375.042969-.222656.070313-.332032.019531-.148437.050781-.308593.089844-.460937.011718-.039063.023437-.066406.03125-.109375.058593-.296875.128906-.597656.210937-.890625.039063-.1875.097656-.386719.160156-.578125.050781-.171875.097657-.339844.148438-.511719.050781-.179687.109375-.359375.171875-.527343.058594-.171876.109375-.339844.167968-.5.019532-.0625.039063-.121094.070313-.179688.089844-.28125.199219-.550781.3125-.820312.039063-.121094.089844-.242188.136719-.351563.03125-.070313.0625-.128906.089844-.199219.042968-.109375.089843-.21875.140624-.320312.039063-.101563.089844-.210938.140626-.320313.121093-.257812.25-.519531.371093-.769531.410157-.820312.878907-1.628906 1.378907-2.410156.148437-.230469.300781-.449219.460937-.667969.121094-.191406.257813-.382813.398437-.570313.269532-.371093.550782-.730468.839844-1.082031.269532-.328125.542969-.660156.832032-.96875.289062-.332031.589843-.640625.898437-.949219.03125-.03125.0625-.0625.089844-.089843.628906-.632813 1.300781-1.222657 2-1.792969.050781-.027344.089843-.070312.140625-.109375.289062-.21875.582031-.449219.878906-.648437.242188-.179688.480469-.351563.722656-.5.109375-.082032.21875-.160157.328125-.230469.089844-.058594.179688-.121094.269531-.179688.019532-.011719.039063-.019531.0625-.03125.296876-.199219.617188-.378906.9375-.558593.03125-.019532.050782-.039063.082032-.050782.269531-.148437.550781-.308594.828125-.449218.101562-.050782.191406-.101563.289062-.152344.273438-.128906.542969-.257813.8125-.378906.109375-.058594.230469-.109376.339844-.160157.039063-.019531.089844-.039062.128906-.050781.160157-.070312.308594-.140625.46875-.199219.011719-.007812.03125-.019531.050781-.019531.339844-.140625.679688-.269531 1.03125-.390625.160157-.058594.328126-.121094.5-.179687.167969-.050782.339844-.109376.507813-.160157.09375-.03125.171875-.058593.261719-.078125.289062-.089844.589844-.171875.890625-.25.371093-.101562.738281-.191406 1.121093-.269531l106.488282-22.921875 35.960937-7.738281 60.300781-12.980469c.058594-.011719.117188-.03125.179688-.042969 2.878906-.597656 5.75-.847656 8.570312-.757812.347657.007812.699219.03125 1.046876.050781.453124.027344.902343.058594 1.351562.109375.191406.007813.371094.03125.550781.058594.289063.03125.578125.0625.871094.109375.238281.019531.46875.0625.699219.101562.269531.039063.539062.089844.800781.140625.21875.027344.429687.070313.636719.121094.28125.046875.5625.109375.832031.167969.238281.058594.488281.109375.730469.179687.308594.070313.609375.152344.910156.242188.046875.007812.109375.019531.160156.046875.417969.113281.839844.230468 1.25.371094.109375.03125.230469.070312.339844.109374.359375.121094.71875.242188 1.070312.371094.089844.03125.167969.058594.25.101563.410157.148437.820313.316406 1.226563.488281h.023437c1.078126.441406 2.128907.949219 3.160157 1.5.226562.121094.449219.238281.667969.371094.308593.160156.609374.339844.921874.527344.1875.121093.378907.230468.570313.351562.269531.171875.539063.339844.796875.519531.042969.019531.082031.050781.109375.070313.410156.269531.800781.550781 1.191406.832031.679688.5 1.339844 1.007813 1.980469 1.546875.179688.152344.351562.292969.511719.441406.269531.230469.539062.46875.796875.71875.160156.152344.332031.3125.492187.472656.160157.148438.320313.296876.480469.46875.1875.179688.367188.371094.546875.558594.660156.679688 1.292969 1.382813 1.882813 2.121094.289062.339844.558593.691406.828124 1.050781.25.320313.492188.648438.710938.980469.121094.160156.230469.308594.328125.46875.242187.339844.472656.691406.691406 1.050781.28125.429688.550781.871094.800781 1.320313.230469.390625.441407.777344.648438 1.179687.0625.109375.121094.230469.171875.339844.21875.410156.417969.808594.609375 1.230469.238281.527344.480469 1.058594.691406 1.609375.148438.339843.277344.691406.410156 1.039062.417969 1.121094.777344 2.269531 1.078126 3.449219.128906.460938.242187.921875.339843 1.390625.011719.039063.019531.070313.03125.109375 0 .019531.007813.03125.007813.050781l11.710937 54.390625 3.441407 15.988282v.011718l4.078124 18.941406v.007813l3.492188 16.210937v.019532l10.308594 47.898437v.023438l5.78125 26.808593 3.777344 17.558594 8.820312 41 9.132812 42.421875 1.089844 5.058594zm0 0" fill="#fff"/><path d="m369.648438 460.171875-131.597657 28.328125-4.210937-19.558594-21.570313-100.179687-32.890625-152.832031h-.007812l-14.78125-68.679688 96.261718-20.71875c.058594-.011719.117188-.03125.179688-.042969 19.398438-4.066406 38.488281 8.25 42.738281 27.621094.011719.039063.019531.070313.03125.109375 0 .019531.007813.03125.007813.050781l51.410156 238.859375 10.222656 47.480469zm0 0" fill="#e4ebf8"/><path d="m365.441406 440.609375-8.8125 1.902344-38.667968 8.316406h-.011719l-53.128907 11.441406-1.191406.261719-29.789062 6.410156-14.871094 3.199219h-.007812l-72.050782 15.507813c-19.53125-9.207032-37.710937-20.820313-54.148437-34.4375l-54.363281-252.519532c-.097657-.453125-.179688-.902344-.257813-1.339844v-.0625c-.070313-.410156-.121094-.808593-.171875-1.210937 0-.046875-.007812-.109375-.007812-.167969-.019532-.191406-.039063-.390625-.0625-.589844-.007813-.140624-.019532-.269531-.019532-.410156v-.058594c-.019531-.171874-.027344-.332031-.027344-.5-.023437-.351562-.03125-.703124-.03125-1.042968 0-.089844 0-.179688.007813-.269532v-.71875c0-.058593 0-.128906.011719-.191406-.011719-.027344-.011719-.050781 0-.078125 0-.109375.011718-.222656.019531-.332031 0-.109375.011719-.21875.03125-.328125.007813-.210937.03125-.410156.050781-.609375.007813-.089844.019532-.179688.027344-.28125 0-.011719 0-.011719 0-.019531 0-.011719.011719-.03125 0-.039063.011719-.113281.019531-.222656.042969-.339844.027343-.191406.058593-.371093.078125-.5625.03125-.1875.058594-.367187.089844-.550781 0-.046875.011718-.097656.019531-.148437.019531-.070313.03125-.148438.039062-.21875.023438-.109375.042969-.222656.070313-.332032.03125-.1875.070312-.378906.121094-.570312.058593-.296875.128906-.597656.210937-.890625.039063-.1875.097656-.386719.160156-.578125.050781-.171875.097657-.339844.148438-.511719.050781-.179687.109375-.359375.171875-.527343.058594-.171876.109375-.339844.167968-.5.019532-.0625.039063-.121094.070313-.179688.089844-.28125.199219-.550781.3125-.820312.039063-.121094.089844-.242188.136719-.351563.03125-.070313.0625-.128906.089844-.199219.042968-.109375.089843-.21875.140624-.320312.039063-.101563.089844-.210938.140626-.320313.121093-.257812.25-.519531.371093-.769531.410157-.820312.878907-1.628906 1.378907-2.410156.148437-.230469.300781-.449219.460937-.667969.121094-.191406.257813-.382813.398437-.570313.269532-.371093.550782-.730468.839844-1.082031.269532-.328125.542969-.660156.832032-.96875.289062-.332031.589843-.640625.898437-.949219.03125-.03125.0625-.0625.089844-.089843.628906-.632813 1.300781-1.222657 2-1.792969.050781-.027344.089843-.070312.140625-.109375.289062-.21875.582031-.449219.878906-.648437.242188-.179688.480469-.351563.722656-.5.109375-.082032.21875-.160157.328125-.230469.089844-.058594.179688-.121094.269531-.179688.019532-.011719.039063-.019531.0625-.03125.296876-.199219.617188-.378906.9375-.558593.03125-.019532.050782-.039063.082032-.050782.269531-.148437.550781-.308594.828125-.449218.101562-.050782.191406-.101563.289062-.152344.273438-.128906.542969-.257813.8125-.378906.109375-.058594.230469-.109376.339844-.160157.039063-.019531.089844-.039062.128906-.050781.160157-.070312.308594-.140625.46875-.199219.011719-.007812.03125-.019531.050781-.019531.339844-.140625.679688-.269531 1.03125-.390625.160157-.058594.328126-.121094.5-.179687.167969-.050782.339844-.109376.507813-.160157.09375-.03125.171875-.058593.261719-.078125.289062-.089844.589844-.171875.890625-.25.371093-.101562.738281-.191406 1.121093-.269531l106.488282-22.921875 35.960937-7.738281 60.300781-12.980469c.058594-.011719.117188-.03125.179688-.042969 2.878906-.597656 5.75-.847656 8.570312-.757812.347657.007812.699219.03125 1.046876.050781.453124.027344.902343.058594 1.351562.109375.191406.007813.371094.03125.550781.058594.289063.03125.578125.0625.871094.109375.238281.019531.46875.0625.699219.101562.269531.039063.539062.089844.800781.140625.21875.027344.429687.070313.636719.121094.28125.046875.5625.109375.832031.167969.238281.058594.488281.109375.730469.179687.308594.070313.609375.152344.910156.242188.046875.007812.109375.019531.160156.046875.417969.113281.839844.230468 1.25.371094.109375.03125.230469.070312.339844.109374.359375.121094.71875.242188 1.070312.371094.089844.03125.167969.058594.25.101563.410157.148437.820313.316406 1.226563.488281h.023437c1.078126.441406 2.128907.949219 3.160157 1.5.226562.121094.449219.238281.667969.371094.308593.160156.609374.339844.921874.527344.1875.121093.378907.230468.570313.351562.269531.171875.539063.339844.796875.519531.042969.019531.082031.050781.109375.070313.410156.269531.800781.550781 1.191406.832031.679688.5 1.339844 1.007813 1.980469 1.546875.179688.152344.351562.292969.511719.441406.269531.230469.539062.46875.796875.71875.160156.152344.332031.3125.492187.472656.160157.148438.320313.296876.480469.46875.1875.179688.367188.371094.546875.558594.660156.679688 1.292969 1.382813 1.882813 2.121094.289062.339844.558593.691406.828124 1.050781.25.320313.492188.648438.710938.980469.121094.160156.230469.308594.328125.46875.242187.339844.472656.691406.691406 1.050781.28125.429688.550781.871094.800781 1.320313.230469.390625.441407.777344.648438 1.179687.0625.109375.121094.230469.171875.339844.21875.410156.417969.808594.609375 1.230469.238281.527344.480469 1.058594.691406 1.609375.148438.339843.277344.691406.410156 1.039062.417969 1.121094.777344 2.269531 1.078126 3.449219.128906.460938.242187.921875.339843 1.390625.011719.039063.019531.070313.03125.109375 0 .019531.007813.03125.007813.050781l11.710937 54.390625 3.441407 15.988282v.011718l4.078124 18.941406v.007813l3.492188 16.210937v.019532l10.308594 47.898437v.023438l5.78125 26.808593 3.777344 17.558594 8.820312 41 9.132812 42.421875zm0 0" fill="#c7d9ff"/><path d="m355.21875 393.128906-31.46875 48.730469c-.609375.941406-1.230469 1.902344-1.859375 2.878906l-3.261719 5.042969c-.21875.347656-.449218.699219-.667968 1.046875h-.011719l-53.128907 11.441406-1.191406.261719-29.789062 6.410156-14.871094 3.199219h-.007812l-72.050782 15.507813c-19.53125-9.207032-37.710937-20.820313-54.148437-34.4375-.011719-.011719-.011719-.011719-.023438-.019532l-54.347656-252.5c-.101563-.453125-.179687-.890625-.25-1.339844v-.0625c-.070313-.410156-.121094-.808593-.171875-1.210937 0-.046875-.007812-.109375-.007812-.167969-.019532-.191406-.039063-.390625-.0625-.589844-.007813-.089843-.007813-.171874-.019532-.261718v-.207032c-.019531-.171874-.027344-.332031-.027344-.5-.023437-.351562-.03125-.703124-.03125-1.042968 0-.089844 0-.179688.007813-.269532v-.71875c0-.058593 0-.128906.011719-.191406-.011719-.027344-.011719-.050781 0-.078125 0-.109375.011718-.222656.019531-.332031 0-.109375.011719-.21875.03125-.328125 0-.109375.007813-.21875.019531-.332031.011719-.089844.011719-.179688.03125-.277344.007813-.089844.019532-.179688.027344-.28125 0-.011719 0-.011719 0-.019531 0-.011719.011719-.03125 0-.039063.011719-.113281.019531-.222656.042969-.339844.007812-.089843.019531-.179687.027343-.273437.039063-.277344.082032-.558594.140626-.839844 0-.046875.011718-.097656.019531-.148437.019531-.070313.03125-.148438.039062-.21875.023438-.109375.042969-.222656.070313-.332032.019531-.148437.050781-.308593.089844-.460937.011718-.039063.023437-.066406.03125-.109375.058593-.296875.128906-.597656.210937-.890625.039063-.1875.097656-.386719.160156-.578125.050781-.171875.097657-.339844.148438-.511719.050781-.179687.109375-.359375.171875-.527343.058594-.171876.109375-.339844.167968-.5.019532-.0625.039063-.121094.070313-.179688.089844-.28125.199219-.550781.3125-.820312.039063-.121094.089844-.242188.136719-.351563.03125-.070313.0625-.128906.089844-.199219.042968-.109375.089843-.21875.140624-.320312.039063-.101563.089844-.210938.140626-.320313.121093-.257812.25-.519531.371093-.769531.410157-.820312.878907-1.628906 1.378907-2.410156.148437-.230469.300781-.449219.460937-.667969.121094-.191406.257813-.382813.398437-.570313.269532-.371093.550782-.730468.839844-1.082031.269532-.328125.542969-.660156.832032-.96875.289062-.332031.589843-.640625.898437-.949219.03125-.03125.0625-.0625.089844-.089843.628906-.632813 1.300781-1.222657 2-1.792969.050781-.027344.089843-.070312.140625-.109375.289062-.21875.582031-.449219.878906-.648437.242188-.179688.480469-.351563.722656-.5.109375-.082032.21875-.160157.328125-.230469.089844-.058594.179688-.121094.269531-.179688.019532-.011719.039063-.019531.0625-.03125.296876-.199219.617188-.378906.9375-.558593.03125-.019532.050782-.039063.082032-.050782.269531-.148437.550781-.308594.828125-.449218.101562-.050782.191406-.101563.289062-.152344.273438-.128906.542969-.257813.8125-.378906.109375-.058594.230469-.109376.339844-.160157.039063-.019531.089844-.039062.128906-.050781.160157-.070312.308594-.140625.46875-.199219.011719-.007812.03125-.019531.050781-.019531.339844-.140625.679688-.269531 1.03125-.390625.160157-.058594.328126-.121094.5-.179687.167969-.050782.339844-.109376.507813-.160157.09375-.03125.171875-.058593.261719-.078125.289062-.089844.589844-.171875.890625-.25.371093-.101562.738281-.191406 1.121093-.269531l106.488282-22.921875 35.960937-7.738281 60.300781-12.980469c.058594-.011719.117188-.03125.179688-.042969 2.878906-.597656 5.75-.847656 8.570312-.757812.347657.007812.699219.03125 1.046876.050781.453124.027344.902343.058594 1.351562.109375.191406.007813.371094.03125.550781.058594.289063.03125.578125.0625.871094.109375.238281.019531.46875.0625.699219.101562.269531.039063.539062.089844.800781.140625.21875.027344.429687.070313.636719.121094.28125.046875.5625.109375.832031.167969.238281.058594.488281.109375.730469.179687.308594.070313.609375.152344.910156.242188.046875.007812.109375.019531.160156.046875.417969.113281.839844.230468 1.25.371094.109375.03125.230469.070312.339844.109374.359375.121094.71875.242188 1.070312.371094.089844.03125.167969.058594.25.101563.410157.148437.820313.316406 1.226563.488281h.023437c1.078126.441406 2.128907.949219 3.160157 1.5.226562.121094.449219.238281.667969.371094.308593.160156.609374.339844.921874.527344.1875.121093.378907.230468.570313.351562.269531.171875.539063.339844.796875.519531.042969.019531.082031.050781.109375.070313.410156.269531.800781.550781 1.191406.832031.679688.5 1.339844 1.007813 1.980469 1.546875.179688.152344.351562.292969.511719.441406.269531.230469.539062.46875.796875.71875.160156.152344.332031.3125.492187.472656.160157.148438.320313.296876.480469.46875.1875.179688.367188.371094.546875.558594.660156.679688 1.292969 1.382813 1.882813 2.121094.289062.339844.558593.691406.828124 1.050781.25.320313.492188.648438.710938.980469.121094.160156.230469.308594.328125.46875.242187.339844.472656.691406.691406 1.050781.28125.429688.550781.871094.800781 1.320313.230469.390625.441407.777344.648438 1.179687.0625.109375.121094.230469.171875.339844.21875.410156.417969.808594.609375 1.230469.238281.527344.480469 1.058594.691406 1.609375.148438.339843.277344.691406.410156 1.039062.417969 1.121094.777344 2.269531 1.078126 3.449219.128906.460938.242187.921875.339843 1.390625.011719.039063.019531.070313.03125.109375 0 .019531.007813.03125.007813.050781l11.710937 54.390625 3.441407 15.988282v.011718l4.078124 18.941406v.007813l3.492188 16.210937v.019532l10.308594 47.898437v.023438l5.78125 26.808593 3.777344 17.558594zm0 0" fill="#65b2ff"/><path d="m355.21875 393.128906-29.667969 45.941406c-1.179687 1.828126-2.402343 3.71875-3.660156 5.667969l-2.589844 4.011719c-.441406.679688-.890625 1.378906-1.339843 2.078125h-.011719l-84.109375 18.113281-21.570313-100.179687-32.890625-152.832031h-.007812l-14.78125-68.679688 96.261718-20.71875c.058594-.011719.117188-.03125.179688-.042969 19.398438-4.066406 38.488281 8.25 42.738281 27.621094.011719.039063.019531.070313.03125.109375 0 .019531.007813.03125.007813.050781zm0 0" fill="#0f9be8"/><path d="m307.734375 403.347656 10.21875 47.484375 37.265625-57.703125zm0 0" fill="#0066e8"/><path d="m272.238281 275.898438c-.457031-2.117188-.988281-4.1875-1.609375-6.226563-2.699218-8.941406-6.898437-17.082031-12.257812-24.210937-3.359375-4.472657-7.171875-8.53125-11.351563-12.152344-17.089843-14.777344-40.359375-22.039063-64.078125-18.058594-1.191406.199219-2.371094.421875-3.5625.679688h-.007812c-42.132813 9.082031-69.03125 50.71875-59.960938 92.859374 4.238282 19.722657 15.621094 36.101563 30.839844 47.019532 17.308594 12.421875 39.601562 17.78125 62.019531 12.953125 16.46875-3.542969 30.621094-12.070313 41.191407-23.652344 3.75-4.109375 7.050781-8.597656 9.847656-13.390625 1.652344-2.828125 3.132812-5.757812 4.421875-8.777344 6.128906-14.351562 8.039062-30.660156 4.507812-47.042968zm-35.089843-29.21875c4.441406 4 8.320312 8.660156 11.453124 13.878906.898438 1.480468 1.726563 3 2.5 4.5625 1 2.027344 1.886719 4.128906 2.667969 6.289062l-23.699219 5.109375c-.601562-2.050781-1.261718-4.070312-1.980468-6.058593-5.371094-14.871094-13.890625-28.222657-25.019532-39.3125 12.800782 1.53125 24.699219 7.050781 34.078126 15.53125zm-23.296876 33.332031-11.679687 2.507812-7.882813-36.609375c8.910157 9.730469 15.582032 21.320313 19.5625 34.101563zm-35.730468-30.621094 7.878906 36.609375-11.679688 2.519531c-1.628906-13.289062-.308593-26.597656 3.800782-39.128906zm-14.070313-9.839844c-6.339843 16.648438-8.410156 34.578125-5.949219 52.460938l-23.703124 5.097656c-1.839844-23.488281 10.011718-45.710937 29.652343-57.558594zm-9.640625 98.378907c-7.289062-6.601563-13.050781-14.980469-16.53125-24.648438l23.429688-5.050781h.011718l.257813-.058594c5.113281 17.308594 14.382813 32.796875 27.011719 45.367187-12.839844-1.527343-24.78125-7.089843-34.179688-15.609374zm23.390625-33.25 11.679688-2.507813 7.878906 36.609375c-8.898437-9.730469-15.578125-21.320312-19.558594-34.101562zm35.730469 30.621093-7.882812-36.609375 11.679687-2.519531c1.632813 13.289063.3125 26.597656-3.796875 39.128906zm14.070312 9.839844c3.1875-8.390625 5.296876-17.101563 6.289063-25.96875.988281-8.742187.878906-17.621094-.339844-26.492187l9.679688-2.078126 14.019531-3.023437c.828125 10.621094-1.128906 20.972656-5.351562 30.230469-2.5 5.492187-5.789063 10.582031-9.75 15.121094-4.148438 4.75-9.046876 8.890624-14.546876 12.210937zm0 0" fill="#fff"/><path d="m272.238281 275.898438c-.457031-2.117188-.988281-4.1875-1.609375-6.226563-2.699218-8.941406-6.898437-17.082031-12.257812-24.210937-3.359375-4.472657-7.171875-8.53125-11.351563-12.152344-17.089843-14.777344-40.359375-22.039063-64.078125-18.058594-1.191406.199219-2.371094.421875-3.5625.679688l1.632813 7.582031v.027343l31.257812 145.222657c16.46875-3.542969 30.621094-12.070313 41.191407-23.652344 3.75-4.109375 7.050781-8.597656 9.847656-13.390625 1.652344-2.828125 3.132812-5.757812 4.421875-8.777344 6.128906-14.351562 8.039062-30.660156 4.507812-47.042968zm-35.089843-29.21875c4.441406 4 8.320312 8.660156 11.453124 13.878906.898438 1.480468 1.726563 3 2.5 4.5625 1 2.027344 1.886719 4.128906 2.667969 6.289062l-23.699219 5.109375c-.601562-2.050781-1.261718-4.070312-1.980468-6.058593-5.371094-14.871094-13.890625-28.222657-25.019532-39.3125 12.800782 1.53125 24.699219 7.050781 34.078126 15.53125zm-23.296876 33.332031-11.679687 2.507812-7.882813-36.609375c8.910157 9.730469 15.582032 21.320313 19.5625 34.101563zm-.320312 55.289062-7.882812-36.609375 11.679687-2.519531c1.632813 13.289063.3125 26.597656-3.796875 39.128906zm14.070312 9.839844c3.1875-8.390625 5.296876-17.101563 6.289063-25.96875.988281-8.742187.878906-17.621094-.339844-26.492187l9.679688-2.078126 14.019531-3.023437c.828125 10.621094-1.128906 20.972656-5.351562 30.230469-2.5 5.492187-5.789063 10.582031-9.75 15.121094-4.148438 4.75-9.046876 8.890624-14.546876 12.210937zm0 0" fill="#e4ebf8"/><path d="m463.570312 197.160156c-.011718.03125-.011718.058594-.019531.078125l-57.671875 247.960938-5.109375 21.949219v.011718c-10.398437 7.140625-21.347656 13.539063-32.78125 19.101563-10.359375 5.046875-21.097656 9.417969-32.1875 13.046875l-71.128906-16.539063h-.011719l-5.441406-1.269531-23.867188-5.550781-16.382812-3.808594h-.007812l-65.832032-15.3125c-13.820312-3.21875-22.417968-17.019531-19.199218-30.839844l4.371093-18.757812c.050781-.242188.097657-.480469.160157-.730469l11.789062-50.691406 4.160156-17.878906 6.898438-29.699219h.011718l19.691407-84.691407v-.027343l1.457031-6.261719.472656-2 17.609375-75.738281.808594-3.472657c.121094-.527343.261719-1.050781.421875-1.558593.078125-.261719.160156-.511719.238281-.769531.261719-.800782.570313-1.582032.902344-2.332032.089844-.207031.179687-.398437.277344-.597656.402343-.859375.859375-1.679688 1.351562-2.480469.160157-.261719.328125-.519531.5-.769531.300781-.441406.597657-.871094.917969-1.28125.140625-.191406.292969-.371094.421875-.539062.628906-.769532 1.300781-1.5 2-2.191407.25-.25.507813-.488281.78125-.730469 1.378906-1.25 2.886719-2.339843 4.507813-3.257812.289062-.171875.589843-.332031.898437-.492188.351563-.179687.703125-.359374 1.070313-.519531.53125-.25 1.082031-.480469 1.640624-.691406.210938-.078125.410157-.15625.621094-.226563.328125-.121093.667969-.230468 1.011719-.332031.167969-.050781.339844-.109375.507813-.148437 1.210937-.339844 2.460937-.601563 3.730468-.761719.320313-.039063.640625-.070313.960938-.097656.367187-.03125.738281-.0625 1.117187-.070313.363281-.019531.730469-.03125 1.101563-.03125 1.929687 0 3.898437.21875 5.859375.679688l38.449219 8.941406 11.691406 2.71875h.011718l55.949219 13.011719 105.878907 24.628906c13.910156 3.230469 22.570312 17.109375 19.390624 31.019531zm0 0" fill="#fff"/><path d="m463.570312 197.160156c-.011718.03125-.011718.058594-.019531.078125l-57.671875 247.960938-5.109375 21.949219v.011718c-10.398437 7.140625-21.347656 13.539063-32.78125 19.101563-10.359375 5.046875-21.097656 9.417969-32.1875 13.046875l-71.128906-16.539063h-.011719l-5.441406-1.269531 4.410156-18.96875.121094-.511719 23.21875-99.808593 31.992188-137.550782v-.011718l3.417968-14.707032 15.921875-68.429687 105.878907 24.628906c13.910156 3.230469 22.570312 17.109375 19.390624 31.019531zm0 0" fill="#e4ebf8"/><path d="m463.570312 197.160156c-.011718.03125-.011718.058594-.019531.078125l-57.671875 247.960938-5.109375 21.949219v.011718c-10.398437 7.140625-21.347656 13.539063-32.78125 19.101563l-20.410156-4.75h-.019531l-37.027344-8.613281h-.011719l-45.699219-10.628907-1.070312-.25-33.058594-7.691406-73.03125-16.988281c-.738281-.167969-1.46875-.371094-2.179687-.609375-1.058594-.339844-2.089844-.761719-3.082031-1.230469-.660157-.308594-1.296876-.648438-1.929688-1.019531-.617188-.371094-1.230469-.761719-1.808594-1.171875-.589844-.410156-1.148437-.847656-1.699218-1.308594-.820313-.679688-1.589844-1.421875-2.3125-2.199219-.617188-.660156-1.199219-1.359375-1.738282-2.089843-.390625-.511719-.75-1.039063-1.089844-1.582032-.5-.777344-.949218-1.578125-1.359374-2.398437-.160157-.320313-.3125-.640625-.460938-.96875-.28125-.640625-.539062-1.300781-.769531-1.960938-1.242188-3.53125-1.71875-7.371093-1.289063-11.261719 0-.039062 0-.070312.007813-.097656.050781-.441406.121093-.882812.191406-1.332031.050781-.289063.097656-.578125.160156-.878906.050781-.242188.097657-.480469.160157-.730469l11.789062-50.691406 4.160156-17.878906 6.898438-29.699219h.011718l19.691407-84.691407v-.027343l1.457031-6.261719.472656-2 17.609375-75.738281.808594-3.472657c.121094-.527343.261719-1.050781.421875-1.558593.078125-.261719.160156-.511719.238281-.769531.261719-.800782.570313-1.582032.902344-2.332032.089844-.207031.179687-.398437.277344-.597656.402343-.859375.859375-1.679688 1.351562-2.480469.160157-.261719.328125-.519531.5-.769531.300781-.441406.597657-.871094.917969-1.28125.140625-.191406.292969-.371094.421875-.539062.628906-.769532 1.300781-1.5 2-2.191407.25-.25.507813-.488281.78125-.730469 1.378906-1.25 2.886719-2.339843 4.507813-3.257812.289062-.171875.589843-.332031.898437-.492188.351563-.179687.703125-.359374 1.070313-.519531.53125-.25 1.082031-.480469 1.640624-.691406.210938-.078125.410157-.15625.621094-.226563.328125-.121093.667969-.230468 1.011719-.332031.167969-.050781.339844-.109375.507813-.148437 1.210937-.339844 2.460937-.601563 3.730468-.761719.320313-.039063.640625-.070313.960938-.097656.367187-.03125.738281-.0625 1.117187-.070313.363281-.019531.730469-.03125 1.101563-.03125 1.929687 0 3.898437.21875 5.859375.679688l38.449219 8.941406 11.691406 2.71875h.011718l55.949219 13.011719 105.878907 24.628906c13.910156 3.230469 22.570312 17.109375 19.390624 31.019531zm0 0" fill="#c7d9ff"/><path d="m463.566406 197.160156c-.003906.023438-.007812.058594-.015625.082032l-57.671875 247.957031c-22.773437 14.183593-35.554687 22.132812-58.3125 36.3125l-83.8125-19.488281-106.097656-24.6875c-13.8125-3.203126-22.414062-17.015626-19.199219-30.835938l62.898438-270.460938c.660156-2.816406 1.757812-5.417968 3.195312-7.738281.160157-.257812.328125-.519531.5-.773437 5.785157-8.597656 16.457031-13.183594 27.144531-10.6875l106.101563 24.671875 105.882813 24.628906c13.914062 3.226563 22.574218 17.105469 19.386718 31.019531zm0 0" fill="#ff3445"/><path d="m463.566406 197.160156c-.003906.023438-.007812.058594-.015625.082032l-57.671875 247.957031c-22.773437 14.183593-35.554687 22.132812-58.304687 36.3125h-.011719l-83.808594-19.488281 74.542969-320.511719 105.882813 24.628906c13.914062 3.226563 22.574218 17.105469 19.386718 31.019531zm0 0" fill="#dd1265"/><path d="m358.5625 434.199219-11 47.308593 58.308594-36.304687zm0 0" fill="#ba0d5c"/><path d="m322.378906 209.941406c-2.289062-.53125-4.578125-.960937-6.859375-1.28125-26.089843-3.671875-51.53125 6.167969-68.5 24.648438-3.71875 4.0625-7.039062 8.53125-9.871093 13.371094-3.847657 6.601562-6.789063 13.871093-8.609376 21.691406-.160156.699218-.308593 1.398437-.449218 2.089844-3.480469 17.027343-1.101563 33.988281 5.800781 48.710937 2.28125 4.859375 5.050781 9.46875 8.257813 13.757813 3.3125 4.429687 7.101562 8.519531 11.3125 12.179687 9.308593 8.101563 20.667968 14.109375 33.507812 17.101563 21.171875 4.917968 42.371094.699218 59.429688-10.082032 16.78125-10.597656 29.570312-27.527344 34.410156-48.347656 9.761718-41.980469-16.4375-84.070312-58.429688-93.839844zm.699219 33.480469c1.660156 5.359375 2.8125 10.839844 3.453125 16.398437v.019532c.859375 7.511718.769531 15.148437-.292969 22.761718l-11.636719-2.703124 8.4375-36.289063v-.007813zm-16.097656-3.75-8.492188 36.476563-11.636719-2.707032c4.1875-12.710937 11.058594-24.179687 20.128907-33.769531zm-8.539063-14.902344c-12.832031 12.359375-22.351562 27.699219-27.75 44.910157l-.0625-.007813-19.527344-4.550781-4.023437-.929688c.472656-1.230468.972656-2.441406 1.523437-3.632812 2.527344-5.570313 5.839844-10.636719 9.769532-15.097656 10.1875-11.589844 24.519531-19.089844 40.070312-20.691407zm-35.132812 106.949219c-4.480469-4.070312-8.320313-8.757812-11.410156-13.910156-4.910157-8.167969-7.949219-17.46875-8.667969-27.207032-.261719-3.390624-.230469-6.832031.097656-10.300781l23.621094 5.488281c-1.929688 12.472657-1.640625 25.011719.78125 37.152344 1.039062 5.21875 2.480469 10.367188 4.300781 15.398438-3.121094-1.960938-6.03125-4.167969-8.722656-6.621094zm22.953125-2.988281c-3.902344-12.601563-5-25.929688-3.152344-39.179688l11.640625 2.710938zm16.109375 3.75 8.480468-36.480469 11.636719 2.710938c-4.1875 12.710937-11.046875 24.1875-20.117187 33.769531zm40.25 2.089843c-9.0625 7.089844-20.050782 11.609376-31.722656 12.808594 11.511718-11.070312 20.351562-24.550781 25.941406-39.617187v-.023438c.648437-1.738281 1.25-3.488281 1.808594-5.269531l23.621093 5.492188c-4.070312 10.769531-10.980469 19.847656-19.648437 26.609374zm23.390625-42.71875-23.613281-5.492187c2.761718-17.828125.980468-35.800781-5.078126-52.550781 19.441407 12.179687 30.917969 34.589844 28.691407 58.042968zm0 0" fill="#fff"/><path d="m322.378906 209.941406-3.417968 14.707032v.011718l-31.992188 137.550782c21.171875 4.917968 42.371094.699218 59.429688-10.082032 16.78125-10.597656 29.570312-27.527344 34.410156-48.347656 9.761718-41.980469-16.4375-84.070312-58.429688-93.839844zm.660156 33.667969v-.007813l.039063-.179687c1.660156 5.359375 2.8125 10.839844 3.453125 16.398437v.019532c.859375 7.511718.769531 15.148437-.292969 22.761718l-11.636719-2.703124zm-20.667968 88.871094 8.480468-36.480469 11.636719 2.710938c-4.1875 12.710937-11.046875 24.1875-20.117187 33.769531zm40.25 2.089843c-9.0625 7.089844-20.050782 11.609376-31.722656 12.808594 11.511718-11.070312 20.351562-24.550781 25.941406-39.617187v-.023438c.648437-1.738281 1.25-3.488281 1.808594-5.269531l23.621093 5.492188c-4.070312 10.769531-10.980469 19.847656-19.648437 26.609374zm23.390625-42.71875-23.613281-5.492187c2.761718-17.828125.980468-35.800781-5.078126-52.550781 19.441407 12.179687 30.917969 34.589844 28.691407 58.042968zm0 0" fill="#e4ebf8"/></svg>