<svg id="Layer_1" enable-background="new 0 0 256 256" height="512" viewBox="0 0 256 256" width="512" xmlns="http://www.w3.org/2000/svg"><g><g><path d="m196.818 248h-171.636c-4.82 0-8.727-3.907-8.727-8.727v-222.546c0-4.82 3.907-8.727 8.727-8.727h171.636c4.82 0 8.727 3.907 8.727 8.727v222.545c0 4.821-3.907 8.728-8.727 8.728z" fill="#e0ebfc"/></g><g><path d="m196.818 250h-171.636c-5.915 0-10.728-4.812-10.728-10.727v-222.546c0-5.915 4.813-10.727 10.728-10.727h171.637c5.915 0 10.728 4.812 10.728 10.727v222.546c-.001 5.915-4.814 10.727-10.729 10.727zm-171.636-240c-3.71 0-6.728 3.018-6.728 6.727v222.546c0 3.709 3.018 6.727 6.728 6.727h171.637c3.71 0 6.728-3.018 6.728-6.727v-222.546c0-3.709-3.018-6.727-6.728-6.727z" fill="#3762cc"/></g><g><path d="m181.768 129.17h-138.551c-3.213 0-5.818-2.605-5.818-5.818 0-3.213 2.605-5.818 5.818-5.818h138.55c3.213 0 5.818 2.605 5.818 5.818.001 3.213-2.604 5.818-5.817 5.818z" fill="#a4c9ff"/></g><g><path d="m181.768 161.17h-138.551c-3.213 0-5.818-2.605-5.818-5.818 0-3.213 2.605-5.818 5.818-5.818h138.55c3.213 0 5.818 2.605 5.818 5.818.001 3.213-2.604 5.818-5.817 5.818z" fill="#a4c9ff"/></g><g><path d="m181.768 193.17h-138.551c-3.213 0-5.818-2.605-5.818-5.818 0-3.213 2.605-5.818 5.818-5.818h138.55c3.213 0 5.818 2.605 5.818 5.818.001 3.213-2.604 5.818-5.817 5.818z" fill="#a4c9ff"/></g><g><path d="m181.768 225.17h-138.551c-3.213 0-5.818-2.605-5.818-5.818 0-3.213 2.605-5.818 5.818-5.818h138.55c3.213 0 5.818 2.605 5.818 5.818.001 3.213-2.604 5.818-5.817 5.818z" fill="#a4c9ff"/></g><g><circle cx="189.545" cy="186.051" fill="#6bdddd" r="50"/></g><g><path d="m189.546 223.139c-20.45 0-37.089-16.638-37.089-37.088s16.638-37.088 37.089-37.088 37.087 16.637 37.087 37.088-16.637 37.088-37.087 37.088z" fill="#ffea92"/></g><g><path d="m189.546 238.051c-28.673 0-52-23.327-52-52s23.327-52 52-52 52 23.327 52 52-23.327 52-52 52zm0-100c-26.468 0-48 21.533-48 48s21.532 48 48 48 48-21.533 48-48-21.532-48-48-48z" fill="#3762cc"/></g><g><path d="m214.05 184.17c-1.657 0-3 1.343-3 3v7.733c0 .551-.448 1-1 1h-32.547v-4.957c0-.855-.933-1.383-1.666-.943l-13.262 7.957c-.712.427-.712 1.459 0 1.886l13.262 7.957c.733.44 1.666-.088 1.666-.943v-4.957h32.547c3.859 0 7-3.14 7-7v-7.733c0-1.656-1.343-3-3-3z" fill="#4671c6"/></g><g><path d="m216.516 172.619-13.262-7.957c-.733-.44-1.666.088-1.666.943v4.957h-32.548c-3.859 0-7 3.14-7 7v7.733c0 1.657 1.343 3 3 3s3-1.343 3-3v-7.733c0-.551.448-1 1-1h32.547v4.957c0 .855.933 1.383 1.666.943l13.262-7.957c.713-.426.713-1.458.001-1.886z" fill="#f9a7a7"/></g><g><path d="m184.187 96.742c0-12.626 0-22.363 0-33.568l-3.252 1.249v32.318c-1.157.593-1.951 1.795-1.951 3.184v8.565h7.155v-8.565c-.001-1.389-.795-2.591-1.952-3.183z" fill="#ffea92"/></g><g><path d="m108.033 31.616-67.735 26.02c-2.527.971-2.527 4.545 0 5.516l67.735 26.021c2.728 1.048 5.748 1.048 8.476 0l67.735-26.021c2.527-.971 2.527-4.545 0-5.516l-67.735-26.021c-2.729-1.047-5.748-1.047-8.476.001z" fill="#4671c6"/></g><g><path d="m112.271 91.96c-1.679 0-3.357-.307-4.955-.92l-67.735-26.02c-1.931-.742-3.178-2.557-3.178-4.625s1.247-3.884 3.177-4.625l67.735-26.021c3.195-1.227 6.715-1.227 9.91 0l67.734 26.021c1.931.742 3.178 2.557 3.178 4.625s-1.247 3.883-3.177 4.625l-67.734 26.02c-1.598.613-3.277.92-4.955.92zm-3.522-58.477-67.734 26.02c-.552.212-.611.694-.611.891s.06.679.612.891l67.733 26.02c2.272.872 4.772.871 7.043 0l67.734-26.021c.552-.212.611-.694.611-.891s-.06-.679-.612-.891l-67.733-26.021c-2.272-.871-4.772-.87-7.043.002z" fill="#3762cc"/></g><g><path d="m153.919 64.936h-83.016c-.759 0-1.375.615-1.375 1.375v20.497c0 4.524 19.199 8.192 42.882 8.192s42.882-3.668 42.882-8.192h.001v-20.498c.001-.759-.615-1.374-1.374-1.374z" fill="#4671c6"/></g><g><path d="m112.41 97c-1.833 0-44.882-.116-44.882-10.192v-20.497c0-1.861 1.514-3.375 3.374-3.375h83.017c1.861 0 3.375 1.514 3.375 3.375v20.497c-.002 10.076-43.051 10.192-44.884 10.192zm-40.882-10.265c1.104 2.268 15.573 6.265 40.882 6.265s39.778-3.996 40.883-6.265l.001-19.799h-81.766zm82.391-19.799h.01z" fill="#3762cc"/></g></g></svg>