<svg id="Layer_2" viewBox="0 0 512 512" xmlns="http://www.w3.org/2000/svg" data-name="Layer 2"><g id="Icon"><g id="_85" data-name="85"><rect id="Background" fill="#0098ff" height="512" rx="256" width="512"/><path d="m267.96 85.41 56.21 63.23c4.59 5.16.92 13.31-5.98 13.31h-32.19s0 164 0 164c0 8.84-7.16 16-16 16h-28c-8.84 0-16-7.16-16-16v-163.99s-32.19 0-32.19 0c-6.9 0-10.57-8.16-5.98-13.31l56.21-63.23c6.36-7.16 17.55-7.16 23.92 0zm-155.96 346.55h288c8.84 0 16-7.16 16-16v-208c0-8.84-7.16-16-16-16h-68c-8.84 0-16 7.16-16 16v28c0 8.84 7.16 16 16 16h24v120h-200v-120h24c8.84 0 16-7.16 16-16v-28c0-8.84-7.16-16-16-16h-68c-8.84 0-16 7.16-16 16v208c0 8.84 7.16 16 16 16z" fill="#fff"/></g></g></svg>