<svg id="Layer_1" enable-background="new 0 0 4000 4000" height="4000" viewBox="0 0 4000 4000" width="4000" xmlns="http://www.w3.org/2000/svg"><g clip-rule="evenodd"><path d="m0 0h3999.999v3999.994h-3999.999z" fill="#fff" fill-rule="evenodd"/><g><path d="m2000 2453.043c478.016 0 867.881-389.859 867.881-867.865s-389.865-867.866-867.881-867.866c-477.995 0-867.86 389.86-867.86 867.866s389.865 867.865 867.86 867.865z" fill="#9ff" fill-rule="evenodd"/><path d="m2000 1585.178c375.694 0 694.314 244.113 806.055 582.352 14.095-1.069 28.342-1.606 42.708-1.606 308.388 0 558.388 249.995 558.388 558.377 0 308.398-250 558.388-558.388 558.388h-524.881v-524.881h234.517l-558.399-580.731-558.409 580.729h234.527v524.881c-221.408 0-308.734 0-524.87 0-308.388 0-558.387-249.989-558.387-558.388 0-308.382 250-558.377 558.387-558.377 14.366 0 28.613.537 42.708 1.606 111.73-338.237 430.36-582.35 806.044-582.35z" style="fill:none;stroke:#000;stroke-linecap:round;stroke-linejoin:round;stroke-miterlimit:2.613;stroke-width:140"/></g></g></svg>