<svg id="Layer_1" height="512" viewBox="0 0 512 512" width="512" xmlns="http://www.w3.org/2000/svg" xmlns:xlink="http://www.w3.org/1999/xlink" data-name="Layer 1"><linearGradient id="GradientFill_1" gradientUnits="userSpaceOnUse" x1="256.001" x2="256.002" y1="512.503" y2=".505"><stop offset="0" stop-color="#6c54a3"/><stop offset="1" stop-color="#00b1d2"/></linearGradient><path d="m256 .505c141.381 0 256 114.587 256 255.963s-114.619 256.032-256 256.032-256-114.656-256-256.032 114.621-255.963 256-255.963zm-22.456 139.537v22.458a22.459 22.459 0 1 0 44.918 0v-22.458zm184.956 225.745v-184.728c0-3.885-4.034-7.169-8.809-7.169h-122.407a33.3 33.3 0 0 1 -62.572 0h-122.412c-4.775 0-8.8 3.284-8.8 7.169v184.728c0 3.889 4.028 7.179 8.8 7.179h307.392c4.775 0 8.809-3.29 8.809-7.179zm-241.732-60.511a52.548 52.548 0 1 0 -52.547-52.547 52.609 52.609 0 0 0 52.547 52.547zm-20.82-16.426a41.586 41.586 0 0 0 41.058.34v-5.424a20.584 20.584 0 0 0 -5.951-14.414l-9.884 17.123a5.419 5.419 0 0 1 -9.385 0l-9.886-17.123a20.558 20.558 0 0 0 -5.951 14.414v5.084zm20.531-39.316a10.91 10.91 0 1 0 -10.908-10.908 10.923 10.923 0 0 0 10.908 10.908zm0 10.831a21.685 21.685 0 0 1 -8.18-1.6l8.18 14.169 8.18-14.169a21.712 21.712 0 0 1 -8.18 1.6zm.289-49.352a41.683 41.683 0 0 0 -31.429 69.1 31.563 31.563 0 0 1 15.451-23.483 5.416 5.416 0 0 1 2.512-.735 21.744 21.744 0 1 1 26.351 0 5.313 5.313 0 0 1 2.5.735 31.546 31.546 0 0 1 15.521 24.088 41.693 41.693 0 0 0 -30.911-69.705zm227.068 135.98a5.42 5.42 0 0 0 -5.417-5.418h-274.6a5.418 5.418 0 0 0 0 10.835h274.6a5.416 5.416 0 0 0 5.417-5.417zm0-47.134a5.42 5.42 0 0 0 -5.417-5.417h-152.175a5.417 5.417 0 1 0 0 10.834h152.175a5.413 5.413 0 0 0 5.417-5.417zm0-94.261a5.418 5.418 0 0 0 -5.417-5.417h-152.175a5.416 5.416 0 1 0 0 10.832h152.175a5.414 5.414 0 0 0 5.417-5.415zm0 47.131a5.42 5.42 0 0 0 -5.417-5.417h-152.175a5.417 5.417 0 0 0 0 10.834h152.175a5.416 5.416 0 0 0 5.417-5.417zm-147.836-76.181a14.049 14.049 0 1 0 -14.048-14.048 14.066 14.066 0 0 0 14.048 14.048zm0-17.263a3.216 3.216 0 1 0 3.217 3.215 3.218 3.218 0 0 0 -3.217-3.215z" fill="url(#GradientFill_1)" fill-rule="evenodd"/></svg>