<svg id="Layer_1" enable-background="new 0 0 68 68" height="512" viewBox="0 0 68 68" width="512" xmlns="http://www.w3.org/2000/svg"><g><g><g><g><circle cx="34" cy="34" fill="#0fe1c2" r="32"/></g></g><g><g><path d="m62.206646 18.8800049c-6.709961 8.0599975-16.8599854 13.1900024-28.209961 13.1900024-11.3500385 0-21.5-5.1300049-28.2100239-13.2000122 5.4000254-10.040039 16.0100098-16.8699951 28.2100239-16.8699951s22.8200074 6.8399658 28.209961 16.8800049z" fill="#66fade"/></g></g><g><g><path d="m50.9707108 13.4425774v38.7503395c0 .5723228-.4682693 1.0405922-1.0405922 1.0405922h-31.8602353c-.5723267 0-1.0405922-.4682693-1.0405922-1.0405922v-38.7503395c0-.5723257.4682655-1.0405922 1.0405922-1.0405922h31.8602352c.5723229 0 1.0405923.4682665 1.0405923 1.0405922z" fill="#9c68e1"/></g></g><g><g><path d="m48.1337204 15.5362787v34.563652c0 .2437744-.1963501.4401245-.4401474.4401245h-27.3895283c-.2403641 0-.4401455-.1963501-.4401455-.4401245v-34.563652c0-.2437744.1997814-.4401455.4401455-.4401455h27.3895283c.2437973 0 .4401474.1963711.4401474.4401455z" fill="#fff"/></g></g><g><g><g><path d="m41.7154465 11.6786585v4.1412153c0 .35919-.2911797.6503696-.6503716.6503696h-14.1325321c-.3591881 0-.6503696-.2911797-.6503696-.6503696v-4.1412153c0-.35919.2911816-.6503706.6503696-.6503706h4.0323048l-.0000019-.4552917c-.0000019-1.6022902 1.2027493-2.999774 2.8005619-3.1194768.9267731-.0694308 1.7793083.2786641 2.3796539.8789907.5495453.5495644.8877525 1.3105059.8877525 2.1462145v.5495634h4.0322609c.3591919-.0000001.6503716.2911805.6503716.6503705z" fill="#313b5a"/></g></g><g><g><path d="m34.9385986 10.1698141c0 .5170336-.4227142.9365349-.9397888.9365349-.5170326 0-.9365349-.4195013-.9365349-.9365349 0-.5170527.4195023-.9365349.9365349-.9365349.5170746 0 .9397888.4194823.9397888.9365349z" fill="#fff"/></g></g></g><g opacity=".1"><g><path d="m53.7916679 56.8195457c0 .7092209-8.8626289 1.2845345-19.7916679 1.2845345s-19.791667-.5753136-19.791667-1.2845345c0-.7092705 8.8626299-1.2766495 19.7916679-1.2766495s19.791667.5673791 19.791667 1.2766495z"/></g></g></g><g><g><g><g><path d="m42.8449211 22.9773235h-.930336v2.1799374c0 2.5753403-2.0869026 4.66436-4.66436 4.66436h-6.2480106c-2.0572987 0-3.7234402 1.6661282-3.7234402 3.7234383v2.8015709c0 .2600632-.2114391.4693871-.469389.4693871-.2600651 0-.4715042-.2093239-.4715042-.4693871v-2.8015709c0-2.5753269 2.0889931-4.6643467 4.6643333-4.6643467h6.2480106c2.0573006 0 3.7255821-1.6661396 3.7255821-3.7234516v-2.1799374h-1.0910339c-.1015129 0-.1649284-.1120567-.109951-.1987534l1.4779587-2.3850269c.0507431-.0824642.1712494-.0824642.2241096 0l1.4779587 2.3850269c.0549775.0866967-.0084419.1987534-.1099281.1987534z" fill="#8fc8f5"/></g></g></g><g><g><g><g><path d="m34.1268005 26.427927c-1.1362801 0-2.0609016-.9246197-2.0609016-2.0615559 0-1.1428318.9246216-2.0726948 2.0609016-2.0726948s2.0608978.929863 2.0608978 2.0726948c.0000001 1.1369362-.9246177 2.0615559-2.0608978 2.0615559zm0-3.1945591c-.6185989 0-1.1212082.5085087-1.1212082 1.1330032 0 .6290836.4921265 1.1218643 1.1212082 1.1218643s1.1212082-.4927807 1.1212082-1.1218643c0-.6244945-.502613-1.1330032-1.1212082-1.1330032z" fill="#b5e237"/></g></g></g><g><g><g><path d="m34.1268005 36.289444c-1.1362801 0-2.0609016-.9246178-2.0609016-2.0608978 0-1.1428337.9246216-2.0726967 2.0609016-2.0726967s2.0608978.929863 2.0608978 2.0726967c.0000001 1.13628-.9246177 2.0608978-2.0608978 2.0608978zm0-3.1939011c-.6185989 0-1.1212082.5085068-1.1212082 1.1330032 0 .6290817.4921265 1.1212082 1.1212082 1.1212082s1.1212082-.4921265 1.1212082-1.1212082c0-.6244964-.502613-1.1330032-1.1212082-1.1330032z" fill="#0f9be8"/></g></g></g></g><g><g><g><g><g><path d="m42.8733101 35.6069794c.1799927.1799927.1799927.4799805 0 .6600342-.0899658.0999756-.2099609.1399536-.3299561.1399536s-.25-.039978-.3400269-.1399536l-1.289978-1.2900391-1.2999878 1.2900391c-.0900269.0999756-.210022.1399536-.3300171.1399536s-.2399902-.039978-.3300171-.1399536c-.1799927-.1800537-.1799927-.4800415 0-.6600342l1.2999878-1.289978-1.2999878-1.2999878c-.1799927-.1800537-.1799927-.4800415 0-.6600342.1799927-.1900024.4799805-.1900024.6600342 0l1.2999878 1.289978 1.289978-1.289978c.1900024-.1900024.4799805-.1900024.6699829 0 .1799927.1799927.1799927.4799805 0 .6600342l-1.2999878 1.2999878z" fill="#fed110"/></g></g></g></g><g><g><g><g><path d="m28.7153816 26.4875584c-.1199188 0-.2404919-.0458698-.3322334-.1376114l-3.2541904-3.2541904c-.1834831-.1834831-.1834831-.4809856 0-.6644688.1834831-.1834812.4809856-.1834812.6644688 0l3.2541885 3.2541904c.1834831.1834831.1834831.4809856 0 .6644688-.0917397.0917415-.2123147.1376114-.3322335.1376114z" fill="#ff3445"/></g></g></g><g><g><g><path d="m25.4611912 26.4875584c-.1199188 0-.2404919-.0458698-.3322334-.1376114-.1834831-.1834831-.1834831-.4809856 0-.6644688l3.2541904-3.2541904c.1834812-.1834812.4809856-.1834812.6644669 0 .1834831.1834831.1834831.4809856 0 .6644688l-3.2541885 3.2541904c-.0917416.0917415-.2123166.1376114-.3322354.1376114z" fill="#ff3445"/></g></g></g></g></g></g><g><g><g><path d="m44.7787476 40.7099533c0 .240078-.1954384.4355164-.4355164.4355164h-20.6864967c-.2400799 0-.435482-.1954384-.435482-.4355164s.1954021-.435482.435482-.435482h20.6864967c.240078 0 .4355164.195404.4355164.435482z" fill="#313b5a"/></g></g><g><g><path d="m44.7787476 44.0644836c0 .240078-.1954384.4355164-.4355164.4355164h-20.6864967c-.2400799 0-.435482-.1954384-.435482-.4355164s.1954021-.435482.435482-.435482h20.6864967c.240078 0 .4355164.1954041.4355164.435482z" fill="#313b5a"/></g></g><g><g><path d="m44.7787476 47.419014c0 .2400818-.1954384.4355164-.4355164.4355164h-20.6864967c-.2400799 0-.435482-.1954346-.435482-.4355164 0-.240078.1954021-.435482.435482-.435482h20.6864967c.240078 0 .4355164.195404.4355164.435482z" fill="#313b5a"/></g></g></g></g></svg>