<svg clip-rule="evenodd" fill-rule="evenodd" height="512" image-rendering="optimizeQuality" shape-rendering="geometricPrecision" text-rendering="geometricPrecision" viewBox="0 0 3000 3000" width="512" xmlns="http://www.w3.org/2000/svg" xmlns:xlink="http://www.w3.org/1999/xlink"><linearGradient id="id0" gradientUnits="userSpaceOnUse" x1="-48" x2="3047.99" y1="984" y2="2015.99"><stop offset="0" stop-color="#08469a"/><stop offset="1" stop-color="#25a4c3"/></linearGradient><g id="Layer_x0020_1"><circle cx="1500" cy="1500" fill="url(#id0)" r="1500"/><path d="m1890 2253c0 54-43 100-97 100h-908c-54 0-97-46-97-100v-1232c0-54 43-100 97-100h206l53-200c15-52 68-85 120-71l877 235c52 14 82 69 68 122l-319 1189zm-801-301c-27 0-27-40 0-40h500c27 0 27 40 0 40zm-191 130c-26 0-26-40 0-40h882c26 0 26 40 0 40zm0 131c-26 0-26-40 0-40h882c26 0 26 40 0 40zm755-714c-47 32-117 51-179 60-10 62-28 133-60 180 118-28 211-121 239-240zm-220 66c-61 6-127 6-188 0 10 56 42 182 94 182s84-126 94-182zm-229-6c-62-9-132-28-179-60 28 119 121 212 239 240-32-47-50-118-60-180zm-179-209c47-33 117-51 179-60 10-63 28-133 60-180-118 28-211 121-239 240zm220-66c61-6 127-6 188 0-10-56-42-182-94-182s-84 126-94 182zm229 6c62 9 132 27 179 60-28-119-121-212-239-240 32 47 50 117 60 180zm101 204c116-42 116-97 0-139-28-10-60-18-96-24 6 61 6 126 0 187 36-6 68-14 96-24zm-137-169c-64-7-134-7-198 0-8 65-8 134 0 199 64 7 134 7 198 0 7-65 7-134 0-199zm-239 6c-57 9-183 42-183 93 0 52 126 85 183 94-6-61-6-126 0-187zm140-269c322 0 485 391 257 619s-620 66-620-257c0-200 163-362 363-362zm-207-141h661c54 0 97 46 97 100v1021l280-1045c9-32-8-65-40-74l-876-235c-24-8-61 8-71 44zm701 1375c11-11 17-26 17-43v-1232c0-32-25-60-57-60h-908c-32 0-57 28-57 60v1232c0 32 25 60 57 60h908c15 0 30-6 40-17z" fill="#fff" fill-rule="nonzero"/></g></svg>