<svg height="512pt" viewBox="-6 0 512 512" width="512pt" xmlns="http://www.w3.org/2000/svg"><path d="m500.757812 260.867188c.296876 101.40625-59.695312 188.820312-146.15625 228.457031-4.292968 1.964843-9.179687-1.167969-9.179687-5.886719 0-45.675781-37.027344-82.703125-82.703125-82.703125h-212.8125c-4.855469 0-9.40625-2.460937-11.980469-6.582031-24.03125-38.4375-37.925781-83.859375-37.925781-132.53125 0-138.101563 111.808594-250.089844 249.84375-250.378906 138.65625-.289063 250.507812 110.972656 250.914062 249.625zm0 0" fill="#0573cd"/><path d="m447.617188 354.078125h-286.148438c-8.464844 0-15.328125-6.863281-15.328125-15.328125v-323.421875c0-8.464844 6.863281-15.328125 15.328125-15.328125h286.148438c8.464843 0 15.328124 6.863281 15.328124 15.328125v323.421875c0 8.464844-6.863281 15.328125-15.328124 15.328125zm0 0" fill="#08e092"/><path d="m447.617188 354.078125h-260.597657c-8.46875 0-15.332031-6.863281-15.332031-15.328125v-323.421875c0-8.464844 6.863281-15.328125 15.332031-15.328125h260.597657c8.464843 0 15.328124 6.863281 15.328124 15.328125v323.421875c0 8.464844-6.863281 15.328125-15.328124 15.328125zm0 0" fill="#00f1a5"/><path d="m387.320312 66.425781v10.222657c0 2.820312-2.289062 5.109374-5.109374 5.109374h-183.953126c-2.820312 0-5.109374-2.289062-5.109374-5.109374v-10.222657c0-2.820312 2.289062-5.109375 5.109374-5.109375h183.953126c2.820312 0 5.109374 2.289063 5.109374 5.109375zm-189.0625 56.207031h122.636719c2.820313 0 5.109375-2.285156 5.109375-5.109374v-10.21875c0-2.820313-2.289062-5.109376-5.109375-5.109376h-122.636719c-2.820312 0-5.109374 2.289063-5.109374 5.109376v10.21875c0 2.824218 2.289062 5.109374 5.109374 5.109374zm183.953126 40.878907h-183.953126c-2.820312 0-5.109374 2.289062-5.109374 5.109375v10.222656c0 2.820312 2.289062 5.109375 5.109374 5.109375h183.953126c2.820312 0 5.109374-2.289063 5.109374-5.109375v-10.222656c0-2.820313-2.289062-5.109375-5.109374-5.109375zm0 40.878906h-183.953126c-2.820312 0-5.109374 2.289063-5.109374 5.109375v10.21875c0 2.824219 2.289062 5.113281 5.109374 5.113281h183.953126c2.820312 0 5.109374-2.289062 5.109374-5.113281v-10.21875c0-2.820312-2.289062-5.109375-5.109374-5.109375zm-61.316407 40.878906h-122.636719c-2.820312 0-5.109374 2.289063-5.109374 5.109375v10.21875c0 2.824219 2.289062 5.109375 5.109374 5.109375h122.636719c2.820313 0 5.109375-2.285156 5.109375-5.109375v-10.21875c0-2.820312-2.289062-5.109375-5.109375-5.109375zm0 0" fill="#04d481"/><path d="m354.617188 172.230469v317.09375c-31.738282 14.550781-67.035157 22.675781-104.238282 22.675781-89.691406 0-168.347656-47.167969-212.566406-118.042969v-221.726562c0-8.464844 6.863281-15.328125 15.328125-15.328125h286.148437c8.464844-.003906 15.328126 6.859375 15.328126 15.328125zm0 0" fill="#d3f1f5"/><path d="m63.359375 428.070312c-9.441406-10.601562-17.996094-22.011718-25.546875-34.113281v-221.726562c0-8.464844 6.863281-15.328125 15.328125-15.328125h25.550781c-8.464844 0-15.332031 6.863281-15.332031 15.328125zm0 0" fill="#ade8f0"/><path d="m274.90625 209.5v10.21875c0 2.824219-2.289062 5.113281-5.109375 5.113281h-183.953125c-2.820312 0-5.109375-2.289062-5.109375-5.113281v-10.21875c0-2.820312 2.289063-5.109375 5.109375-5.109375h183.953125c2.820313 0 5.109375 2.289063 5.109375 5.109375zm-66.425781 35.769531h-122.636719c-2.820312 0-5.109375 2.289063-5.109375 5.109375v10.21875c0 2.824219 2.289063 5.109375 5.109375 5.109375h122.636719c2.820312 0 5.109375-2.285156 5.109375-5.109375v-10.21875c0-2.820312-2.289063-5.109375-5.109375-5.109375zm0 0" fill="#95bcc9"/><path d="m274.90625 311.695312v10.222657c0 2.820312-2.289062 5.109375-5.109375 5.109375h-183.953125c-2.820312 0-5.109375-2.289063-5.109375-5.109375v-10.222657c0-2.820312 2.289063-5.109374 5.109375-5.109374h183.953125c2.820313 0 5.109375 2.289062 5.109375 5.109374zm-5.109375 35.769532h-183.953125c-2.820312 0-5.109375 2.289062-5.109375 5.109375v10.21875c0 2.824219 2.289063 5.109375 5.109375 5.109375h183.953125c2.820313 0 5.109375-2.285156 5.109375-5.109375v-10.21875c0-2.820313-2.289062-5.109375-5.109375-5.109375zm-61.316406 40.878906h-122.636719c-2.820312 0-5.109375 2.289062-5.109375 5.109375v10.21875c0 2.824219 2.289063 5.109375 5.109375 5.109375h122.636719c2.820312 0 5.109375-2.285156 5.109375-5.109375v-10.21875c0-2.820313-2.289063-5.109375-5.109375-5.109375zm0 0" fill="#84deea"/></svg>