<svg height="512" viewBox="0 0 512 512" width="512" xmlns="http://www.w3.org/2000/svg" xmlns:xlink="http://www.w3.org/1999/xlink"><linearGradient id="linear-gradient" gradientUnits="userSpaceOnUse" x1="74.98" x2="437.02" y1="74.98" y2="437.02"><stop offset="0" stop-color="#0fc8ff"/><stop offset="1" stop-color="#4760ff"/></linearGradient><g id="Layer_2" data-name="Layer 2"><g id="_07.edit_pen" data-name="07.edit pen"><circle id="background" cx="256" cy="256" fill="url(#linear-gradient)" r="256"/><path d="m385.81 166.26-19.92-20.15-19.45-19.68a26.27 26.27 0 0 0 -19.92-8.43q-12 0-19.91 8l-46.86 46.87-141.51 141.47v79.66h79.65l142-142.45 45.45-45.92a25.73 25.73 0 0 0 8.43-19.44 28.06 28.06 0 0 0 -7.96-19.93zm-199.63 199.62h-39.83v-40.29l133.49-133 20 19.63 20.16 19.78z" fill="#fff"/></g></g></svg>