<svg id="Layer_1" enable-background="new 0 0 68 68" height="512" viewBox="0 0 68 68" width="512" xmlns="http://www.w3.org/2000/svg"><g><g><g><circle cx="34" cy="34" fill="#8fc8f5" r="32"/></g></g><g><g><path d="m61.8500061 18.2299805c-6.3500366 8.4100342-16.460022 13.8400269-27.8500366 13.8400269s-21.5-5.4299927-27.8499756-13.8400269c5.5-9.6900025 15.9099731-16.2299805 27.8499756-16.2299805s22.3500366 6.539978 27.8500366 16.2299805z" fill="#d0f6ff"/></g></g><g><g><g><g><g><path d="m54.1107368 27.2914963v20.0114288c0 .6941795-.5627403 1.2569199-1.2569199 1.2569199h-37.7037267c-.6941776 0-1.2569208-.5627403-1.2569208-1.2569199v-20.0114288z" fill="#fff"/></g></g><g><g><path d="m54.1104546 27.2896824v-5.061533c0-.6941776-.5627441-1.2569218-1.2569199-1.2569218h-37.7073517c-.6941786 0-1.2569208.5627441-1.2569208 1.2569218v5.061533z" fill="#ff3445"/></g></g><g><g><path d="m38.7981567 23.4553242v1.3502636c0 .142992-.1159172.2589111-.2589111.2589111h-9.0787754c-.142992 0-.2589111-.1159191-.2589111-.2589111v-1.3502636c0-.1429939.1159191-.258913.2589111-.258913h9.0787754c.1429939-.0000001.2589111.115919.2589111.258913z" fill="#dd1436"/></g></g><g><g><path d="m37.2743988 16.4124508v8.6497459h-6.5512714v-8.6497459c0-.3533382.2864361-.6397743.6397743-.6397743h5.2717266c.3533363 0 .6397705.286436.6397705.6397743z" fill="#313b5a"/></g></g><g><g><path d="m35.073616 18.4389191c0 .5951023-.4798279 1.0749321-1.0749321 1.0749321-.594944 0-1.0747719-.4798298-1.0747719-1.0749321s.4798279-1.0749321 1.0747719-1.0749321c.5951042 0 1.0749321.4798298 1.0749321 1.0749321z" fill="#fff"/></g></g></g><g><g><path d="m50.875618 30.5511494v2.3144207c0 .1612015-.1306801.2918816-.2918816.2918816h-16.4422111c-.1612015 0-.2918816-.1306801-.2918816-.2918816v-2.3144207c0-.1611996.1306801-.2918797.2918816-.2918797h16.4422112c.1612014 0 .2918815.1306801.2918815.2918797z" fill="#fed110"/></g></g><g><g><path d="m30.6814594 30.6798229v14.4860477c0 .3644028-.2953587.6598358-.6599159.6598358h-12.9085274c-.3644791 0-.659914-.295433-.659914-.6598358v-14.4860477c0-.3645573.295435-.659914.659914-.659914h12.9085274c.3645573 0 .6599159.2953568.6599159.659914z" fill="#0f9be8"/></g></g></g><g><g><g><g><path d="m26.1641197 31.750742c0 .3831463-.1364613.7557583-.3831329 1.0496616l.0157452.0262337c.2403965.4005814.3673878.8589745.3673878 1.3261566v1.4292068c0 .3149147-.1994381.5930595-.4985962.6928101h-5.4424916c-.3096485-.1601028-.5038338-.4802399-.5038338-.8292732v-1.4878731c0-1.357975 1.1008568-2.4588318 2.4588318-2.4588318h1.3041954c.4146214 0 .823988-.0997181 1.1913605-.2886505l.5626431-.2935658c.0735722-.0383854.1616249.0149899.1616249.0979748v.3653851h.6452084c.0668583 0 .1210575.0541992.1210575.1210575v.2497082z" fill="#a63914"/></g></g><g><g><path d="m28.6308041 45.8257065v-1.9487228c0-1.9892159-1.4485378-3.6345787-3.3457699-3.9441032-.0052357 0-.0105305-.0026779-.0157681-.0026779-.2046814-.0288582-.4145985-.0498009-.6271935-.0498009h-3.2853775c-.2178288 0-.4251289.0209427-.6324291.0498009-.002676.0026779-.0079117.0026779-.0105305.0026779-1.9025269.3069649-3.3510647 1.9548874-3.3510647 3.9441032v1.9487228z" fill="#313b5a"/></g></g><g><g><path d="m26.45788 36.3196793c0 .3751984-.3041592.6793556-.6793575.6793556h-.1120281v-1.3587151h.1120281c.3751984 0 .6793575.3041611.6793575.6793595z" fill="#ffc0a4"/></g></g><g><g><path d="m25.825592 35.6423492v1.3541031c-.0157433.002594-.0314884.002594-.0472317.002594h-.1128368v-1.3593254h.1128368c.0157433 0 .0314885 0 .0472317.0026283z" fill="#ffa87a"/></g></g><g><g><path d="m19.4306488 36.3196793c0 .3751984.3041573.6793556.6793556.6793556h.11203v-1.3587151h-.11203c-.3751983 0-.6793556.3041611-.6793556.6793595z" fill="#ffc0a4"/></g></g><g><g><path d="m20.223032 35.6397209v1.3593254h-.1128368c-.0157452 0-.0314884 0-.0472336-.002594v-1.3541031c.0157452-.0026283.0314884-.0026283.0472336-.0026283z" fill="#ffa87a"/></g></g><g><g><g><path d="m22.6668797 45.8257065h.6623936l1.0425491-2.7701225.9132118-3.1227036c-.0052357 0-.0105305-.0026779-.0157681-.0026779-.2046814-.0288582-.4145985-.0498009-.6271935-.0498009h-3.2853775c-.2178288 0-.4251289.0209427-.6324291.0498009-.002676.0026779-.0079117.0026779-.0105305.0026779v.0025597l.9105949 3.1201439z" fill="#fff"/></g></g><g><g><path d="m25.2823906 39.9354935-.9105721 3.1200905-1.3724289-.9997864h-.0026264l-1.3724422.9997864-.910574-3.1200905c.0026264-.0026283.007864-.0026283.0104904-.0052528.2073193-.028862.4146214-.0498466.632431-.0498466h3.285429c.2125549 0 .4225006.0209846.6271763.0498466.0052529.0026244.0078793.0026244.0131169.0052528z" fill="#d0f6ff"/></g></g><g><g><path d="m22.660305 45.8257065h.6755409l.3038235-.7914963-.4434566-1.9392967.3595009-.6349907-.5563298-.4041252h-.0026169l-.5563297.4041252.3595028.6349907-.4434585 1.9392967z" fill="#ff3445"/></g></g></g><g><g><path d="m24.6722527 38.417572v1.6754799c0 .9253807-.7501202 1.6754799-1.6754913 1.6754799-.4626904 0-.881567-.1875191-1.184763-.490715-.3031979-.3031998-.4907284-.7220726-.4907284-1.1847649v-1.6754799z" fill="#ffc0a4"/></g></g><g><g><path d="m24.6722527 38.417572v1.2040176c-.3838215.2962036-.8447571.4960022-1.3477554.5590935-.1279469.0175209-.2558842.0245399-.3838215.0245399-.5993881 0-1.1567249-.1822777-1.6194057-.4960022v-1.2916488z" fill="#ffa87a"/></g></g><g><g><path d="m25.6664944 34.9347458v2.278862c0 1.3872871-.9916401 2.6173286-2.3646717 2.7937241-1.6590652.2145119-3.0797882-1.0774498-3.0797882-2.6983986v-2.3741875c0-.3008194.0498734-.5909462.140377-.8612022.0254612-.0760307.0992661-.1256943.1794472-.1256943h3.3892727c.2955799 0 .5863876-.0810089.8438492-.2336006l.2829323-.1733932c.0886631-.0543404.2077942-.028553.259264.0618057.2242545.3936996.3493175.8463249.3493175 1.3320846z" fill="#ffc0a4"/></g></g></g><g><g><path d="m27.6056194 43.4443054v.4687576c0 .0357742-.0286121.0644073-.0644073.0644073h-2.315155c-.0357971 0-.0644073-.0286331-.0644073-.0644073v-.4687576c0-.0357742.0286102-.0608253.0644073-.0608253h2.315155c.0357952 0 .0644073.0250511.0644073.0608253z" fill="#20273a"/></g></g></g><g><g><g><path d="m50.875618 35.3960037c0 .2609291-.2134972.4791756-.4791756.4791756h-16.0676231c-.2656784 0-.4791756-.2182465-.4791756-.4791756 0-.2656784.2134972-.4791756.4791756-.4791756h16.0676231c.2656784.0000001.4791756.2134972.4791756.4791756z" fill="#8fc8f5"/></g></g></g><g><g><g><g><path d="m44.3424492 38.7073517c0 .2609253-.2134972.4791718-.4791718.4791718h-9.5344582c-.2656784 0-.4791756-.2182465-.4791756-.4791718 0-.2656784.2134972-.4791756.4791756-.4791756h9.5344582c.2656746 0 .4791718.2134972.4791718.4791756z" fill="#8fc8f5"/></g></g></g><g><g><g><path d="m50.875618 38.7073517c0 .2609253-.2134972.4791718-.4791756.4791718h-3.4961624c-.2656746 0-.4791718-.2182465-.4791718-.4791718 0-.2656784.2134972-.4791756.4791718-.4791756h3.4961624c.2656784 0 .4791756.2134972.4791756.4791756z" fill="#8fc8f5"/></g></g></g></g><g><g><g><path d="m50.875618 42.0186958c0 .2609291-.2134972.4791756-.4791756.4791756h-16.0676231c-.2656784 0-.4791756-.2182465-.4791756-.4791756 0-.2656784.2134972-.4791756.4791756-.4791756h16.0676231c.2656784.0000001.4791756.2134972.4791756.4791756z" fill="#8fc8f5"/></g></g></g><g><g><g><g><path d="m47.6090355 45.33004c0 .2609291-.2134972.4791756-.4791756.4791756h-9.5344582c-.2656746 0-.4791756-.2182465-.4791756-.4791756 0-.2656746.213501-.4791718.4791756-.4791718h9.5344582c.2656784 0 .4791756.2134972.4791756.4791718z" fill="#8fc8f5"/></g></g></g></g></g><g opacity=".19"><g><path d="m55.7222214 53.2636223c0 .6742859-9.7271233 1.2212601-21.7222214 1.2212601s-21.7222214-.5469742-21.7222214-1.2212601c0-.6743355 9.7271242-1.2137642 21.7222214-1.2137642s21.7222214.5394287 21.7222214 1.2137642z"/></g></g></g></svg>