<svg clip-rule="evenodd" fill-rule="evenodd" height="512" image-rendering="optimizeQuality" shape-rendering="geometricPrecision" text-rendering="geometricPrecision" viewBox="0 0 2.83333 2.83333" width="512" xmlns="http://www.w3.org/2000/svg" xmlns:xlink="http://www.w3.org/1999/xlink"><linearGradient id="id0" gradientUnits="userSpaceOnUse" x1="0" x2="2.833" y1="1.417" y2="1.417"><stop offset="0" stop-color="#26a9e0"/><stop offset=".0901961" stop-color="#2297d3"/><stop offset=".231373" stop-color="#1e84c6"/><stop offset=".368627" stop-color="#1c79be"/><stop offset=".521569" stop-color="#1b75bb"/><stop offset=".960784" stop-color="#2b388f"/><stop offset="1" stop-color="#2b388f"/></linearGradient><g id="Layer_x0020_1"><circle cx="1.417" cy="1.417" fill="url(#id0)" r="1.417"/><g fill="#fff"><path d="m1.73548 2.26081h-1.08994c-.0453031 0-.0821654-.0368583-.0821654-.0821732l.00000787-1.52396c0-.0453031.0368583-.0821614.0821614-.0821614h1.08993c.0453071 0 .0821654.0368583.0821654.0821614v.679461l-.15237.263913h-.167402c-.0110276 0-.02.00897244-.02.02 0 .0110276.00896063.02.02.02h.144307l-.0594961.103047h-.55913c-.0110394 0-.02.00897244-.02.02 0 .0110276.00896063.02.02.02h.536035l-.0478465.0828701c-.00526772.00873228-.00831102.0188071-.00860236.0293386l-.00501969.181661c-.00230709-.00266929-.00431496-.00577165-.00601181-.00931102-.0105157-.0219409-.0393583-.0242165-.0937598-.0223858.0257638-.053122.0308346-.0942559.0150276-.122646-.0142756-.0256339-.0434724-.0386457-.0867441-.0386457-.117961 0-.306189.052189-.314551.121535-.0036378.0300984.022.0520827.0761929.0653465.0260827.0063937.0525433.0107402.0787598.013626-.0057874.0162047-.0107244.0319567-.0147087.0455945-.00309449.0106102.00298819.0216929.0135984.0247913.010622.00316929.0217047-.00298819.0247992-.0135984.00533465-.0183071.0115709-.0365118.0180669-.0533465.0249134.00141339.0492756.00180709.072563.00151181.00429528.0140433.00727953.0255709.0095.034126.00537795.0207323.00892913.0344449.0251378.0365118.00119291.00015354.00233071.00023622.00344488.00023622.0138898 0 .0205827-.012.0311417-.0309882.00530709-.00954331.0125827-.0225984.022626-.0388346.00088583-.00143307.00176378-.00284646.00262205-.00427953.0335512-.00147244.070874-.00274803.0815669.00144488.00871654.0166024.0235591.0313819.0444055.0379409.00493307.0122008.0138268.0226732.0255827.0294803.00912992.0052874.0194961.00807087.0300433.00807087.0110827 0 .0219646-.00309843.0314055-.00890157l.174941-.107559c.00874803-.00520472.0161142-.0125984.0212913-.0215709l.0325787-.0564252v.211945c.00000394.045311-.0368543.0821693-.0821614.0821693zm-.412693-.174335c.00058268.002.00112205.00392913.0016378.0057874.00109449-.00191339.00225197-.00389764.00345669-.00597244-.00169291.00008268-.00338976.00014173-.00509449.00018504zm-.0971496-.0397874c.0144291.00059843.0286496.00083465.0425512.00083465h.00011024c-.00259843-.00758661-.00538976-.0155709-.00837008-.0239567-.00354331-.00997638-.00659843-.0147677-.00833465-.0169449-.00666929.00457874-.0160433.0194528-.0259567.0400669zm.027-.0810669c.019315 0 .0344449.0149685.0449567.0445394.00469291.0131772.00892913.0254409.0127087.0367047.014626-.00041339.0286654-.00101181.0419409-.00159449.0270551-.0488346.0365945-.0865118.0261929-.105177-.00669291-.0120157-.024126-.0181102-.0518031-.0181102-.136591 0-.271598.0593465-.274846.0863189-.00019291.00156693.00748425.0122913.046.0217047.0278189.00679921.0563425.0111535.0846024.0138189.0184882-.0415669.0421929-.0773976.0691496-.078189.00037402-.00001575.00073622-.00001575.00109843-.00001575zm-.435685.196224c-.0604134 0-.114441-.0383031-.134441-.0952874-.00365354-.0104134.00183071-.0218307.012252-.0254843.0104134-.00370472.0218307.00182283.0254843.012252.0121339.0345709.0416732.0595787.0767047.0665591v-.126823h-.0528268c-.0110394 0-.02-.0089685-.02-.02 0-.0110276.00896063-.0199961.02-.0199961h.0528268v-.0559724h-.0263465c-.0110394 0-.02-.0089685-.02-.02 0-.0110276.00896063-.0199961.02-.0199961h.0463465.046374c.0110394 0 .02.0089685.02.0199961 0 .0110315-.00896063.02-.02.02h-.026378v.0559724h.0528504c.0110354 0 .0199961.0089685.0199961.0199961 0 .0110315-.00896063.02-.0199961.02h-.0528504v.126819c.0350197-.00698425.0645551-.0319803.0766732-.0665551.00365354-.0104291.0150827-.0159409.0254843-.012252.0104134.00365354.0159173.0150709.012252.0254843-.0199528.0569843-.0739921.0952874-.134406.0952874zm.855866-1.09591h-.174945c-.0110394 0-.02-.00896063-.02-.0199961 0-.0110394.00897244-.02.02-.02h.174961c.0110394 0 .02.00896063.02.02 0 .0110354-.00897244.0199961-.0200157.0199961zm-.315358 0h-.649264c-.0110394 0-.02-.00896063-.02-.0199961 0-.0110394.00896063-.02.02-.02h.649264c.0110394 0 .02.00896063.02.02 0 .0110354-.00894094.0199961-.02.0199961zm.315346.143024h-.649252c-.0110394 0-.02-.00896063-.02-.02 0-.0110394.00896063-.02.02-.02h.649252c.0110394 0 .02.00896063.02.02 0 .0110394-.00896063.02-.02.02zm-.789665 0h-.174945c-.0110394 0-.02-.00896063-.02-.02 0-.0110394.00896063-.02.02-.02h.174961c.0110394 0 .02.00896063.02.02 0 .0110394-.00896063.02-.0200157.02zm.789677.143047h-.174945c-.0110394 0-.02-.00896063-.02-.02 0-.0110394.00897244-.02.02-.02h.174961c.0110394 0 .02.00896063.02.02 0 .0110394-.00897244.02-.0200157.02zm-.315358 0h-.649264c-.0110394 0-.02-.00896063-.02-.02 0-.0110394.00896063-.02.02-.02h.649264c.0110394 0 .02.00896063.02.02 0 .0110394-.00894094.02-.02.02zm.315346.143031h-.649252c-.0110394 0-.02-.00897244-.02-.02 0-.0110276.00896063-.02.02-.02h.649252c.0110394 0 .02.00897244.02.02 0 .0110276-.00896063.02-.02.02zm-.789665 0h-.174945c-.0110394 0-.02-.00897244-.02-.02 0-.0110276.00896063-.02.02-.02h.174961c.0110394 0 .02.00897244.02.02 0 .0110276-.00896063.02-.0200157.02zm.474319.14302h-.649264c-.0110394 0-.02-.00897244-.02-.02 0-.0110276.00896063-.02.02-.02h.649264c.0110394 0 .02.00897244.02.02 0 .0110276-.00894094.02-.02.02zm-.474303.143047h-.174961c-.0110394 0-.02-.00897244-.02-.02 0-.0110276.00896063-.02.02-.02h.174961c.0110394 0 .02.00897244.02.02 0 .0110276-.00896063.02-.02.02zm.789661-.849102h-.964622c-.0110394 0-.02-.00896063-.02-.02v-.200087c0-.0110394.00896063-.02.02-.02h.898701c.0110354 0 .0199961.00896063.0199961.02 0 .0110394-.0089685.0199961-.0199961.0199961h-.878705v.160091h.944642c.0110394 0 .02.00896063.02.02 0 .0110394-.00897244.02-.0200157.02z"/><path d="m2.0895 1.00965.0306378-.0530551c.00552756-.00958268.0177874-.0128189.027315-.00731496l.112492.0649409c.00459843.00264961.00794094.00701181.0093189.0121496.00138976.00512205.00066535.0105827-.002.0151811l-.030626.0530472-.147138-.0849488z"/><path d="m2.07709 1.71172c-.00340157 0-.00683465-.00087795-.00998425-.00268504-.00956693-.00550787-.0128425-.0177441-.0073189-.027315l.161756-.280161-.0993898-.0573661c-.00957087-.00551181-.0128465-.017748-.0073189-.0273189.00554331-.00958268.0178071-.0127992.0273189-.00731496l.116713.0673661c.00459843.00264961.00794094.00701181.00931496.0121496.0013937.00512598.00066929.0105827-.002.0151811l-.171752.297469c-.0037126.0063937-.010437.00999606-.0173386.00999606z"/><path d="m1.5558 1.86767.263055-.455622.20463.118142-.263059.455614zm.283055-.49026.0347362-.0601654.20463.118146-.0347362.0601614zm.0547244-.0947913.0304843-.0527953.204634.118138-.0304882.0528031-.20463-.118146zm.0504764-.0874252.0867087-.150181c.00552756-.00957087.0177874-.0128031.027315-.0073189l.169988.0981457c.00459843.00265354.00794488.00701575.0093189.0121535.00138976.00512205.00066535.0105827-.002.0151811l-.0866929.150154-.204638-.118134z"/><path d="m1.55743 2.12116c-.00344488 0-.00690551-.00088976-.01-.00268504-.0063622-.00367717-.0101929-.0105394-.01-.0178701l.00536614-.194264.190638.110055-.165547.101787c-.00319291.00197244-.00683071.00297638-.0104567.00297638zm.0155118-.243598.00016535.00009449.0571654.0330039-.0573307-.0330984z"/></g></g></svg>